<?xml version="1.0" encoding="UTF-8" standalone="no"?><!DOCTYPE svg PUBLIC "-//W3C//DTD SVG 1.1//EN" "http://www.w3.org/Graphics/SVG/1.1/DTD/svg11.dtd"><svg width="100%" height="100%" viewBox="0 0 449 137" version="1.1" xmlns="http://www.w3.org/2000/svg" xmlns:xlink="http://www.w3.org/1999/xlink" xml:space="preserve" xmlns:serif="http://www.serif.com/" style="fill-rule:evenodd;clip-rule:evenodd;stroke-linejoin:round;stroke-miterlimit:1.41421;"><path d="M134.296,115.867l-0.217,2.454l0.942,2.967l1.427,4.47l7.248,4.486l4.121,2.098l5.358,1.124l6.219,0.038l6.107,0.074l3.222,-1.348l-2.323,-2.51l-5.882,-2.211l-4.159,-4.159l-2.847,-3.821l-0.824,-4.168l-9.086,0.019l-9.306,0.487Z" style="fill:#4f4f4f;"/><g id="dolphin"><path d="M1.443,103.45l2.566,2.407l6.677,1.738l9.787,0.548l10.702,0.275l16.19,0l16.556,3.75l20.306,2.287l8.186,1.583l4.002,-0.428l3.573,5.002l6.432,7.432l10.147,5.145l10.576,3.287l11.005,0.429l7.574,-0.572l-0.183,-2.089l-2.122,-2.268l-3.439,-2.854l-2.854,-4.318l-1.976,-5.341l-0.658,-3.147l2.268,-0.439l5.463,-0.078l10.709,-0.288l12.22,-2.195l12.806,-1.61l10.404,-1.244l12.366,-1.976l11.343,-3.292l9.22,-2.635l8.927,-3l6.659,-1.244l7.464,-0.878l9.138,-0.996l7.957,-0.274l3.553,-0.245l-1.936,-1.798l-6.922,-1.25l-5.7,-2.897l-11.816,-2.958l-9.284,-3.544l-10.577,-1.664l-11.721,-0.342l-19.929,-0.258l-7.329,2.045l-12.245,3.427l-10.698,5.002l-9.055,4.665l-8.598,2.652l-5.798,1.83l-4.757,1.28l-1.463,0.366l-1.281,-1.463l-6.769,-1.373l-6.86,-1.189l-6.768,0.641l-6.129,2.195l-3.567,3.201l-0.274,1.464l-1.373,0.183l-3.475,-1.83l-4.574,-3.658l-4.207,-3.751l-4.554,-1.28l-6.768,-5.122l-11.016,-1.299l-7.803,-0.66l-6.59,0.578l-6.73,1.627l-10.036,4.111l-9.825,3.875l-9.194,2.369l-5.441,1.107l-2.482,1.246Z" style="fill:#5a5a5a;"/><path d="M1.461,103.577l-1.461,-1.386l0.824,-2.435l2.398,-2.361l5.582,-2.472l5.395,-3.26l2.323,-1.498l3.051,-6.38l7.226,-7.592l11.525,-8.232l17.562,-6.951l19.765,-6.129l27.258,-7.5l24.696,-5.854l23.782,-4.665l8.875,-3.567l11.708,-8.416l13.995,-13.628l5.74,-5.671l5.488,-3.293l3.659,-2.013l3.201,-0.274l1.738,0.274l0.091,3.293l-1.555,8.964l-1.006,6.312l0.641,6.219l2.012,4.299l6.037,3.202l7.5,2.561l14.178,2.287l21.586,2.195l16.282,3.659l24.764,5.213l18.385,5.397l22.318,8.049l6.673,2.653l11.434,7.5l7.318,4.208l6.601,0.192l21.796,-2.68l22.331,-1.786l12.327,0.715l14.113,1.25l6.253,1.429l2.144,1.072l-1.787,1.965l-6.789,1.072l-12.684,0.715l-7.86,1.608l-10.362,3.037l-12.148,3.394l-8.039,1.251l-12.506,0.178l-9.111,-0.893l-7.682,-2.858l-11.612,1.072l-14.471,1.965l-20.009,1.25l-20.008,2.323l-28.035,3.384l-1.967,-1.774l-6.752,-1.252l-5.908,-2.877l-10.945,-2.669l-10.256,-3.559l-10.176,-1.715l-12.044,-0.169l-19.568,-0.23l-19.525,5.41l-19.75,9.268l-14.537,4.533l-6.358,1.724l-1.349,-1.386l-13.413,-2.586l-6.818,0.562l-6.145,2.361l-3.484,3.035l-0.337,1.423l-1.53,0.487l-3.634,-2.06l-8.579,-7.306l-4.759,-1.386l-6.631,-5.058l-18.695,-1.799l-6.34,0.413l-6.707,1.573l-8.242,3.597l-12.07,4.346l-5.657,1.573l-5.882,1.387l-2.88,0.449l-2.512,1.322Z" style="fill:#4f4f4f;"/><ellipse cx="45.544" cy="85.388" rx="2.634" ry="2.517"/></g></svg>