<?xml version="1.0" encoding="UTF-8" standalone="no"?><!DOCTYPE svg PUBLIC "-//W3C//DTD SVG 1.1//EN" "http://www.w3.org/Graphics/SVG/1.1/DTD/svg11.dtd"><svg width="100%" height="100%" viewBox="0 0 399 142" version="1.1" xmlns="http://www.w3.org/2000/svg" xmlns:xlink="http://www.w3.org/1999/xlink" xml:space="preserve" xmlns:serif="http://www.serif.com/" style="fill-rule:evenodd;clip-rule:evenodd;stroke-linejoin:round;stroke-miterlimit:1.41421;"><g id="fin"><path d="M99.012,48.615l12.787,-7.585l16.255,-4.335l8.453,-2.167l13.871,-0.217l10.186,-2.601l16.472,-1.083l8.886,-1.301l14.521,-5.635l14.304,-4.768l11.921,-4.985l5.852,-1.951l10.403,-2.817l9.721,-2.636l10.298,-1.492l9.445,-0.923l11.292,-1.136l11.576,-0.568l20.181,-0.284l10.014,-1.705l15.837,-0.426l10.298,0.781l18.82,1.989l20.101,4.616l8.395,1.329l-4.118,34.678l-26.441,-3.685l-43.347,-3.901l-43.997,0.433l-39.09,2.879l-39.791,5.926l-47.833,5.503l-40.214,3.387l-15.881,2.427l-15.535,1.442l16.358,-9.189Z" style="fill:#fafb43;"/></g><g id="mainbody"><path d="M0,100.975l0.222,4.439l4.328,2.885l7.989,3.218l15.536,6.325l14.093,6.547l24.967,6.548l14.981,5.881l14.759,3.107l21.638,1.221l21.298,0.665l17.089,-1.553l24.746,-2.552l24.856,-1.332l34.511,-2.774l39.819,-5.559l56.3,-1.27l52.067,5.926l5.926,-90.164l-22.012,-4.657l-28.784,-4.233l-30.479,-2.116l-27.091,0l-39.368,3.809l-34.288,3.387l-20.318,4.656l-22.012,2.117l-22.436,0l-29.208,5.079l-20.742,-1.27l-9.313,5.08l-16.085,2.117l-15.544,5.516l-12.761,2.886l-5.993,2.996l-17.849,0.333l-6.658,0.111l-3.662,1.442l-4.105,1.665l-2.442,2.33l-0.111,5.326l0.333,2.886l3.662,2.774l5.771,2.441l6.214,2.108l6.658,3.218l7.878,1.998l5.66,0.666l10.431,6.991l-12.54,-0.333l-10.209,-0.555l-6.658,-0.222l-5.548,-0.555l-5.992,-2.774l-6.88,-0.444l-2.644,3.669Z" style="fill:#f9c702;"/><ellipse cx="30.632" cy="77.493" rx="3.64" ry="3.285" style="fill:#fff;"/><path d="M156.183,104.261c3.228,0.6 5.622,2.301 5.344,3.794c-0.278,1.493 -3.124,2.217 -6.351,1.617c-3.227,-0.601 -5.622,-2.302 -5.344,-3.795c0.278,-1.493 3.124,-2.217 6.351,-1.616Z" style="fill:#434343;"/><ellipse cx="30.613" cy="77.66" rx="0.568" ry="0.523"/></g></svg>