<?xml version="1.0" encoding="UTF-8" standalone="no"?><!DOCTYPE svg PUBLIC "-//W3C//DTD SVG 1.1//EN" "http://www.w3.org/Graphics/SVG/1.1/DTD/svg11.dtd"><svg width="100%" height="100%" viewBox="0 0 140 80" version="1.1" xmlns="http://www.w3.org/2000/svg" xmlns:xlink="http://www.w3.org/1999/xlink" xml:space="preserve" xmlns:serif="http://www.serif.com/" style="fill-rule:evenodd;clip-rule:evenodd;stroke-linejoin:round;stroke-miterlimit:1.41421;"><path id="brass-outer" d="M140,9.418c0,-5.198 -4.22,-9.418 -9.418,-9.418l-121.164,0c-5.198,0 -9.418,4.22 -9.418,9.418l0,61.164c0,5.198 4.22,9.418 9.418,9.418l121.164,0c5.198,0 9.418,-4.22 9.418,-9.418l0,-61.164Z" style="fill:#f7ba61;"/><path id="brass-outer1" serif:id="brass-outer" d="M135.435,14.138c0,-4.395 -3.569,-7.964 -7.965,-7.964l-114.94,0c-4.396,0 -7.965,3.569 -7.965,7.964l0,51.724c0,4.395 3.569,7.964 7.965,7.964l114.94,0c4.396,0 7.965,-3.569 7.965,-7.964l0,-51.724Z" style="fill:#fef1de;"/></svg>