<?xml version="1.0" encoding="UTF-8" standalone="no"?><!DOCTYPE svg PUBLIC "-//W3C//DTD SVG 1.1//EN" "http://www.w3.org/Graphics/SVG/1.1/DTD/svg11.dtd"><svg width="100%" height="100%" viewBox="0 0 861 537" version="1.1" xmlns="http://www.w3.org/2000/svg" xmlns:xlink="http://www.w3.org/1999/xlink" xml:space="preserve" xmlns:serif="http://www.serif.com/" style="fill-rule:evenodd;clip-rule:evenodd;stroke-linecap:round;stroke-linejoin:round;stroke-miterlimit:1.5;"><g id="outline"><path d="M381.01,326.065l-75.732,-0.276l-15.755,1.382l-26.534,7.186l-12.161,10.779l-6.311,8.597l0.09,4.981l0.634,4.981l8.737,12.748l10.614,20.165l4.599,9.906l0.177,9.553l0.531,10.436l-8.668,17.336l-19.458,19.812l-35.299,22.283l-39.761,9.328l-31.785,0.345l-27.294,-7.946l-15.893,-20.729l-2.084,-19.127l6.545,-16.982l13.09,-13.267l17.513,-10.79l20.696,-7.253l19.458,-2.653l11.675,1.592l10.614,3.715l7.252,4.776l4.423,3.715l1.061,5.483l-5.307,5.307l-9.198,-4.068l-17.512,-3.185l-18.22,3.892l-17.513,6.368l-12.913,10.437l-4.776,7.252l-2.3,9.553l6.545,8.314l18.751,7.96l26.003,-1.592l34.848,-12.56l22.819,-16.981l5.838,-8.137l0.707,-8.137l-1.769,-7.607l-21.227,-28.833l-6.722,-12.206l-4.599,-18.22l3.184,-27.595l19.812,-23.35l21.711,-15.162l7.076,-5.661l8.667,-7.429l-2.476,-2.831l-17.512,-9.198l-14.859,-1.946l-25.119,1.592l-12.736,5.838l-31.841,20.165l-18.928,14.859l-21.702,14.506l-18.396,8.314l-19.459,6.191l-14.505,1.769l-16.628,0.353l-9.906,-0.884l-17.689,-5.307l-9.152,-7.329l-4.981,-13.495l0.725,-11.774l3.622,-10.053l4.257,-5.253l6.793,-5.706l4.438,-3.441l11.864,-6.068l13.133,-3.714l10.128,-1.63l9.781,-0.906l13.404,0.725l9.963,1.449l8.513,2.989l6.25,4.076l5.524,9.328l1.45,8.604l-0.272,3.442l-0.725,4.438l-2.536,2.173l-4.166,0.725l0.272,-3.895l-0.815,-6.521l-6.974,-7.517l-13.948,-3.623l-16.845,0.091l-12.952,2.083l-10.053,4.529l-9.51,5.434l-10.325,8.332l-2.013,7.608l0.272,1.992l6.974,1.902l9.872,2.536l24.453,-0.09l10.959,-2.083l13.857,-4.891l13.931,-6.793l7.97,-5.525l11.502,-8.151l10.325,-9.147l7.699,-8.061l14.105,-13.766l14.672,-12.771l32.605,-17.117l28.191,-6.518l13.975,-2.3l12.913,-2.122l2.3,-0.885l-6.015,-10.437l-3.538,-12.736l0.354,-14.682l1.415,-8.314l-5.13,-10.613l-9.729,-7.253l-9.906,-3.538l-9.729,-1.946l-13.62,0.354l-14.329,1.946l-13.974,4.422l-10.099,5.097l-6.26,7.072l-0.58,2.086l5.333,2.493l9.216,2.029l18.78,0.405l12.347,-3.072l11.129,-4.753l3.478,3.42l1.796,5.854l-7.071,3.826l-10.086,3.942l-18.085,3.535l-12.636,0.348l-14.723,-1.159l-9.184,-4.579l-4.927,-6.086l-1.507,-4.406l0.232,-9.796l6.028,-8.81l10.722,-9.796l10.201,-5.623l12.173,-4.463l17.737,-3.536l5.156,-0.753l15.941,0.058l11.476,2.492l11.13,3.42l9.738,6.202l7.883,6.492l7.535,9.216l2.84,11.419l0.696,12.81l2.492,8l18.657,6.897l12.868,2.841l10.898,2.608l7.999,-1.217l3.387,-7.826l-4.173,-5.042l-1.623,-6.956l-1.043,-7.941l-5.275,-7.767l-2.492,-7.883l-0.544,-13.35l0.679,-7.925l2.264,-4.982l-2.037,-7.019l3.509,-6.453l8.944,-4.981l5.774,-1.585l3.509,-5.434l8.831,-5.321l5.434,-3.51l5.774,-1.018l13.16,-24.822l7.359,-11.038l17.123,-17.831l22.762,-14.293l18.538,-10.189l19.387,-5.377l23.067,-2.406l22.076,1.132l19.907,2.406l37.077,12.029l25.19,17.689l14.292,18.68l7.784,19.812l-0.283,7.5l-0.121,1.58l0.085,1.422l-0.002,1.778l-0.155,1.683l-1.149,3.281l-0.14,3.266l-0.338,2.539l-0.606,3.137l-0.966,4.487l0.093,5.196l-1.484,9.7l-1.302,9.055l-3.963,12.453l0,2.83l1.415,5.661l1.84,4.245l-1.132,10.331l-5.519,7.642l-6.934,7.783l-7.501,9.623l-0.141,9.481l-0.708,5.519l13.869,8.067l17.972,8.349l18.821,5.236l14.293,3.113l11.887,1.274l9.906,-0.425l11.878,-4.386l6.085,-7.642l7.217,-15.567l9.623,-14.576l9.198,-9.057l12.454,-5.519l16.557,-4.245l16.557,-1.84l16.785,0.425l15.85,3.255l14.859,5.802l10.189,6.651l7.217,8.491l4.387,11.179l1.132,8.35l-0.141,6.934l-10.048,9.198l-13.444,4.529l-17.264,3.962l-19.529,-0.708l-23.492,-5.943l-12.17,-9.057l-6.368,-5.802l0,-4.246l2.264,-3.679l3.963,0.283l3.821,2.689l14.009,5.943l16.558,3.538l19.812,-1.132l19.387,-4.67l4.811,-2.122l-0.283,-3.68l-2.688,-4.528l-7.359,-5.095l-14.293,-5.66l-12.029,-2.406l-14.01,-0.566l-15.142,1.981l-10.33,3.821l-7.783,3.962l-8.774,10.189l-4.104,26.605l-13.444,17.548l-19.387,10.189l-43.081,5.519l-40.048,1.415l-23.775,1.132l24.907,8.774l28.02,4.387l21.368,1.981l29.011,-2.123l27.312,-5.236l30.242,-2.83l19.246,-1.415l26.038,1.273l23.35,2.689l25.702,7.501l18.539,9.481l11.887,10.472l4.387,4.67l3.821,10.755l4.245,10.897l-1.698,15.142l-9.623,15.991l-15.567,10.896l-19.953,5.095l-25.19,0.141l-28.585,-4.953l-16.416,-9.057l-13.019,-12.877l-5.661,-12.454l0.991,-9.34l2.547,-8.349l4.953,-4.528l2.123,-1.699l3.254,2.831l2.265,6.509l-2.123,6.51l1.274,5.802l5.66,6.934l16.982,7.642l21.935,5.095l17.689,0.141l17.406,-5.377l12.736,-5.803l4.953,-6.368l0.283,-6.651l-5.236,-6.792l-7.783,-7.642l-14.717,-7.076l-17.973,-6.085l-29.152,-3.679l-34.023,0.707l-18.822,1.981l-37.076,8.067l-38.209,5.236l-38.775,0l-32.69,-0.991l-28.028,-2.264l-16.415,-2.83l8.491,11.179l12.311,18.255l8.208,11.888l1.698,14.293l-3.821,17.689l-13.726,15.425l-20.803,11.887l-20.52,13.161l-26.887,14.01l-20.378,18.113l-7.076,12.595l-2.547,9.199l11.038,10.755l13.302,9.057l18.114,5.519l22.076,3.396l28.303,-2.83l23.774,-13.586l4.953,-10.189l-2.688,-8.915l-10.189,-9.765l-16.275,-9.198l-16.981,-4.528l-13.586,-0.708l-8.066,1.415l-3.396,-4.528l1.698,-8.35l5.378,-3.82l14.434,-1.416l12.17,0.425l18.255,4.104l15.001,8.774l12.312,10.613l6.651,7.784l4.387,12.877l1.132,13.444l-3.68,15.991l-11.887,13.019l-19.104,10.614l-23.35,6.51l-22.076,1.698l-24.623,-2.547l-24.482,-7.925l-20.944,-15.425l-13.161,-15.991l-2.856,-16.133l1.981,-12.878l6.086,-17.547l7.217,-12.878l13.727,-14.01l12.453,-10.472l19.387,-12.878l16.982,-15.566l11.746,-11.321l0.141,-3.963l-7.359,-6.793l-14.434,-8.915l-27.454,-9.198l-30.142,-11.321l-20.52,-4.104l-18.461,-0.125Z" style="fill:#5f1e26;"/></g><g id="eyes"><path d="M447.53,150.737l-7.256,-2.419l-12.092,0.346l-16.238,5.528l-11.401,11.746l1.036,12.093l7.601,9.673l16.238,5.528l14.856,-4.146l9.674,-14.165l2.764,-12.783l-5.182,-11.401Z" style="fill:#ebeff3;"/><path d="M445.457,168.357l-30.749,11.056" style="fill:none;stroke:#000;stroke-width:5.67px;"/><path d="M311.747,122.009l6.226,12.453l4.67,11.887l0.566,12.312l-2.689,7.642l-2.971,1.556l-6.793,-11.462l-3.538,-14.435l-0.424,-10.472l2.122,-6.792l2.831,-2.689Z" style="fill:#ebeff3;"/><path d="M314.577,150.736l-5.519,-6.792" style="fill:none;stroke:#000;stroke-width:5.7px;"/></g></svg>