<?xml version="1.0" encoding="UTF-8" standalone="no"?><!DOCTYPE svg PUBLIC "-//W3C//DTD SVG 1.1//EN" "http://www.w3.org/Graphics/SVG/1.1/DTD/svg11.dtd"><svg width="100%" height="100%" viewBox="0 0 160 123" version="1.1" xmlns="http://www.w3.org/2000/svg" xmlns:xlink="http://www.w3.org/1999/xlink" xml:space="preserve" xmlns:serif="http://www.serif.com/" style="fill-rule:evenodd;clip-rule:evenodd;stroke-linejoin:round;stroke-miterlimit:1.41421;"><g><path id="gray-bird" serif:id="gray bird" d="M122.563,35.517l9.943,6.058l8.699,2.952l11.34,1.398l2.175,2.019l2.796,7.302l2.02,15.845l-0.311,21.904l-2.553,11.939l-7.789,18.02l-1.578,-1.323l-5.599,-22.296l-4.123,-7.483l-1.135,-6.563l0.582,-4.272l2.735,-3.064l0.299,-4.53l-7.468,-8.034l-15.032,-9.147l-10.977,-6.761l-9.193,2.625l-8.67,2.227l-7.715,2.466l-11.93,7.079l-5.488,-1.512l-5.17,-4.295l9.067,-5.965l6.363,-4.852l2.784,-3.818l4.136,-4.931l-27.522,-24.921l-14.474,5.306l-17.896,5.568l-20.879,8.252l11.632,-7.158l13.025,-5.668l18.989,-8.848l13.721,-5.965l10.34,-3.779l7.059,-1.292l6.164,0.099l1.988,4.276l2.585,5.17l6.761,7.556l6.86,4.175l6.363,1.392l4.076,0.497l5.17,-2.286l2.188,-0.597l7.257,-0.099l2.585,1.392l1.79,1.789l4.673,-0.696l1.988,1.889l-1.491,1.492l-4.673,0.696l-6.487,8.772Z" style="fill:#ececec;"/><path d="M133.226,22.668l1.988,1.889l-1.527,1.484l-4.65,0.625l-1.063,-1.73l0.563,-1.543l4.689,-0.725Z" style="fill:#fbc400;"/><path d="M159.349,84.244l-9.752,18.132l-11.199,-8.208l2.991,5.854l5.345,21.698l2.1,1.234l8.144,-17.587l1.909,-8.972l0.462,-12.151Z"/><ellipse cx="121.275" cy="23.133" rx="1.222" ry="1.1"/><path id="Layer2" d="M38.555,12.78l-18.071,12.065l-20.484,7.992l11.576,-7.941l26.979,-12.116Z"/></g></svg>