<?xml version="1.0" encoding="UTF-8" standalone="no"?><!DOCTYPE svg PUBLIC "-//W3C//DTD SVG 1.1//EN" "http://www.w3.org/Graphics/SVG/1.1/DTD/svg11.dtd"><svg width="100%" height="100%" viewBox="0 0 160 123" version="1.1" xmlns="http://www.w3.org/2000/svg" xmlns:xlink="http://www.w3.org/1999/xlink" xml:space="preserve" xmlns:serif="http://www.serif.com/" style="fill-rule:evenodd;clip-rule:evenodd;stroke-linejoin:round;stroke-miterlimit:1.41421;"><g><path id="gray-bird" serif:id="gray bird" d="M36.973,35.517l-9.943,6.058l-8.699,2.952l-11.34,1.398l-2.175,2.019l-2.796,7.302l-2.02,15.845l0.311,21.904l2.553,11.939l7.789,18.02l1.578,-1.323l5.599,-22.296l4.123,-7.483l1.135,-6.563l-0.582,-4.272l-2.735,-3.064l-0.299,-4.53l7.468,-8.034l15.032,-9.147l10.977,-6.761l9.193,2.625l8.67,2.227l7.715,2.466l11.93,7.079l5.488,-1.512l5.17,-4.295l-9.067,-5.965l-6.363,-4.852l-2.784,-3.818l-4.136,-4.931l27.522,-24.921l14.474,5.306l17.896,5.568l20.879,8.252l-11.632,-7.158l-13.025,-5.668l-18.989,-8.848l-13.721,-5.965l-10.34,-3.779l-7.059,-1.292l-6.164,0.099l-1.988,4.276l-2.585,5.17l-6.761,7.556l-6.86,4.175l-6.363,1.392l-4.076,0.497l-5.17,-2.286l-2.188,-0.597l-7.257,-0.099l-2.585,1.392l-1.79,1.789l-4.673,-0.696l-1.988,1.889l1.491,1.492l4.673,0.696l6.487,8.772Z" style="fill:#ececec;"/><path d="M26.31,22.668l-1.988,1.889l1.527,1.484l4.65,0.625l1.063,-1.73l-0.563,-1.543l-4.689,-0.725Z" style="fill:#fbc400;"/><path d="M0.187,84.244l9.752,18.132l11.199,-8.208l-2.991,5.854l-5.345,21.698l-2.1,1.234l-8.144,-17.587l-1.909,-8.972l-0.462,-12.151Z"/><ellipse cx="38.261" cy="23.133" rx="1.222" ry="1.1"/><g id="Layer2"><path d="M120.981,12.78l18.071,12.065l20.484,7.992l-11.576,-7.941l-26.979,-12.116Z"/></g></g></svg>