<?xml version="1.0" encoding="UTF-8" standalone="no"?><!DOCTYPE svg PUBLIC "-//W3C//DTD SVG 1.1//EN" "http://www.w3.org/Graphics/SVG/1.1/DTD/svg11.dtd"><svg width="100%" height="100%" viewBox="0 0 692 567" version="1.1" xmlns="http://www.w3.org/2000/svg" xmlns:xlink="http://www.w3.org/1999/xlink" xml:space="preserve" xmlns:serif="http://www.serif.com/" style="fill-rule:evenodd;clip-rule:evenodd;stroke-linejoin:round;stroke-miterlimit:1.41421;"><g id="full-turtle" serif:id="full turtle"><path id="body-outline" serif:id="body outline" d="M285.935,0l20.776,0.109l11.019,1.042l11.073,1.645l20.768,5.153l21.05,6.249l18.041,7.017l16.994,9.045l19.08,12.992l19.829,15.13l18.2,16.336l21.187,21.799l15.829,23.23l7.04,14.49l2.275,11.242l1.141,16.318l-0.343,8.651l-2.001,4.65l-1.464,5.855l10.118,11.379l8.994,10.385l9.422,12.42l5.139,7.174l2.892,0.75l12.499,0l3.454,1.041l5.536,3.07l2.083,0.932l4.193,0.156l6.692,2.175l16.562,-2.509l15.558,-2.677l18.068,-0.502l17.064,0.167l13.718,3.848l6.127,3.011l13.384,11.377l7.361,9.87l4.517,7.528l1.84,5.019l0.167,9.536l-3.513,2.342l-5.855,2.085l-8.365,4.607l-18.004,5.32l-14.475,2.398l-13.962,2.998l-6.278,1.713l-18.587,0.685l-13.448,3.598l-10.107,6.081l-4.711,1.028l-6.082,4.026l-7.452,0.771l-2.912,2.655l-1.976,0.485l-5.033,7.174l-7.816,9.422l-7.28,8.137l-8.459,6.317l-6.745,1.82l0.642,6.638l1.82,1.178l6.639,0.75l9.208,5.888l8.137,10.386l7.281,13.277l4.175,15.846l1.285,18.844l-2.355,16.702l-6.103,14.348l-12.742,21.628l-15.203,16.488l-15.486,14.776l-17.666,13.383l-19.166,13.063l-15.417,8.993l-15.74,8.138l-17.452,7.816l-25.708,6.424l-20.557,2.462l-14.133,0.321l-16.703,-2.141l-7.495,-3.212l-3.426,-4.283l1.285,-5.888l5.675,-4.819l11.67,-7.709l8.673,-3.319l8.03,-8.779l7.602,-4.069l11.242,-10.814l15.632,-11.777l12.099,-8.673l14.989,-10.707l18.845,-22.484l13.379,-20.45l8.459,-7.602l1.07,-11.242l3.319,-8.994l0.215,-14.669l-2.249,-2.034l-32.549,15.204l-10.814,-1.178l-8.244,7.388l-13.062,4.497l-25.52,5.139l-7.173,0.107l-7.816,-3.533l-6.21,3.212l-9.53,1.499l-12.205,-0.214l-14.669,-1.713l-13.49,-3.105l-6.103,-4.497l-4.711,2.891l-6.866,0.814l-11.512,-4.934l-11.622,-3.892l-9.922,-3.563l-9.539,-4.824l-4.604,-3.125l-2.358,-4.989l-5.913,0.274l-7.345,-3.289l-12.499,-7.51l-13.212,-8.881l-9.867,-7.236l-3.358,-4.769l-0.658,-3.508l-5.262,-0.055l-4.989,-1.974l-3.399,-1.425l-3.618,2.138l-25.592,-0.179l-23.019,2.569l-33.274,7.174l-23.984,2.356l-23.983,-1.821l-19.058,-5.781l-11.238,-7.816l-9.101,-10.814l-5.354,-10.814l-1.285,-7.602l2.463,-5.246l0.964,-2.356l1.499,-4.497l10.278,-7.602l15.953,-13.812l4.475,-3.977l2.462,-6.103l3.534,-5.46l4.282,-2.463l8.245,0.643l3.105,-0.429l1.177,-2.248l4.604,-2.356l5.675,0.215l7.923,1.713l5.461,1.82l4.496,-2.034l3.427,-1.392l3.961,1.07l4.604,-3.319l-8.244,-10.707l-7.495,-10.921l-17.131,-3.212l-8.887,-4.497l-8.672,-3.961l-6.853,-3.747l-2.248,-3.427l1.82,-2.783l10.386,-4.069l8.994,-3.319l9.957,-2.463l3.533,-0.107l8.137,-6.424l4.711,-3.212l4.711,-7.281l-1.391,-3.533l-12.313,0.107l-9.744,-3.961l-11.028,-5.782l-12.955,-8.351l-9.315,-5.996l-5.675,-5.247l-9.636,-8.351l-9.636,-7.923l-4.925,-6.103l0.214,-2.784l3.854,-3.747l7.281,-1.82l12.741,-2.142l20.022,0.75l28.052,0.642l25.911,2.249l23.618,1.177l21.949,2.677l16.274,2.463l3.855,1.177l17.773,-5.781l11.778,-4.176l3.64,0.857l8.78,-5.14l13.276,-3.319l26.906,-6.21l22.485,-2.462l19.7,-1.285l4.176,1.606l1.713,-1.285l15.418,-0.964l23.448,1.071l20.717,1.606l14.775,2.784l0.75,0.749l2.891,-0.214l7.387,0.107l17.774,4.497l10.171,3.212l2.677,-1.606l-0.214,-4.068l-9.208,-12.849l-15.739,-15.525l-9.101,-4.818l-11.028,-10.171l-12.527,-10.386l-14.026,-10.064l-14.775,-9.851l-15.739,-11.777l-14.818,-13.17l-9.422,-7.816l-4.818,-6.103l-3.212,-4.604l1.713,-3.426l4.154,-1.628" style="fill:#374355;"/><g id="shell"><path d="M204.554,146.264l62.223,22.766l3,57l-45.28,24.736l-39.56,-32.707l-6.381,-39.886l25.998,-31.909Z" style="fill:#6c722c;"/><path d="M304.146,137.115l49.859,28.335l1.388,62.637l-41.616,31.943l-42,-33l-3,-57l35.369,-32.915Z" style="fill:#6c722c;"/><path d="M382.827,142.343l45.415,31.995l5.309,55.84l-37.774,32.852l-38,-36l-0.164,-60.359l25.214,-24.328Z" style="fill:#6c722c;"/><path d="M457.196,154.03l47.506,44.485l-2.794,32.54l-30.131,31.975l-36,-33.5l-5,-54.5l26.419,-21Z" style="fill:#6c722c;"/><path d="M435.777,232.03l36,34l12,78l-40,27.803l-48,9.197l1,-115l39,-34Z" style="fill:#6c722c;"/><path d="M358.777,229.03l35,37.515l0,114.485l-54,6l-57,-11l36,-117l40,-30Z" style="fill:#6c722c;"/><path d="M270.438,229.03l43.339,35l-35,110l-45,-20l-37,-31l27,-69l46.661,-25Z" style="fill:#6c722c;"/><path d="M501.777,234.03l32,55l-15,30l-33,23l-12,-78l28,-30Z" style="fill:#6c722c;"/><path d="M147.777,159.03l29,16l5,44l-46,46l-13,-13l-13,-28l1,-35l37,-30Z" style="fill:#6c722c;"/><path d="M517.777,196.03l29.428,37.114l0,36.886l-11.428,17l-31,-50l1,-32l12,-9Z" style="fill:#6c722c;"/><path d="M197.777,133.03l4,1l2,10l-25,30l-29,-15l7,-9l11,-7l30,-10Z" style="fill:#6c722c;"/><path d="M267.777,116.03l27,0l8,20l-34,32l-63,-24l-3,-12l27,-9l38,-7Z" style="fill:#6c722c;"/><path d="M352.777,116.03l22,5l6,20l-25,24l-51,-30l-6,-19l23,-2l31,2Z" style="fill:#6c722c;"/><path d="M436.777,135.03l19,8l0,10l-26,20l-46,-32l-7,-20l24,3l36,11Z" style="fill:#6c722c;"/><path d="M183.777,219.03l39,33l-28,70l-30,-24l-28,-32l47,-47Z" style="fill:#6c722c;"/><path d="M481.937,157.161l26.84,26.869l7.654,10l-7.654,6.663l-50,-46.663l0,-10l23.16,13.131Z" style="fill:#6c722c;"/><path d="M133.777,160.03l32,-17l-40,33l-15,12l-8,-1l9,-10l22,-17Z" style="fill:#6c722c;"/><path d="M100.777,188.03l9,1l-3,24l4,23l9,16l-20,15l-22,-29l-2,-22l25,-28Z" style="fill:#6c722c;"/><path d="M120.777,254.03l16,15l23,28l-21,21l-27,-29l-13,-20l22,-15Z" style="fill:#6c722c;"/><path d="M160.777,298.03l24,19l25,20l-17,22l-30,-15l-24,-24l22,-22Z" style="fill:#6c722c;"/><path d="M211.777,338.03l20,17l26,12l-15,26l-30,-14l-19,-18l18,-23Z" style="fill:#6c722c;"/><path d="M259.777,367.03l22,11l30,6l-9,35l-30,-8l-28,-16l15,-28Z" style="fill:#6c722c;"/><path d="M313.777,384.03l25,5l29,-2l-1,38l-33,0l-29,-6l9,-35Z" style="fill:#6c722c;"/><path d="M370.777,386.03l29,-2l27,-6l0,33l-23,9l-31,4l-2,-38Z" style="fill:#6c722c;"/><path d="M429.777,377.03l19,-6l20,-13l11,30l-21,11l-29,11l0,-33Z" style="fill:#6c722c;"/><path d="M469.777,356.03l19,-13l19,-14l13,24l-20,19l-19,14l-12,-30Z" style="fill:#6c722c;"/><path d="M509.777,328.03l11,-9l14,-27l19,25l-13,18l-18,16l-13,-23Z" style="fill:#6c722c;"/><path d="M551.163,239.586l4.971,0.62l9.988,27.812l-1.623,26.012l-8.853,20l-16.869,-22l10,-12.5l2.461,-20.503l-0.075,-19.441Z" style="fill:#6c722c;"/></g><g id="spots"><path d="M568.021,227.55l0.199,0.047l0.191,0.074l0.179,0.099l0.164,0.122l0.146,0.144l0.125,0.162l14.118,21.177l6.149,19.47l-2.018,32.279l-0.027,0.203l-0.054,0.197l-0.08,0.188l-0.105,0.176l-0.129,0.159l-0.149,0.141l-0.166,0.119l-0.181,0.095l-0.193,0.07l-0.2,0.043l-0.204,0.015l-0.205,-0.013l-0.2,-0.04l-0.194,-0.068l-0.182,-0.093l-0.168,-0.117l-0.15,-0.139l-0.13,-0.158l-0.108,-0.174l-0.082,-0.187l-0.057,-0.197l-0.029,-0.203l-0.001,-0.205l1.983,-31.721l-5.852,-18.53l-13.882,-20.823l-0.102,-0.178l-0.076,-0.19l-0.05,-0.198l-0.023,-0.204l0.006,-0.204l0.033,-0.202l0.06,-0.196l0.087,-0.185l0.111,-0.172l0.133,-0.156l0.154,-0.135l0.17,-0.114l0.184,-0.089l0.195,-0.064l0.201,-0.036l0.205,-0.008l0.204,0.019Z" style="fill:#9bae9a;"/><path d="M578.896,230.535l0.194,0.028l0.189,0.053l0.18,0.078l0.168,0.1l0.154,0.122l0.137,0.141l0.118,0.157l0.095,0.171l10.015,21.031l8.176,19.419l-4.061,27.415l-0.042,0.192l-0.066,0.184l-0.089,0.175l-0.112,0.161l-0.132,0.146l-0.149,0.127l-0.165,0.106l-0.177,0.084l-0.187,0.06l-0.193,0.035l-0.196,0.01l-0.196,-0.016l-0.192,-0.042l-0.184,-0.066l-0.175,-0.089l-0.161,-0.112l-0.146,-0.132l-0.127,-0.149l-0.106,-0.165l-0.084,-0.177l-0.06,-0.187l-0.035,-0.193l-0.01,-0.196l0.016,-0.196l3.939,-26.585l-7.824,-18.581l-9.985,-20.969l-0.073,-0.182l-0.048,-0.191l-0.023,-0.194l0.003,-0.197l0.028,-0.194l0.053,-0.189l0.078,-0.18l0.1,-0.168l0.122,-0.154l0.141,-0.137l0.157,-0.118l0.171,-0.095l0.182,-0.073l0.191,-0.048l0.194,-0.023l0.197,0.003Z" style="fill:#9bae9a;"/><path d="M615.042,226.661l0.597,1.28l-7.016,10.524l-13.718,1.143l-0.729,-0.75l1.206,-10.853l0.193,-0.221l9.1,-2.275l10.367,1.152Zm-16.889,3.571l-0.684,6.152l9.462,-0.789l4.231,-6.346l-6.283,-0.698l-6.726,1.681Z" style="fill:#9bae9a;"/><path d="M604.868,276.533l0.104,0.01l0.103,0.017l0.102,0.024l0.1,0.032l0.097,0.038l0.095,0.045l0.091,0.052l0.087,0.057l0.083,0.064l0.079,0.069l0.073,0.075l0.068,0.079l0.063,0.085l0.056,0.088l0.05,0.092l0.043,0.095l0.037,0.098l0.03,0.1l0.023,0.103l0.015,0.103l0.009,0.105l0.001,0.104l-0.007,0.105l-0.013,0.104l-2.044,12.264l-4.134,7.233l-0.055,0.089l-0.061,0.085l-0.067,0.081l-0.072,0.075l-0.078,0.071l-0.082,0.065l-0.086,0.059l-0.091,0.052l-0.094,0.047l-0.097,0.039l-0.099,0.033l-0.102,0.026l-0.103,0.018l-0.104,0.012l-0.104,0.004l-0.105,-0.003l-0.104,-0.011l-0.103,-0.017l-0.102,-0.025l-0.1,-0.032l-0.097,-0.039l-0.094,-0.045l-0.091,-0.052l-0.087,-0.059l-0.083,-0.064l-0.078,-0.069l-0.073,-0.075l-0.068,-0.08l-0.062,-0.085l-0.056,-0.088l-0.049,-0.092l-0.043,-0.096l-0.037,-0.098l-0.029,-0.101l-0.022,-0.102l-0.015,-0.104l-0.008,-0.104l0,-0.105l0.007,-0.104l0.014,-0.104l0.021,-0.102l0.028,-0.101l0.036,-0.099l0.042,-0.096l0.049,-0.092l3.867,-6.767l1.955,-11.736l0.021,-0.102l0.028,-0.101l0.035,-0.099l0.042,-0.096l0.048,-0.093l0.055,-0.089l0.06,-0.085l0.067,-0.081l0.072,-0.076l0.077,-0.071l0.082,-0.065l0.086,-0.06l0.09,-0.053l0.094,-0.047l0.097,-0.04l0.099,-0.033l0.101,-0.026l0.103,-0.019l0.104,-0.012l0.105,-0.005l0.105,0.003Z" style="fill:#9bae9a;"/><path d="M612.846,283.532l0.077,0.005l0.076,0.01l0.076,0.013l0.076,0.017l0.074,0.021l0.073,0.025l0.072,0.029l0.07,0.032l0.068,0.036l0.067,0.04l0.064,0.042l0.062,0.046l0.06,0.05l0.057,0.052l0.054,0.055l0.051,0.057l0.049,0.061l0.045,0.062l0.042,0.065l0.038,0.067l0.035,0.069l0.031,0.071l0.028,0.072l0.024,0.073l0.02,0.075l0.016,0.076l0.012,0.076l0.009,0.077l0.004,0.077l0.001,0.077l-0.004,0.077l-0.007,0.077l-0.012,0.076l-0.015,0.076l-0.019,0.075l-0.023,0.074l-0.027,0.072l-4,10l-0.031,0.071l-0.034,0.069l-0.038,0.068l-0.041,0.065l-0.044,0.063l-0.048,0.061l-0.05,0.059l-0.054,0.055l-0.056,0.053l-0.059,0.05l-0.062,0.047l-0.064,0.043l-0.066,0.04l-0.068,0.037l-0.069,0.033l-0.072,0.03l-0.073,0.025l-0.074,0.022l-0.075,0.018l-0.076,0.015l-0.076,0.01l-0.077,0.007l-0.077,0.002l-0.078,-0.002l-0.077,-0.005l-0.076,-0.01l-0.076,-0.013l-0.076,-0.017l-0.074,-0.021l-0.073,-0.025l-0.072,-0.029l-0.07,-0.032l-0.068,-0.036l-0.067,-0.04l-0.064,-0.042l-0.062,-0.046l-0.06,-0.05l-0.057,-0.052l-0.054,-0.055l-0.051,-0.057l-0.049,-0.061l-0.045,-0.062l-0.042,-0.065l-0.038,-0.067l-0.035,-0.069l-0.031,-0.071l-0.028,-0.072l-0.024,-0.073l-0.02,-0.075l-0.016,-0.076l-0.012,-0.076l-0.009,-0.077l-0.004,-0.077l-0.001,-0.077l0.004,-0.077l0.007,-0.077l0.012,-0.076l0.015,-0.076l0.019,-0.075l0.023,-0.074l0.027,-0.072l4,-10l0.031,-0.071l0.034,-0.069l0.038,-0.068l0.041,-0.065l0.044,-0.063l0.048,-0.061l0.05,-0.059l0.054,-0.055l0.056,-0.053l0.059,-0.05l0.062,-0.047l0.064,-0.043l0.066,-0.04l0.068,-0.037l0.069,-0.033l0.072,-0.03l0.073,-0.025l0.074,-0.022l0.075,-0.018l0.076,-0.015l0.076,-0.01l0.077,-0.007l0.077,-0.002l0.078,0.002Z" style="fill:#9bae9a;"/><path d="M612.458,243.687l8.297,5.185l8.771,9.867l-0.056,0.815l-8.305,7.119l-9.155,-2.289l-12.466,-12.465l-3.564,-7.128l0.478,-1.005l10.446,-2.321l5.554,2.222Zm-12.48,2.391l2.032,4.063l11.534,11.535l6.845,1.711l5.252,-4.502l-6.842,-7.697l-7.703,-4.815l-4.446,-1.778l-6.672,1.483Z" style="fill:#9bae9a;"/><path d="M632.305,225.579l9.972,6.648l0,15.575l-8.157,5.826l-6.112,-1.222l-13.929,-15l-0.04,-0.439l7.931,-12.463l0.123,-0.059l10.212,1.134Zm-14.641,11.279l11.882,12.796l3.888,0.778l5.843,-4.174l0,-12.425l-8.028,-5.352l-7.708,-0.857l-5.877,9.234Z" style="fill:#9bae9a;"/><path d="M639.277,271.316l0,4.603l-0.321,0.396l-11.231,2.364l-0.396,-0.191l-4.286,-8.572l0.078,-0.414l6.322,-5.689l0.581,-0.015l9.253,7.518Zm-12.648,-0.935l2.472,4.943l7.176,-1.511l0,-1.069l-6.45,-5.241l-3.198,2.878Z" style="fill:#9bae9a;"/><path d="M646.188,250.32l5.971,5.97l1.226,6.131l-4.753,5.941l-5.212,1.303l-6.143,-4.914l0,-7.411l8.222,-7.047l0.689,0.027Zm-5.911,8.4l0,4.589l3.857,3.086l2.788,-0.697l3.247,-4.059l-0.774,-3.869l-3.696,-3.697l-5.422,4.647Z" style="fill:#9bae9a;"/><path d="M647.851,224.532l0.068,0.005l0.068,0.008l0.067,0.011l0.067,0.014l0.066,0.017l0.066,0.02l0.064,0.023l0.063,0.027l0.062,0.028l0.06,0.032l0.059,0.034l0.058,0.037l0.055,0.04l0.054,0.042l0.052,0.045l0.05,0.046l0.047,0.049l0.045,0.052l0.043,0.053l0.041,0.055l0.038,0.057l0.035,0.058l0.033,0.06l0.029,0.062l0.027,0.062l0.024,0.064l0.021,0.065l0.019,0.066l0.015,0.067l0.012,0.067l0.009,0.067l0.006,0.068l0.003,0.069l-0.001,0.068l-0.003,0.068l-0.006,0.068l-0.01,0.068l-0.013,0.067l-0.015,0.066l-0.019,0.066l-0.022,0.065l-0.024,0.064l-0.028,0.062l-0.03,0.061l-0.033,0.06l-0.036,0.058l-0.038,0.057l-0.041,0.055l-0.043,0.052l-0.046,0.051l-0.048,0.049l-0.05,0.046l-0.052,0.044l-0.054,0.042l-0.056,0.039l-3.656,2.438l-5.733,-2.293l-0.063,-0.027l-0.061,-0.03l-0.061,-0.032l-0.058,-0.035l-0.057,-0.038l-0.055,-0.04l-0.053,-0.043l-0.052,-0.045l-0.049,-0.048l-0.047,-0.049l-0.044,-0.052l-0.043,-0.053l-0.039,-0.056l-0.038,-0.057l-0.034,-0.059l-0.032,-0.061l-0.029,-0.061l-0.026,-0.064l-0.023,-0.064l-0.021,-0.065l-0.017,-0.066l-0.014,-0.067l-0.012,-0.067l-0.008,-0.068l-0.005,-0.068l-0.002,-0.068l0.001,-0.069l0.004,-0.068l0.008,-0.068l0.01,-0.067l0.014,-0.067l0.016,-0.066l0.02,-0.066l0.022,-0.064l0.025,-0.064l0.029,-0.062l0.031,-0.061l0.033,-0.059l0.037,-0.058l0.039,-0.056l0.041,-0.054l0.044,-0.052l0.047,-0.051l0.048,-0.048l0.051,-0.045l0.052,-0.044l0.055,-0.041l0.056,-0.038l0.059,-0.036l0.059,-0.033l0.061,-0.031l0.063,-0.027l0.064,-0.025l0.064,-0.022l0.066,-0.019l0.066,-0.016l0.067,-0.012l0.068,-0.01l0.068,-0.007l0.068,-0.003l0.068,-0.001l0.069,0.003l0.068,0.006l0.067,0.008l0.068,0.012l0.066,0.015l0.066,0.018l0.065,0.021l0.064,0.024l4.267,1.707l2.344,-1.562l0.058,-0.037l0.059,-0.034l0.061,-0.031l0.062,-0.028l0.063,-0.026l0.065,-0.022l0.065,-0.02l0.066,-0.017l0.067,-0.013l0.068,-0.011l0.067,-0.007l0.069,-0.005l0.068,-0.001l0.068,0.002Z" style="fill:#9bae9a;"/><path d="M662.124,230.933l0.221,0.348l-1.139,13.66l-8.314,4.751l-6.472,-2.589l-0.143,-0.212l0,-15.71l6.349,-3.81l9.498,3.562Zm-12.847,1.946l0,12.135l3.385,1.354l5.686,-3.249l0.84,-10.083l-6.26,-2.347l-3.651,2.19Z" style="fill:#9bae9a;"/><path d="M666.868,233.533l0.09,0.008l0.089,0.014l0.089,0.019l0.087,0.024l0.086,0.029l0.084,0.035l0.081,0.04l0.079,0.044l0.076,0.05l0.073,0.053l0.07,0.058l0.066,0.062l0.062,0.066l0.058,0.07l0.053,0.073l0.05,0.076l0.044,0.079l0.04,0.081l0.035,0.084l0.029,0.086l0.024,0.087l0.019,0.089l0.014,0.089l0.008,0.09l0.003,0.091l0,8.379l4.121,4.121l2.925,0l2.622,-1.748l0.077,-0.048l0.079,-0.043l0.083,-0.039l0.084,-0.033l0.086,-0.028l0.088,-0.023l0.088,-0.018l0.09,-0.012l0.091,-0.007l0.09,-0.001l0.091,0.004l0.09,0.01l0.089,0.015l0.088,0.021l0.087,0.025l0.085,0.031l0.084,0.036l0.08,0.041l0.079,0.046l0.075,0.05l0.072,0.055l0.069,0.059l0.065,0.064l0.061,0.067l0.057,0.07l0.052,0.074l0.048,0.077l0.043,0.079l0.039,0.083l0.033,0.084l0.028,0.086l0.023,0.088l0.018,0.088l0.012,0.09l0.007,0.091l0.001,0.09l-0.004,0.091l-0.01,0.09l-0.015,0.089l-0.021,0.088l-0.025,0.087l-0.031,0.085l-0.036,0.084l-0.041,0.08l-0.046,0.079l-0.05,0.075l-0.055,0.072l-0.059,0.069l-0.064,0.065l-0.067,0.061l-0.07,0.057l-0.074,0.052l-3.378,2.252l-5.075,0l-5.879,-5.879l0,-9.621l0.003,-0.091l0.008,-0.09l0.014,-0.089l0.019,-0.089l0.024,-0.087l0.029,-0.086l0.035,-0.084l0.04,-0.081l0.044,-0.079l0.05,-0.076l0.053,-0.073l0.058,-0.07l0.062,-0.066l0.066,-0.062l0.07,-0.058l0.073,-0.053l0.076,-0.05l0.079,-0.044l0.081,-0.04l0.084,-0.035l0.086,-0.029l0.087,-0.024l0.089,-0.019l0.089,-0.014l0.09,-0.008l0.091,-0.003l0.091,0.003Z" style="fill:#9bae9a;"/><path d="M681.824,249.531l0.079,0.004l0.08,0.009l0.079,0.013l0.078,0.017l0.077,0.022l0.075,0.025l0.075,0.03l0.072,0.033l0.071,0.037l0.068,0.041l0.067,0.044l0.064,0.048l0.061,0.052l0.058,0.054l0.056,0.058l0.052,0.06l0.049,0.063l0.046,0.065l0.042,0.068l0.038,0.07l0.035,0.072l0.031,0.074l0.026,0.075l0.023,0.077l0.019,0.078l0.014,0.078l0.01,0.079l0.006,0.08l0.002,0.08l-0.002,0.08l-0.007,0.079l-0.011,0.079l-0.015,0.079l-0.02,0.077l-0.023,0.077l-0.027,0.075l-0.032,0.073l-0.035,0.072l-0.039,0.069l-0.043,0.068l-0.046,0.065l-3,4l-2.1,2.8l2.058,1.544l3.266,-1.633l3.102,-1.034l0.076,-0.023l0.078,-0.019l0.078,-0.015l0.079,-0.011l0.08,-0.007l0.08,-0.002l0.079,0.002l0.08,0.006l0.079,0.011l0.079,0.014l0.077,0.019l0.077,0.023l0.075,0.027l0.074,0.031l0.072,0.034l0.07,0.039l0.067,0.042l0.066,0.046l0.063,0.049l0.06,0.053l0.057,0.055l0.055,0.059l0.051,0.061l0.048,0.064l0.044,0.066l0.041,0.069l0.036,0.071l0.034,0.073l0.029,0.074l0.025,0.076l0.021,0.077l0.017,0.078l0.013,0.079l0.009,0.079l0.004,0.08l0.001,0.08l-0.005,0.079l-0.008,0.08l-0.012,0.079l-0.017,0.078l-0.021,0.077l-0.025,0.076l-0.029,0.074l-0.033,0.073l-0.036,0.071l-0.041,0.069l-0.044,0.066l-0.047,0.065l-0.051,0.061l-0.054,0.059l-0.057,0.056l-0.06,0.053l-0.063,0.049l-0.065,0.046l-0.068,0.043l-0.069,0.038l-0.072,0.036l-0.074,0.031l-0.075,0.027l-2.899,0.966l-4.668,2.335l-0.124,-0.012l-5.435,-4.076l-0.112,-0.784l3.564,-4.752l3,-4l0.05,-0.063l0.052,-0.059l0.056,-0.057l0.059,-0.054l0.062,-0.051l0.064,-0.047l0.067,-0.044l0.069,-0.04l0.071,-0.037l0.073,-0.033l0.075,-0.028l0.076,-0.025l0.077,-0.021l0.078,-0.016l0.079,-0.013l0.079,-0.008l0.08,-0.004l0.08,0.001Z" style="fill:#9bae9a;"/><path d="M671.113,251.929l0.164,0.237l0,5.362l-0.803,0.664l-15.166,-2.917l-0.411,-1.662l6.608,-5.286l0.001,-0.001l9.607,3.603Zm-10.861,1.242l8.025,1.543l0,-0.645l-6.229,-2.335l-1.796,1.437Z" style="fill:#9bae9a;"/><path d="M670.494,262.675l6.243,5.203l0.084,0.075l0.077,0.081l0.072,0.086l0.064,0.092l0.058,0.096l0.05,0.1l0.043,0.104l0.035,0.107l0.026,0.109l0.019,0.11l0.01,0.112l0.002,0.112l-0.007,0.112l-0.015,0.111l-0.023,0.11l-0.032,0.108l-0.039,0.105l-0.047,0.102l-0.054,0.098l-0.062,0.093l-0.069,0.089l-0.075,0.084l-0.081,0.077l-0.086,0.072l-0.092,0.064l-0.096,0.058l-0.1,0.05l-0.104,0.043l-0.107,0.035l-0.109,0.026l-0.11,0.019l-0.112,0.01l-0.112,0.002l-0.112,-0.007l-0.111,-0.015l-0.11,-0.023l-0.108,-0.031l-0.105,-0.04l-0.102,-0.047l-0.098,-0.054l-0.094,-0.062l-0.088,-0.069l-5.757,-4.797l-6.028,-1.722l-5.242,3.494l-2.361,2.833l-0.075,0.084l-0.081,0.077l-0.086,0.072l-0.092,0.064l-0.096,0.058l-0.1,0.05l-0.104,0.043l-0.107,0.035l-0.109,0.026l-0.11,0.019l-0.112,0.01l-0.112,0.002l-0.112,-0.007l-0.111,-0.015l-0.11,-0.023l-0.108,-0.031l-0.105,-0.04l-0.102,-0.047l-0.098,-0.054l-0.094,-0.062l-0.088,-0.069l-0.084,-0.075l-0.077,-0.081l-0.072,-0.086l-0.064,-0.092l-0.058,-0.096l-0.05,-0.1l-0.043,-0.104l-0.035,-0.107l-0.026,-0.109l-0.019,-0.11l-0.01,-0.112l-0.002,-0.112l0.007,-0.112l0.015,-0.111l0.023,-0.11l0.031,-0.108l0.04,-0.105l0.047,-0.102l0.054,-0.098l0.062,-0.093l0.069,-0.089l2.639,-3.167l6.758,-4.506l7.972,2.278Z" style="fill:#9bae9a;"/><path d="M471.425,512.73l11.335,-3.689l7.587,-13.339l17.211,-5.424l4.253,-14.809l12.823,-5.496l5.15,-16.793l11.156,-9.7l-3.743,-17.313l7.561,-14.559l-7.481,-10.361l0,-9.581l-6.375,-14.557l-11.097,-9.448l-0.23,-0.245l-0.17,-0.29l-0.1,-0.32l-0.027,-0.335l0.048,-0.333l0.121,-0.313l0.188,-0.279l0.245,-0.229l0.29,-0.17l0.32,-0.101l0.335,-0.026l0.332,0.048l0.314,0.121l0.278,0.188l11.624,9.895l6.904,15.766l0,9.239l7.954,11.016l0.008,0.12l-7.882,15.177l3.883,17.956l-0.019,0.057l-11.821,10.277l-5.306,17.302l-12.793,5.483l-4.305,14.99l-17.624,5.555l-7.578,13.324l-11.663,3.796l-11.427,12.937l-15.525,-0.263l-12.716,11.426l-11.045,2.008l-5.115,4.092l-10.836,0l-5.924,6.911l-14.667,1.956l-3.689,10.146l-0.15,0.3l-0.212,0.26l-0.265,0.207l-0.305,0.142l-0.328,0.07l-0.336,-0.004l-0.327,-0.078l-0.3,-0.15l-0.261,-0.212l-0.206,-0.265l-0.142,-0.305l-0.071,-0.328l0.005,-0.336l0.078,-0.327l4.292,-11.801l0.074,-0.06l15.278,-2.037l6.076,-7.089l11.164,0l4.885,-3.908l10.955,-1.992l12.96,-11.646l15.32,0.26l11.054,-12.514Z" style="fill:#9bae9a;"/><path d="M403.904,523.535l0.267,-0.127l11.914,1.986l8.832,-12.756l7.666,-1.096l16.052,-1.888l4.964,-15.884l0.005,-0.005l16.921,-3.981l2.924,-12.672l20.874,-13.916l1.007,-17.106l0.064,-0.092l16.141,-7.062l4.631,-15.746l-10.113,-19.215l0.001,-0.032l6.972,-10.955l-7.551,-13.214l-0.127,-0.287l-0.063,-0.307l0.001,-0.313l0.066,-0.307l0.129,-0.286l0.186,-0.253l0.234,-0.208l0.272,-0.156l0.299,-0.096l0.312,-0.031l0.311,0.034l0.298,0.098l0.271,0.158l0.232,0.211l0.183,0.255l8.424,14.74l-0.003,0.09l-6.99,10.985l9.878,18.769l-5.369,18.254l-15.799,6.912l-0.989,16.828l-21.126,14.084l-3.059,13.252l-0.094,0.094l-16.999,4l-5,16.002l-0.149,0.124l-17.833,2.098l-6.333,0.904l-9.115,13.165l-0.149,0.063l-11.813,-1.969l-3.908,6.838l-0.188,0.097l-8.648,-0.961l-2.854,8.561l-5.93,1.977l-2.015,8.056l-0.359,0.281l-19.957,0l-10.349,-1.035l-6.247,-3.123l-0.264,-0.169l-0.224,-0.22l-0.172,-0.262l-0.115,-0.292l-0.051,-0.309l0.014,-0.313l0.079,-0.304l0.14,-0.28l0.195,-0.246l0.243,-0.199l0.278,-0.144l0.302,-0.084l0.313,-0.018l0.31,0.046l0.294,0.11l5.753,2.877l9.651,0.965l17.754,0l1.916,-7.663l6.069,-2.023l3.044,-9.131l0.425,-0.272l8.903,0.989l3.941,-6.895Z" style="fill:#9bae9a;"/><path d="M538.873,365.022l0.067,0.006l0.065,0.008l0.066,0.012l0.064,0.014l0.065,0.018l0.063,0.02l0.062,0.023l0.061,0.025l0.06,0.028l0.059,0.031l0.057,0.034l0.056,0.036l0.054,0.038l0.053,0.041l0.05,0.043l0.049,0.045l0.046,0.048l0.045,0.049l0.042,0.051l0.039,0.053l0.038,0.055l0.035,0.057l0.032,0.058l0.03,0.059l0.027,0.06l0.025,0.062l0.022,0.063l0.019,0.063l0.016,0.065l0.013,0.065l0.01,0.065l0.008,0.066l0.004,0.066l0.002,0.067l-0.001,0.066l-0.005,0.066l-0.007,0.066l-0.01,0.066l-0.013,0.065l-0.016,0.064l-0.018,0.064l-0.022,0.063l-0.024,0.062l-0.027,0.06l-0.03,0.06l-0.032,0.058l-0.035,0.056l-0.037,0.055l-0.04,0.054l-0.042,0.051l-0.044,0.05l-7,7.511l-0.046,0.047l-0.048,0.046l-0.051,0.043l-0.052,0.041l-0.054,0.039l-0.055,0.036l-0.058,0.033l-0.058,0.032l-0.06,0.028l-0.061,0.026l-0.062,0.023l-0.064,0.021l-0.064,0.017l-0.064,0.015l-0.066,0.012l-0.065,0.009l-0.066,0.006l-0.067,0.003l-0.066,0l-0.066,-0.003l-0.067,-0.006l-0.065,-0.008l-0.066,-0.012l-0.064,-0.014l-0.065,-0.018l-0.063,-0.02l-0.062,-0.023l-0.061,-0.025l-0.06,-0.029l-0.059,-0.031l-0.057,-0.033l-0.056,-0.036l-0.054,-0.038l-0.053,-0.041l-0.05,-0.043l-0.049,-0.046l-0.046,-0.047l-0.045,-0.049l-0.042,-0.052l-0.04,-0.053l-0.037,-0.054l-0.035,-0.057l-0.032,-0.058l-0.03,-0.059l-0.027,-0.061l-0.025,-0.061l-0.022,-0.063l-0.019,-0.063l-0.016,-0.065l-0.013,-0.065l-0.01,-0.065l-0.008,-0.066l-0.004,-0.067l-0.002,-0.066l0.001,-0.066l0.005,-0.067l0.007,-0.066l0.01,-0.065l0.013,-0.065l0.016,-0.065l0.018,-0.063l0.022,-0.063l0.024,-0.062l0.027,-0.061l0.03,-0.059l0.032,-0.058l0.035,-0.056l0.037,-0.055l0.04,-0.054l0.041,-0.051l0.045,-0.05l7,-7.511l0.046,-0.047l0.048,-0.046l0.051,-0.043l0.052,-0.041l0.054,-0.039l0.055,-0.036l0.058,-0.034l0.058,-0.031l0.06,-0.028l0.061,-0.026l0.062,-0.023l0.064,-0.021l0.064,-0.017l0.064,-0.015l0.066,-0.012l0.065,-0.009l0.066,-0.006l0.067,-0.003l0.066,0l0.066,0.003Z" style="fill:#9bae9a;"/><path d="M540.162,391.654l12.141,-4.047l0.198,-0.051l0.203,-0.024l0.205,0.004l0.202,0.032l0.196,0.059l0.186,0.085l0.173,0.11l0.156,0.132l0.137,0.153l0.115,0.169l0.09,0.184l0.065,0.194l0.038,0.201l0.01,0.205l-0.018,0.204l-0.046,0.199l-0.072,0.192l-0.098,0.18l-0.121,0.164l-0.143,0.147l-0.161,0.126l-0.177,0.103l-0.19,0.078l-11.859,3.953l-7.342,4.195l-16.813,-2.967l-9.782,8.804l-12.554,2.092l-17.124,0l-0.204,-0.014l-0.201,-0.042l-0.193,-0.068l-0.181,-0.094l-0.168,-0.118l-0.149,-0.14l-0.129,-0.159l-0.107,-0.175l-0.081,-0.188l-0.056,-0.197l-0.027,-0.203l0,-0.204l0.027,-0.203l0.056,-0.197l0.081,-0.188l0.107,-0.175l0.129,-0.159l0.149,-0.14l0.168,-0.118l0.181,-0.094l0.193,-0.068l0.201,-0.042l0.204,-0.014l16.876,0l11.446,-1.908l10.218,-9.196l17.187,3.033l6.658,-3.805Z" style="fill:#9bae9a;"/><path d="M557.929,418.538l0.15,0.023l0.147,0.038l0.143,0.053l0.136,0.066l0.129,0.081l0.12,0.093l0.11,0.105l0.099,0.115l0.087,0.125l0.074,0.132l0.06,0.14l0.045,0.145l0.031,0.149l0.015,0.151l0,0.152l-0.015,0.151l-0.031,0.149l-0.045,0.145l-0.06,0.14l-0.074,0.132l-0.087,0.125l-0.099,0.115l-0.11,0.105l-0.12,0.093l-0.129,0.081l-0.136,0.066l-0.143,0.053l-0.147,0.038l-0.15,0.023l-0.152,0.008l-9.5,0l-8.068,6.051l-10.575,-1.058l-10.993,-0.999l-0.15,-0.022l-0.148,-0.036l-0.143,-0.051l-0.137,-0.066l-0.13,-0.079l-0.121,-0.091l-0.111,-0.104l-0.1,-0.114l-0.088,-0.124l-0.076,-0.132l-0.061,-0.139l-0.047,-0.145l-0.032,-0.148l-0.017,-0.151l-0.002,-0.152l0.014,-0.151l0.029,-0.149l0.044,-0.146l0.058,-0.14l0.073,-0.134l0.085,-0.125l0.098,-0.117l0.109,-0.106l0.119,-0.094l0.128,-0.082l0.136,-0.068l0.142,-0.054l0.146,-0.04l0.15,-0.025l0.152,-0.009l0.152,0.006l11.007,1.001l9.425,0.942l7.932,-5.949l10.5,0l0.152,0.008Z" style="fill:#9bae9a;"/><path d="M475.922,427.537l0.202,0.034l0.196,0.061l0.185,0.087l0.172,0.111l12.011,9.008l8.434,6.56l15.955,-3.989l10.528,7.37l7.188,4.492l9.825,-5.895l11.672,4.244l0.187,0.083l0.174,0.108l0.158,0.13l0.138,0.151l0.117,0.168l0.093,0.182l0.067,0.194l0.04,0.201l0.013,0.204l-0.016,0.204l-0.043,0.2l-0.07,0.193l-0.095,0.181l-0.119,0.166l-0.141,0.149l-0.16,0.128l-0.176,0.105l-0.188,0.08l-0.198,0.054l-0.203,0.026l-0.204,-0.001l-0.203,-0.03l-0.197,-0.056l-10.328,-3.756l-10.119,6.071l-0.111,-0.001l-8.757,-5.473l-9.472,-6.63l-16.045,4.011l-9.565,-7.44l-11.99,-8.992l-0.155,-0.134l-0.135,-0.153l-0.114,-0.171l-0.088,-0.184l-0.063,-0.195l-0.036,-0.202l-0.008,-0.204l0.019,-0.204l0.048,-0.199l0.074,-0.191l0.099,-0.179l0.123,-0.164l0.144,-0.145l0.163,-0.125l0.178,-0.101l0.19,-0.076l0.198,-0.05l0.204,-0.022l0.204,0.006Z" style="fill:#9bae9a;"/><path d="M453.043,455.554l0.207,0.053l0.198,0.081l2.142,1.071l19.915,15.933l5.027,1.675l17.113,-12.08l0.559,0.048l13.951,13.951l15.844,-5.941l7.65,5.464l0.165,0.137l0.143,0.158l0.12,0.178l0.093,0.193l0.065,0.203l0.035,0.212l0.005,0.214l-0.026,0.212l-0.055,0.207l-0.085,0.196l-0.111,0.183l-0.137,0.165l-0.159,0.143l-0.177,0.12l-0.193,0.093l-0.204,0.065l-0.211,0.035l-0.214,0.005l-0.212,-0.026l-0.207,-0.055l-0.196,-0.085l-0.183,-0.111l-6.35,-4.536l-16.054,6.02l-0.179,-0.039l-13.712,-13.712l-16.588,11.709l-6.973,-2.325l-20.085,-16.067l-1.858,-0.929l-0.184,-0.109l-0.167,-0.135l-0.146,-0.156l-0.122,-0.176l-0.096,-0.191l-0.067,-0.203l-0.038,-0.211l-0.008,-0.214l0.023,-0.213l0.053,-0.207l0.081,-0.198l0.109,-0.184l0.135,-0.167l0.156,-0.146l0.176,-0.122l0.191,-0.096l0.203,-0.067l0.211,-0.038l0.214,-0.008l0.213,0.023Z" style="fill:#9bae9a;"/><path d="M477.134,482.319l13.161,12.148l19.904,-2.095l0.536,2.625l-1.335,0.411l4.314,3.451l0.134,0.121l0.119,0.137l0.102,0.15l0.082,0.161l0.063,0.17l0.041,0.177l0.02,0.18l-0.002,0.181l-0.023,0.179l-0.046,0.176l-0.065,0.169l-0.086,0.159l-0.105,0.148l-0.121,0.134l-0.137,0.119l-0.15,0.102l-0.161,0.082l-0.17,0.063l-0.177,0.041l-0.18,0.02l-0.181,-0.002l-0.179,-0.023l-0.176,-0.046l-0.168,-0.065l-0.16,-0.086l-0.148,-0.105l-4.477,-3.581l-12.946,2.157l-0.628,-2.661l-4.53,0.477l-12.565,-11.598l-8.132,6.325l-13.156,6.072l-0.169,0.066l-0.176,0.045l-0.179,0.023l-0.181,0.002l-0.18,-0.02l-0.177,-0.042l-0.17,-0.062l-0.161,-0.083l-0.15,-0.101l-0.137,-0.119l-0.121,-0.135l-0.104,-0.148l-0.086,-0.159l-0.066,-0.169l-0.045,-0.176l-0.023,-0.179l-0.002,-0.181l0.02,-0.18l0.042,-0.177l0.062,-0.17l0.083,-0.161l0.102,-0.15l0.118,-0.137l0.135,-0.121l0.148,-0.104l0.159,-0.086l12.844,-5.928l9.573,-7.445l0.569,0.024Z" style="fill:#9bae9a;"/><path d="M433.967,478.542l0.178,0.034l0.173,0.055l0.164,0.075l0.155,0.095l0.142,0.112l0.127,0.129l6.845,7.823l4.849,2.91l7.029,5.02l6.141,4.094l8.221,9.249l2.528,4.214l14.799,-2.96l0.043,0.015l6.555,7.647l0.109,0.144l0.091,0.157l0.072,0.166l0.051,0.174l0.03,0.179l0.008,0.181l-0.014,0.18l-0.036,0.178l-0.056,0.172l-0.077,0.164l-0.097,0.153l-0.114,0.141l-0.13,0.126l-0.144,0.109l-0.157,0.091l-0.166,0.072l-0.174,0.051l-0.179,0.03l-0.181,0.008l-0.18,-0.014l-0.178,-0.036l-0.172,-0.056l-0.164,-0.077l-0.153,-0.097l-0.141,-0.114l-0.126,-0.13l-5.428,-6.333l-14.988,2.998l-0.286,-0.127l-3.373,-5.622l-7.779,-8.751l-5.859,-3.906l-6.971,-4.98l-5.151,-3.09l-7.155,-8.177l-0.111,-0.144l-0.092,-0.155l-0.074,-0.166l-0.053,-0.173l-0.031,-0.178l-0.01,-0.181l0.012,-0.181l0.034,-0.178l0.055,-0.173l0.075,-0.164l0.095,-0.155l0.112,-0.142l0.129,-0.127l0.144,-0.111l0.155,-0.092l0.166,-0.074l0.173,-0.053l0.178,-0.031l0.181,-0.01l0.181,0.012Z" style="fill:#9bae9a;"/><path d="M416.967,491.542l0.165,0.031l0.161,0.049l0.155,0.066l0.146,0.084l0.136,0.099l0.123,0.114l0.111,0.127l0.095,0.139l0.079,0.148l0.062,0.157l1.991,5.973l2.907,7.751l3.47,4.337l7.79,0.974l4.626,3.469l4.782,10.52l18.842,0.992l4.417,6.626l0.085,0.145l0.069,0.154l0.051,0.16l0.033,0.165l0.013,0.168l-0.004,0.168l-0.024,0.166l-0.042,0.163l-0.06,0.157l-0.078,0.149l-0.093,0.14l-0.109,0.129l-0.122,0.115l-0.135,0.101l-0.145,0.085l-0.154,0.069l-0.16,0.051l-0.165,0.032l-0.167,0.014l-0.169,-0.004l-0.166,-0.024l-0.163,-0.042l-0.157,-0.06l-0.149,-0.078l-0.14,-0.093l-0.129,-0.109l-0.115,-0.122l-0.101,-0.135l-3.583,-5.374l-19.1,-1.005l-0.081,-0.056l-5.195,-11.427l-3.374,-2.531l-8.21,-1.026l-4.53,-5.663l-3.093,-8.249l-2.009,-6.027l-0.044,-0.162l-0.026,-0.166l-0.007,-0.168l0.012,-0.168l0.031,-0.165l0.049,-0.161l0.066,-0.155l0.084,-0.146l0.099,-0.136l0.114,-0.123l0.127,-0.11l0.139,-0.096l0.148,-0.079l0.157,-0.062l0.162,-0.044l0.166,-0.026l0.168,-0.007l0.168,0.012Z" style="fill:#9bae9a;"/><path d="M397.917,506.537l0.151,0.021l0.147,0.037l0.143,0.052l0.137,0.066l0.13,0.079l0.12,0.092l0.111,0.104l0.1,0.115l0.088,0.124l0.075,0.132l5.028,10.056l1.764,4.412l12.052,4.017l3.125,9.376l2.371,2.371l10.2,1.02l5.39,8.624l0.074,0.133l0.06,0.139l0.046,0.145l0.03,0.149l0.016,0.151l0,0.152l-0.015,0.151l-0.03,0.149l-0.046,0.145l-0.059,0.14l-0.074,0.133l-0.087,0.125l-0.099,0.115l-0.11,0.105l-0.12,0.093l-0.128,0.081l-0.137,0.067l-0.142,0.053l-0.147,0.038l-0.15,0.023l-0.152,0.008l-0.152,-0.008l-0.15,-0.022l-0.147,-0.038l-0.143,-0.053l-0.136,-0.067l-0.129,-0.08l-0.121,-0.093l-0.11,-0.104l-0.099,-0.115l-0.087,-0.125l-4.61,-7.376l-9.8,-0.98l-3.629,-3.629l-2.875,-8.624l-11.948,-3.983l-2.236,-5.588l-4.972,-9.944l-0.061,-0.139l-0.046,-0.145l-0.032,-0.149l-0.016,-0.151l-0.002,-0.152l0.015,-0.151l0.029,-0.149l0.044,-0.145l0.059,-0.14l0.073,-0.134l0.086,-0.125l0.098,-0.116l0.109,-0.106l0.12,-0.094l0.128,-0.081l0.136,-0.068l0.142,-0.054l0.147,-0.039l0.15,-0.024l0.152,-0.009l0.151,0.007Z" style="fill:#9bae9a;"/><path d="M381.891,518.534l0.151,0.02l0.148,0.034l0.143,0.049l0.139,0.063l0.13,0.078l0.123,0.09l0.113,0.101l1.035,1.036l6.796,7.766l10.098,4.039l5.958,8.938l10.136,3.041l5.282,11.62l0.055,0.142l0.042,0.146l0.026,0.15l0.011,0.151l-0.005,0.152l-0.02,0.151l-0.035,0.148l-0.049,0.143l-0.064,0.138l-0.078,0.131l-0.09,0.122l-0.103,0.112l-0.113,0.101l-0.123,0.09l-0.131,0.076l-0.138,0.063l-0.144,0.049l-0.148,0.034l-0.151,0.018l-0.152,0.003l-0.152,-0.012l-0.149,-0.027l-0.146,-0.043l-0.141,-0.057l-0.134,-0.07l-0.127,-0.085l-0.117,-0.096l-0.107,-0.108l-0.096,-0.118l-0.083,-0.127l-0.07,-0.135l-4.718,-10.38l-9.864,-2.959l-6.042,-9.062l-9.902,-3.961l-7.204,-8.234l-0.965,-0.964l-0.102,-0.113l-0.089,-0.123l-0.078,-0.13l-0.063,-0.139l-0.049,-0.143l-0.034,-0.148l-0.02,-0.151l-0.004,-0.152l0.012,-0.151l0.027,-0.15l0.042,-0.146l0.056,-0.141l0.07,-0.135l0.084,-0.127l0.096,-0.118l0.107,-0.107l0.118,-0.096l0.127,-0.084l0.135,-0.07l0.141,-0.056l0.146,-0.042l0.15,-0.027l0.151,-0.011l0.152,0.003Z" style="fill:#9bae9a;"/><path d="M366.905,531.535l0.146,0.02l0.143,0.034l0.14,0.048l0.134,0.061l0.127,0.074l0.119,0.087l4.687,3.749l14.045,2.161l0.109,2.363l-3.8,0.95l3.048,8.381l15.764,-0.985l0.392,0.273l3.255,10.848l0.035,0.143l0.021,0.146l0.007,0.147l-0.008,0.147l-0.022,0.145l-0.036,0.143l-0.05,0.138l-0.063,0.133l-0.076,0.126l-0.088,0.118l-0.1,0.109l-0.109,0.098l-0.118,0.088l-0.127,0.075l-0.133,0.063l-0.139,0.049l-0.143,0.035l-0.146,0.021l-0.147,0.007l-0.147,-0.008l-0.145,-0.022l-0.143,-0.036l-0.138,-0.05l-0.133,-0.063l-0.126,-0.076l-0.118,-0.088l-0.109,-0.1l-0.098,-0.109l-0.088,-0.118l-0.075,-0.127l-0.063,-0.133l-0.049,-0.139l-2.658,-8.86l-15.684,0.981l-0.332,-0.217l-4.617,-12.699l-7.896,-1.214l-5.313,-4.251l-0.11,-0.097l-0.101,-0.108l-0.089,-0.117l-0.077,-0.125l-0.065,-0.133l-0.051,-0.138l-0.037,-0.142l-0.024,-0.145l-0.009,-0.147l0.006,-0.147l0.019,-0.146l0.034,-0.143l0.048,-0.14l0.061,-0.134l0.074,-0.127l0.087,-0.119l0.097,-0.11l0.108,-0.101l0.117,-0.089l0.125,-0.077l0.133,-0.065l0.138,-0.051l0.142,-0.037l0.145,-0.024l0.147,-0.009l0.147,0.005Z" style="fill:#9bae9a;"/><path d="M325.234,2.601l0.287,0.127l7.498,4.284l1.864,5.593l13.625,0.973l5.959,6.952l14,0l6,7l14.113,0l6.043,9.065l12.138,1.012l0.205,0.166l2.956,9.855l10.848,0.986l0.188,0.153l4.011,13.037l17.903,4.973l6.047,14.111l14.133,6.056l3.037,12.148l17.188,11.122l0,13.195l11.106,11.106l-3.126,18.762l-0.084,0.302l-0.145,0.278l-0.199,0.242l-0.245,0.196l-0.281,0.14l-0.303,0.078l-0.314,0.014l-0.309,-0.051l-0.292,-0.115l-0.261,-0.173l-0.22,-0.223l-0.169,-0.265l-0.11,-0.293l-0.047,-0.311l0.019,-0.313l2.874,-17.238l-10.894,-10.894l0,-12.805l-16.812,-10.878l-2.963,-11.852l-13.867,-5.944l-5.953,-13.889l-18.097,-5.027l-3.946,-12.823l-10.855,-0.987l-0.196,-0.16l-2.954,-9.846l-11.703,-0.975l-5.957,-8.935l-13.887,0l-6,-7l-14,0l-6.041,-7.048l-14.234,-1.017l-0.186,-0.145l-2.091,-6.272l-6.502,-3.716l-0.255,-0.183l-0.211,-0.232l-0.158,-0.271l-0.098,-0.298l-0.034,-0.311l0.031,-0.312l0.096,-0.299l0.156,-0.272l0.208,-0.234l0.253,-0.186l0.286,-0.129l0.307,-0.066l0.313,-0.001l0.307,0.063Z" style="fill:#9bae9a;"/><path d="M334.466,13.382l-2.994,12.975l4.842,3.229l8.33,1.041l5.899,8.849l14.989,-1l0.152,0.084l6.02,11.037l13.04,1.003l0.108,0.08l3.989,9.971l15.919,1.99l4.16,8.321l17.352,10.207l0.005,0.009l0,13.721l13.286,3.795l9.88,9.881l0.036,0.163l-4.009,11.025l6.491,8.346l0.157,0.249l0.105,0.274l0.05,0.29l-0.008,0.294l-0.064,0.287l-0.12,0.268l-0.17,0.241l-0.213,0.202l-0.249,0.157l-0.274,0.105l-0.29,0.05l-0.294,-0.008l-0.287,-0.064l-0.268,-0.12l-0.241,-0.17l-0.202,-0.213l-7.509,-9.654l3.957,-10.882l-8.05,-8.049l-14.468,-4.134l-0.246,-0.326l0,-14.018l-16.643,-9.79l-3.84,-7.679l-16.049,-2.006l-0.044,-0.035l-3.97,-9.924l-12.881,-0.991l-5.93,-10.873l-14.893,0.993l-0.025,-0.012l-6.092,-9.138l-7.67,-0.959l-7.014,-4.675l-0.105,-0.265l2.77,-12.004l-26.842,0l-7.745,2.904l-0.284,0.076l-0.294,0.019l-0.291,-0.039l-0.279,-0.094l-0.254,-0.148l-0.221,-0.194l-0.179,-0.233l-0.129,-0.264l-0.076,-0.284l-0.019,-0.294l0.039,-0.291l0.094,-0.279l0.148,-0.254l0.194,-0.221l0.233,-0.179l0.264,-0.129l8.255,-3.096l30.283,0l0.678,0.852Z" style="fill:#9bae9a;"/><path d="M451.379,126.44l30.937,-3.992l9.976,9.976l11.238,-1.874l0.213,-0.02l0.214,0.011l0.21,0.041l0.202,0.07l0.191,0.098l0.174,0.125l0.154,0.148l0.132,0.168l0.107,0.186l0.079,0.198l0.051,0.208l0.02,0.213l-0.011,0.214l-0.041,0.21l-0.07,0.202l-0.098,0.191l-0.125,0.174l-0.148,0.154l-0.168,0.132l-0.186,0.107l-0.198,0.079l-0.208,0.051l-12.762,2.126l-10.024,-10.024l-31.063,4.008l-6.976,-7.973l-23.175,3.863l-0.213,0.02l-0.214,-0.011l-0.21,-0.041l-0.202,-0.07l-0.191,-0.098l-0.174,-0.125l-0.154,-0.148l-0.132,-0.168l-0.107,-0.186l-0.079,-0.198l-0.051,-0.208l-0.02,-0.213l0.011,-0.214l0.041,-0.21l0.07,-0.202l0.098,-0.191l0.125,-0.174l0.148,-0.154l0.168,-0.132l0.186,-0.107l0.198,-0.079l0.208,-0.051l24.825,-4.137l7.024,8.027Z" style="fill:#9bae9a;"/><path d="M479.957,107.389l8.346,-2.782l0.146,-0.041l0.15,-0.025l0.151,-0.011l0.152,0.005l0.151,0.021l0.148,0.035l0.143,0.05l0.138,0.065l0.13,0.078l0.122,0.091l0.112,0.102l0.101,0.114l0.089,0.123l0.076,0.132l0.062,0.138l0.048,0.144l0.033,0.149l0.018,0.15l0.003,0.152l-0.013,0.152l-0.027,0.149l-0.043,0.146l-0.058,0.141l-0.071,0.134l-0.085,0.126l-0.097,0.117l-0.108,0.107l-0.118,0.095l-0.128,0.082l-0.135,0.07l-0.142,0.055l-9.654,3.218l-14.866,-8.919l-16.252,8.604l-0.138,0.064l-0.143,0.05l-0.148,0.035l-0.151,0.02l-0.152,0.005l-0.151,-0.011l-0.15,-0.026l-0.146,-0.041l-0.142,-0.056l-0.135,-0.069l-0.127,-0.083l-0.118,-0.095l-0.108,-0.107l-0.097,-0.118l-0.084,-0.126l-0.072,-0.134l-0.057,-0.141l-0.042,-0.146l-0.028,-0.149l-0.012,-0.152l0.003,-0.152l0.018,-0.15l0.034,-0.149l0.048,-0.144l0.063,-0.138l0.076,-0.131l0.089,-0.123l0.101,-0.114l0.113,-0.102l0.122,-0.091l0.13,-0.078l17.748,-9.396l15.134,9.081Z" style="fill:#9bae9a;"/><path d="M460.764,85.433l7.486,-2.807l0.18,-0.055l0.186,-0.032l0.188,-0.009l0.188,0.015l0.184,0.039l0.178,0.062l0.169,0.083l0.158,0.104l0.143,0.122l0.126,0.14l0.108,0.154l0.088,0.167l0.066,0.177l0.043,0.183l0.02,0.187l-0.003,0.188l-0.027,0.187l-0.05,0.181l-0.073,0.174l-0.093,0.164l-0.114,0.15l-0.131,0.135l-0.148,0.117l-0.16,0.098l-0.172,0.077l-8.514,3.193l-13.779,-4.921l-6.509,4.65l-14.977,5.99l-16.837,12.876l-0.156,0.104l-0.169,0.085l-0.177,0.062l-0.185,0.04l-0.187,0.017l-0.188,-0.008l-0.186,-0.03l-0.181,-0.054l-0.172,-0.076l-0.162,-0.097l-0.148,-0.117l-0.132,-0.134l-0.114,-0.149l-0.095,-0.163l-0.074,-0.174l-0.051,-0.181l-0.028,-0.186l-0.005,-0.188l0.019,-0.188l0.042,-0.183l0.065,-0.177l0.087,-0.167l0.107,-0.155l0.126,-0.141l0.142,-0.124l17.163,-13.124l15.023,-6.01l7.491,-5.35l14.221,5.079Z" style="fill:#9bae9a;"/><path d="M442.457,65.395l3.42,-2.565l0.151,-0.1l0.162,-0.081l0.171,-0.06l0.177,-0.04l0.18,-0.018l0.181,0.004l0.179,0.026l0.175,0.047l0.168,0.067l0.159,0.088l0.147,0.106l0.133,0.123l0.117,0.138l0.1,0.151l0.081,0.162l0.06,0.171l0.04,0.177l0.018,0.18l-0.004,0.181l-0.026,0.179l-0.047,0.175l-0.067,0.168l-0.088,0.159l-0.106,0.147l-0.123,0.133l-0.138,0.117l-4.58,3.435l-19.075,-5.019l-15.324,9.577l-17.891,16.898l-0.139,0.116l-0.152,0.098l-0.163,0.08l-0.171,0.059l-0.177,0.039l-0.18,0.016l-0.181,-0.005l-0.179,-0.027l-0.175,-0.048l-0.167,-0.069l-0.158,-0.089l-0.146,-0.107l-0.133,-0.124l-0.116,-0.139l-0.098,-0.152l-0.08,-0.163l-0.059,-0.171l-0.039,-0.177l-0.016,-0.18l0.005,-0.181l0.027,-0.179l0.048,-0.175l0.069,-0.167l0.089,-0.158l0.107,-0.146l0.124,-0.133l18.108,-17.102l16.677,-10.423l18.925,4.981Z" style="fill:#9bae9a;"/><path d="M424.994,44.546l0.171,0.035l0.166,0.055l0.158,0.074l0.148,0.091l0.137,0.108l0.124,0.124l0.108,0.137l0.091,0.148l0.074,0.158l0.055,0.166l0.035,0.171l0.015,0.173l-0.005,0.175l-0.025,0.172l-0.045,0.169l-0.065,0.162l-0.082,0.153l-0.1,0.143l-0.116,0.131l-4.485,4.484l-13.812,-0.987l-7.876,11.815l-12.213,2.035l-13.676,12.211l-0.137,0.108l-0.148,0.092l-0.158,0.074l-0.165,0.055l-0.171,0.036l-0.174,0.015l-0.174,-0.004l-0.173,-0.025l-0.168,-0.045l-0.163,-0.064l-0.153,-0.083l-0.143,-0.1l-0.131,-0.116l-0.116,-0.13l-0.1,-0.142l-0.083,-0.154l-0.065,-0.162l-0.045,-0.168l-0.026,-0.173l-0.005,-0.174l0.015,-0.174l0.034,-0.171l0.055,-0.166l0.074,-0.158l0.091,-0.148l0.108,-0.137l0.123,-0.124l14.324,-12.789l11.787,-1.965l8.113,-12.168l0.032,-0.016l14.167,1.012l3.515,-3.516l0.131,-0.116l0.143,-0.1l0.153,-0.082l0.162,-0.065l0.169,-0.045l0.172,-0.025l0.175,-0.005l0.173,0.015Z" style="fill:#9bae9a;"/><path d="M408.899,32.535l0.161,0.022l0.157,0.039l0.153,0.056l0.145,0.072l0.137,0.088l0.127,0.101l0.115,0.115l0.101,0.127l0.088,0.137l0.072,0.145l0.056,0.153l0.039,0.157l0.022,0.161l0.004,0.163l-0.013,0.161l-0.03,0.16l-0.048,0.155l-0.064,0.149l-0.08,0.142l-0.095,0.132l-0.108,0.121l-4.389,4.388l-11.963,0.997l-11.1,12.11l-11.781,-0.982l-7.526,13.17l-0.088,0.137l-0.102,0.126l-0.115,0.114l-0.128,0.101l-0.137,0.087l-0.146,0.072l-0.152,0.055l-0.158,0.038l-0.161,0.022l-0.162,0.003l-0.162,-0.014l-0.16,-0.031l-0.155,-0.048l-0.149,-0.065l-0.141,-0.081l-0.131,-0.095l-0.121,-0.109l-0.107,-0.122l-0.095,-0.132l-0.079,-0.142l-0.063,-0.149l-0.047,-0.156l-0.03,-0.159l-0.013,-0.162l0.006,-0.163l0.022,-0.16l0.04,-0.158l0.057,-0.152l0.073,-0.145l8.424,-14.743l0.15,-0.079l12.119,1.01l10.9,-11.89l12.037,-1.003l3.611,-3.612l0.121,-0.108l0.132,-0.095l0.142,-0.08l0.149,-0.064l0.155,-0.048l0.159,-0.03l0.162,-0.013l0.163,0.004Z" style="fill:#9bae9a;"/><path d="M390.874,22.533l0.123,0.013l0.122,0.024l0.12,0.033l0.116,0.043l0.112,0.052l0.108,0.062l0.102,0.07l0.096,0.078l0.089,0.087l0.082,0.093l0.074,0.099l0.065,0.106l0.057,0.11l0.047,0.115l0.037,0.118l0.028,0.121l0.017,0.122l0.008,0.124l-0.003,0.124l-0.013,0.123l-0.024,0.122l-0.033,0.12l-0.043,0.116l-0.052,0.112l-0.062,0.108l-0.07,0.102l-3.378,4.504l-15.076,2.01l-8.631,9.589l-0.087,0.089l-0.093,0.081l-0.101,0.073l-0.105,0.065l-0.111,0.056l-0.115,0.046l-0.118,0.037l-0.121,0.027l-0.123,0.016l-0.124,0.007l-0.124,-0.004l-0.123,-0.014l-0.122,-0.024l-0.119,-0.034l-0.116,-0.044l-0.112,-0.053l-0.107,-0.062l-0.102,-0.071l-0.095,-0.079l-0.089,-0.087l-0.081,-0.093l-0.073,-0.101l-0.065,-0.105l-0.056,-0.111l-0.046,-0.115l-0.037,-0.118l-0.027,-0.121l-0.016,-0.123l-0.007,-0.124l0.004,-0.124l0.014,-0.123l0.024,-0.122l0.034,-0.119l0.044,-0.116l0.053,-0.112l0.062,-0.107l0.071,-0.102l0.079,-0.095l9.369,-10.411l14.924,-1.99l2.622,-3.496l0.078,-0.096l0.087,-0.089l0.093,-0.082l0.099,-0.074l0.106,-0.065l0.11,-0.057l0.115,-0.047l0.118,-0.037l0.121,-0.028l0.122,-0.017l0.124,-0.008l0.124,0.003Z" style="fill:#9bae9a;"/><path d="M371.841,15.531l0.054,0.004l0.054,0.005l0.054,0.007l0.053,0.009l0.053,0.011l0.053,0.013l0.052,0.015l0.051,0.017l0.051,0.018l0.051,0.021l0.049,0.022l0.049,0.024l0.047,0.026l0.047,0.027l0.046,0.029l0.044,0.031l0.044,0.032l0.042,0.034l0.041,0.035l0.04,0.037l0.038,0.038l0.037,0.04l0.036,0.041l0.034,0.042l0.032,0.043l0.031,0.045l0.029,0.045l0.028,0.047l0.026,0.047l0.024,0.049l0.023,0.049l0.02,0.05l0.019,0.051l0.017,0.051l0.015,0.052l0.013,0.053l0.011,0.053l0.01,0.053l0.007,0.054l0.006,0.054l0.003,0.054l0.002,0.054l0,0.054l-0.003,0.054l-0.004,0.054l-0.006,0.054l-0.008,0.054l-0.011,0.053l-0.012,0.053l-0.013,0.052l-0.016,0.052l-0.018,0.051l-0.019,0.051l-0.022,0.049l-0.023,0.049l-0.024,0.048l-0.027,0.048l-0.028,0.046l-0.03,0.045l-0.032,0.044l-0.033,0.043l-4,5l-0.034,0.042l-0.036,0.04l-0.038,0.039l-0.039,0.038l-0.04,0.036l-0.042,0.035l-0.042,0.033l-0.044,0.032l-0.045,0.03l-0.046,0.028l-0.047,0.027l-0.048,0.025l-0.049,0.024l-0.05,0.021l-0.05,0.02l-0.052,0.018l-0.051,0.016l-0.053,0.014l-0.052,0.012l-0.054,0.01l-0.053,0.009l-0.054,0.006l-0.054,0.005l-0.054,0.002l-0.054,0.001l-0.054,-0.001l-0.054,-0.004l-0.054,-0.005l-0.054,-0.007l-0.053,-0.009l-0.053,-0.011l-0.053,-0.013l-0.052,-0.015l-0.051,-0.017l-0.051,-0.018l-0.051,-0.021l-0.049,-0.022l-0.049,-0.024l-0.047,-0.026l-0.047,-0.027l-0.046,-0.029l-0.044,-0.031l-0.044,-0.032l-0.042,-0.034l-0.041,-0.035l-0.04,-0.037l-0.038,-0.038l-0.037,-0.04l-0.036,-0.041l-0.034,-0.042l-0.032,-0.043l-0.031,-0.045l-0.029,-0.045l-0.028,-0.047l-0.026,-0.047l-0.024,-0.049l-0.023,-0.049l-0.02,-0.05l-0.019,-0.051l-0.017,-0.051l-0.015,-0.052l-0.013,-0.053l-0.011,-0.053l-0.01,-0.053l-0.007,-0.054l-0.006,-0.054l-0.003,-0.054l-0.002,-0.054l0,-0.054l0.003,-0.054l0.004,-0.054l0.006,-0.054l0.008,-0.054l0.011,-0.053l0.012,-0.053l0.013,-0.052l0.016,-0.052l0.018,-0.051l0.019,-0.051l0.022,-0.049l0.023,-0.049l0.024,-0.048l0.027,-0.048l0.028,-0.046l0.03,-0.045l0.032,-0.044l0.033,-0.043l4,-5l0.034,-0.042l0.036,-0.04l0.038,-0.039l0.039,-0.038l0.04,-0.036l0.042,-0.035l0.042,-0.033l0.044,-0.032l0.045,-0.03l0.046,-0.028l0.047,-0.027l0.048,-0.025l0.049,-0.024l0.05,-0.021l0.05,-0.02l0.052,-0.018l0.051,-0.016l0.053,-0.014l0.052,-0.012l0.054,-0.01l0.053,-0.009l0.054,-0.006l0.054,-0.005l0.054,-0.002l0.054,-0.001l0.054,0.001Z" style="fill:#9bae9a;"/><path d="M348.891,39.534l0.087,0.01l0.086,0.014l0.085,0.019l0.084,0.024l0.082,0.029l0.081,0.034l0.078,0.038l0.076,0.043l0.074,0.047l0.07,0.051l0.068,0.056l0.064,0.059l0.061,0.063l0.056,0.066l0.053,0.069l0.049,0.073l0.044,0.075l0.04,0.077l0.036,0.08l0.031,0.082l0.026,0.083l0.021,0.085l0.016,0.085l0.011,0.087l0.006,0.087l0.001,0.087l-0.004,0.087l-0.01,0.087l-0.014,0.086l-0.019,0.085l-0.024,0.084l-0.029,0.082l-5,13l-0.034,0.081l-0.038,0.078l-0.043,0.076l-0.047,0.074l-0.051,0.07l-0.056,0.068l-0.059,0.064l-0.063,0.061l-0.066,0.056l-0.069,0.053l-0.073,0.049l-0.075,0.044l-0.077,0.04l-0.08,0.036l-0.082,0.031l-0.083,0.026l-0.085,0.021l-0.085,0.016l-0.087,0.011l-0.087,0.006l-0.087,0.001l-0.087,-0.004l-0.087,-0.01l-0.086,-0.014l-0.085,-0.019l-0.084,-0.024l-0.082,-0.029l-0.081,-0.034l-0.078,-0.038l-0.076,-0.043l-0.074,-0.047l-0.07,-0.051l-0.068,-0.056l-0.064,-0.059l-0.061,-0.063l-0.056,-0.066l-0.053,-0.069l-0.049,-0.073l-0.044,-0.075l-0.04,-0.077l-0.036,-0.08l-0.031,-0.082l-0.026,-0.083l-0.021,-0.085l-0.016,-0.085l-0.011,-0.087l-0.006,-0.087l-0.001,-0.087l0.004,-0.087l0.01,-0.087l0.014,-0.086l0.019,-0.085l0.024,-0.084l0.029,-0.082l5,-13l0.034,-0.081l0.038,-0.078l0.043,-0.076l0.047,-0.074l0.051,-0.07l0.056,-0.068l0.059,-0.064l0.063,-0.061l0.066,-0.056l0.069,-0.053l0.073,-0.049l0.075,-0.044l0.077,-0.04l0.08,-0.036l0.082,-0.031l0.083,-0.026l0.085,-0.021l0.085,-0.016l0.087,-0.011l0.087,-0.006l0.087,-0.001l0.087,0.004Z" style="fill:#9bae9a;"/><path d="M354.864,20.533l0.124,0.012l0.122,0.022l0.119,0.033l0.117,0.042l0.113,0.052l0.108,0.061l0.102,0.069l0.097,0.078l0.09,0.086l0.082,0.092l0.074,0.099l0.066,0.105l0.058,0.11l0.047,0.115l0.039,0.117l0.028,0.121l0.018,0.123l0.009,0.123l-0.003,0.124l-0.012,0.124l-0.022,0.122l-0.033,0.119l-0.042,0.117l-0.052,0.113l-0.061,0.108l-0.069,0.102l-0.078,0.097l-0.086,0.09l-0.092,0.082l-11.276,9.226l-8.683,1.929l-5.674,10.402l-0.064,0.107l-0.072,0.1l-0.081,0.095l-0.088,0.087l-0.095,0.08l-0.101,0.071l-0.106,0.064l-0.112,0.054l-0.116,0.044l-0.119,0.035l-0.121,0.025l-0.123,0.015l-0.124,0.005l-0.124,-0.006l-0.123,-0.015l-0.121,-0.026l-0.119,-0.036l-0.115,-0.045l-0.111,-0.055l-0.107,-0.064l-0.1,-0.072l-0.095,-0.081l-0.087,-0.088l-0.08,-0.095l-0.071,-0.101l-0.064,-0.106l-0.054,-0.112l-0.044,-0.116l-0.035,-0.119l-0.025,-0.121l-0.015,-0.123l-0.005,-0.124l0.006,-0.124l0.015,-0.123l0.026,-0.121l0.036,-0.119l0.045,-0.115l0.055,-0.111l6.326,-11.598l9.317,-2.071l10.724,-8.774l0.099,-0.074l0.105,-0.066l0.11,-0.058l0.115,-0.047l0.118,-0.039l0.12,-0.028l0.123,-0.018l0.124,-0.009l0.123,0.003Z" style="fill:#9bae9a;"/><path d="M348.816,8.531l0.06,0.002l0.059,0.005l0.059,0.008l0.059,0.01l0.058,0.012l0.058,0.014l0.058,0.017l0.056,0.019l0.056,0.021l0.055,0.024l0.054,0.025l0.052,0.028l0.052,0.03l0.05,0.032l0.05,0.033l0.047,0.036l0.047,0.038l0.044,0.039l0.044,0.041l0.041,0.043l0.04,0.045l0.038,0.046l0.036,0.047l0.034,0.049l0.032,0.05l0.03,0.052l0.029,0.052l0.026,0.054l0.023,0.055l0.022,0.055l0.02,0.056l0.017,0.058l0.015,0.057l0.012,0.059l0.01,0.058l0.008,0.06l0.006,0.059l0.003,0.059l0.001,0.06l-0.002,0.06l-0.003,0.059l-0.007,0.06l-0.008,0.059l-1,6l-0.011,0.058l-0.014,0.058l-0.015,0.058l-0.018,0.057l-0.02,0.056l-0.023,0.055l-0.024,0.055l-0.027,0.053l-0.029,0.052l-0.03,0.051l-0.033,0.05l-0.035,0.049l-0.037,0.047l-0.038,0.045l-0.04,0.044l-0.042,0.043l-0.044,0.04l-0.045,0.039l-0.047,0.037l-0.048,0.035l-0.05,0.033l-0.051,0.032l-0.052,0.029l-0.053,0.027l-0.054,0.025l-0.055,0.023l-0.056,0.02l-0.057,0.018l-0.057,0.016l-0.058,0.014l-0.059,0.012l-0.059,0.009l-0.059,0.006l-0.06,0.005l-0.059,0.002l-0.06,-0.001l-0.06,-0.002l-0.059,-0.005l-0.059,-0.008l-0.059,-0.01l-0.058,-0.012l-0.058,-0.014l-0.057,-0.017l-0.057,-0.019l-0.056,-0.021l-0.055,-0.024l-0.053,-0.025l-0.053,-0.028l-0.052,-0.03l-0.05,-0.032l-0.05,-0.033l-0.047,-0.036l-0.047,-0.038l-0.044,-0.039l-0.044,-0.041l-0.041,-0.043l-0.04,-0.045l-0.038,-0.046l-0.036,-0.047l-0.034,-0.049l-0.032,-0.05l-0.03,-0.052l-0.029,-0.052l-0.026,-0.054l-0.023,-0.055l-0.022,-0.055l-0.02,-0.056l-0.017,-0.058l-0.015,-0.057l-0.012,-0.059l-0.01,-0.058l-0.008,-0.06l-0.006,-0.059l-0.003,-0.059l-0.001,-0.06l0.002,-0.06l0.003,-0.059l0.007,-0.06l0.008,-0.059l1,-6l0.011,-0.058l0.014,-0.058l0.015,-0.058l0.018,-0.057l0.02,-0.056l0.023,-0.055l0.024,-0.055l0.027,-0.053l0.029,-0.052l0.03,-0.051l0.033,-0.05l0.035,-0.049l0.037,-0.047l0.038,-0.045l0.04,-0.044l0.042,-0.043l0.044,-0.04l0.045,-0.039l0.047,-0.037l0.048,-0.035l0.05,-0.033l0.051,-0.032l0.052,-0.029l0.053,-0.027l0.054,-0.025l0.055,-0.023l0.056,-0.02l0.057,-0.018l0.057,-0.016l0.058,-0.014l0.059,-0.012l0.059,-0.009l0.059,-0.006l0.06,-0.005l0.059,-0.002l0.06,0.001Z" style="fill:#9bae9a;"/><path d="M329.83,25.531l0.1,0.007l0.099,0.013l0.099,0.021l0.096,0.026l0.095,0.033l0.092,0.04l0.089,0.045l0.087,0.051l0.082,0.057l0.079,0.062l0.074,0.068l0.069,0.072l0.065,0.077l0.059,0.081l0.054,0.084l0.048,0.088l0.042,0.091l0.036,0.094l0.029,0.096l0.024,0.097l0.016,0.099l0.01,0.1l0.003,0.1l-0.004,0.1l-0.01,0.1l-0.017,0.099l-0.023,0.097l-0.03,0.096l-0.036,0.093l-0.043,0.091l-0.048,0.088l-0.054,0.084l-0.06,0.081l-0.064,0.076l-0.07,0.072l-0.075,0.067l-0.079,0.062l-0.082,0.057l-0.087,0.051l-0.089,0.045l-0.093,0.039l-0.094,0.033l-0.097,0.026l-0.098,0.02l-5.864,0.977l-10.87,3.953l-0.096,0.031l-0.097,0.024l-0.098,0.019l-0.1,0.011l-0.1,0.005l-0.1,-0.002l-0.1,-0.009l-0.099,-0.015l-0.098,-0.022l-0.096,-0.028l-0.094,-0.035l-0.092,-0.041l-0.089,-0.046l-0.085,-0.053l-0.081,-0.058l-0.078,-0.064l-0.073,-0.069l-0.068,-0.073l-0.064,-0.078l-0.057,-0.082l-0.053,-0.085l-0.046,-0.089l-0.041,-0.092l-0.034,-0.094l-0.028,-0.096l-0.021,-0.098l-0.015,-0.099l-0.008,-0.1l-0.002,-0.1l0.006,-0.1l0.011,-0.1l0.019,-0.098l0.025,-0.098l0.032,-0.095l0.037,-0.093l0.044,-0.09l0.05,-0.087l0.056,-0.083l0.061,-0.08l0.066,-0.075l0.071,-0.071l0.075,-0.066l0.08,-0.06l0.084,-0.055l0.087,-0.05l0.09,-0.043l0.093,-0.038l11.13,-4.047l6.136,-1.023l0.1,-0.013l0.1,-0.006l0.1,0Z" style="fill:#9bae9a;"/><path d="M73.349,212.532l0.127,0.011l0.126,0.023l0.123,0.032l0.119,0.043l0.116,0.054l0.111,0.062l0.105,0.072l0.099,0.081l0.091,0.088l0.084,0.097l0.075,0.102l0.066,0.109l0.056,0.114l0.047,0.119l0.037,0.122l0.026,0.124l0.015,0.127l0.005,0.127l-0.006,0.127l-0.017,0.126l-0.028,0.125l-1.971,7.391l-0.938,8.447l5.302,10.604l0.052,0.116l0.042,0.121l0.031,0.123l0.021,0.125l0.011,0.127l-0.001,0.128l-0.011,0.127l-0.022,0.125l-0.032,0.123l-0.043,0.12l-0.053,0.116l-0.062,0.111l-0.072,0.105l-0.08,0.099l-0.089,0.091l-0.096,0.084l-0.102,0.076l-0.109,0.066l-0.114,0.057l-0.118,0.047l-0.122,0.037l-0.124,0.026l-0.127,0.016l-0.127,0.005l-0.127,-0.006l-0.126,-0.016l-0.125,-0.028l-0.121,-0.037l-0.118,-0.048l-0.114,-0.058l-0.108,-0.067l-0.102,-0.076l-0.096,-0.085l-0.087,-0.092l-0.08,-0.099l-0.071,-0.106l-0.062,-0.111l-5.698,-11.396l1.062,-9.553l2.029,-7.608l0.038,-0.122l0.048,-0.118l0.058,-0.113l0.067,-0.108l0.077,-0.102l0.084,-0.095l0.093,-0.088l0.099,-0.079l0.106,-0.071l0.112,-0.061l0.116,-0.052l0.12,-0.042l0.124,-0.031l0.125,-0.021l0.127,-0.01l0.127,0.001Z" style="fill:#9bae9a;"/><path d="M149.003,336.742l0.254,0.062l0.24,0.105l0.217,0.145l0.19,0.18l0.154,0.211l0.116,0.234l0.074,0.251l0.029,0.26l-0.017,0.261l-0.062,0.254l-0.105,0.24l-0.145,0.217l-0.181,0.189l-0.21,0.155l-0.235,0.116l-0.251,0.074l-29.008,5.806l-27.535,5.196l-27.886,1.053l-25.749,-1.301l-7.095,1.467l-8.373,5.836l-0.227,0.13l-0.246,0.089l-0.258,0.045l-0.261,0l-0.258,-0.046l-0.245,-0.09l-0.226,-0.132l-0.2,-0.168l-0.168,-0.201l-0.13,-0.226l-0.089,-0.246l-0.045,-0.258l0.001,-0.261l0.046,-0.258l0.09,-0.245l0.131,-0.226l0.169,-0.2l0.2,-0.168l8.879,-6.188l8.073,-1.67l26,1.314l27.531,-1.039l27.299,-5.151l28.992,-5.804l0.259,-0.029l0.261,0.017Z" style="fill:#9bae9a;"/><path d="M6.7,317.943l30.181,7.025l36.161,1.3l15.61,-0.259l22.826,-3.462l0.247,-0.017l0.247,0.024l0.239,0.065l0.226,0.103l0.205,0.138l0.18,0.171l0.149,0.197l0.115,0.22l0.077,0.235l0.037,0.245l-0.004,0.248l-0.044,0.244l-0.084,0.233l-0.121,0.216l-0.155,0.193l-0.185,0.165l-0.209,0.133l-0.229,0.096l-0.241,0.057l-23.026,3.493l-15.89,0.263l-36.529,-1.313l-30.463,-7.091l-0.236,-0.076l-0.22,-0.113l-0.198,-0.149l-0.171,-0.179l-0.14,-0.204l-0.104,-0.225l-0.065,-0.239l-0.025,-0.247l0.015,-0.247l0.056,-0.241l0.095,-0.229l0.132,-0.21l0.164,-0.186l0.193,-0.155l0.215,-0.123l0.233,-0.084l0.243,-0.046l0.248,-0.005l0.245,0.036Z" style="fill:#9bae9a;"/><path d="M36.887,289.949l0.209,0.044l0.201,0.073l0.188,0.102l19.68,12.477l21.739,6.088l12.027,-1.28l27.761,-1.571l0.214,0.004l0.212,0.033l0.204,0.063l0.193,0.092l0.179,0.119l0.159,0.142l0.138,0.164l0.113,0.182l0.086,0.196l0.057,0.206l0.028,0.212l-0.004,0.214l-0.033,0.212l-0.064,0.204l-0.091,0.193l-0.119,0.179l-0.142,0.159l-0.164,0.138l-0.182,0.113l-0.196,0.086l-0.206,0.057l-0.212,0.028l-27.687,1.566l-12.525,1.333l-22.718,-6.362l-20.053,-12.713l-0.172,-0.128l-0.152,-0.15l-0.13,-0.171l-0.103,-0.187l-0.076,-0.2l-0.047,-0.209l-0.017,-0.213l0.014,-0.214l0.044,-0.209l0.074,-0.201l0.101,-0.188l0.128,-0.173l0.15,-0.152l0.171,-0.129l0.187,-0.104l0.2,-0.076l0.209,-0.047l0.213,-0.016l0.214,0.014Z" style="fill:#9bae9a;"/><path d="M58.929,272.538l0.137,0.02l0.134,0.033l0.131,0.045l0.126,0.057l0.121,0.069l0.113,0.079l0.106,0.089l14.081,13.065l19.124,9.05l0.122,0.065l0.116,0.076l0.108,0.087l0.1,0.096l0.091,0.105l0.08,0.112l0.07,0.12l0.058,0.126l0.047,0.13l0.035,0.134l0.021,0.137l0.01,0.138l-0.004,0.139l-0.016,0.137l-0.029,0.136l-0.042,0.132l-0.053,0.128l-0.065,0.122l-0.076,0.116l-0.087,0.108l-0.096,0.1l-0.104,0.091l-0.113,0.081l-0.12,0.069l-0.125,0.059l-0.131,0.047l-0.134,0.034l-0.137,0.022l-0.138,0.009l-0.139,-0.004l-0.137,-0.016l-0.136,-0.029l-0.132,-0.041l-0.128,-0.054l-19.542,-9.248l-14.419,-13.379l-0.097,-0.099l-0.088,-0.108l-0.077,-0.115l-0.067,-0.121l-0.054,-0.127l-0.043,-0.132l-0.031,-0.135l-0.018,-0.138l-0.005,-0.138l0.008,-0.139l0.02,-0.137l0.033,-0.134l0.045,-0.131l0.057,-0.126l0.069,-0.121l0.079,-0.113l0.089,-0.106l0.099,-0.097l0.108,-0.088l0.115,-0.077l0.121,-0.067l0.127,-0.054l0.132,-0.043l0.135,-0.031l0.138,-0.018l0.138,-0.005l0.139,0.008Z" style="fill:#9bae9a;"/><path d="M83.532,272.531l0.107,0.008l0.106,0.016l0.104,0.023l0.103,0.031l0.1,0.038l0.097,0.045l0.094,0.051l0.09,0.058l0.086,0.065l0.08,0.07l0.076,0.077l0.069,0.081l0.064,0.086l0.058,0.09l5.045,8.587l13.827,5.573l0.098,0.043l0.094,0.05l0.091,0.058l0.086,0.063l0.082,0.069l0.076,0.075l0.071,0.08l0.065,0.086l0.059,0.089l0.052,0.094l0.045,0.097l0.039,0.099l0.031,0.103l0.024,0.104l0.016,0.106l0.009,0.107l0.001,0.107l-0.007,0.107l-0.014,0.106l-0.022,0.105l-0.029,0.103l-0.037,0.101l-0.043,0.097l-0.051,0.095l-0.057,0.09l-0.063,0.087l-0.069,0.081l-0.075,0.077l-0.081,0.071l-0.085,0.065l-0.089,0.058l-0.094,0.053l-0.097,0.045l-0.1,0.038l-0.102,0.032l-0.104,0.023l-0.106,0.017l-0.107,0.008l-0.107,0.001l-0.107,-0.006l-0.106,-0.015l-0.105,-0.021l-0.103,-0.03l-0.101,-0.036l-14.773,-5.955l-5.564,-9.467l-0.051,-0.094l-0.044,-0.098l-0.037,-0.1l-0.03,-0.103l-0.022,-0.105l-0.015,-0.106l-0.007,-0.107l0.001,-0.107l0.008,-0.107l0.015,-0.106l0.024,-0.104l0.03,-0.103l0.038,-0.1l0.045,-0.097l0.052,-0.094l0.058,-0.09l0.064,-0.085l0.071,-0.081l0.076,-0.075l0.081,-0.07l0.086,-0.064l0.09,-0.057l0.095,-0.051l0.097,-0.044l0.101,-0.037l0.103,-0.03l0.104,-0.022l0.106,-0.015l0.107,-0.007l0.107,0Z" style="fill:#9bae9a;"/><path d="M85.93,278.052l0.19,0.047l0.183,0.07l0.173,0.094l0.158,0.116l0.142,0.136l0.123,0.152l0.102,0.168l0.08,0.179l0.055,0.189l0.03,0.194l0.005,0.196l-0.021,0.195l-0.047,0.191l-0.071,0.183l-0.094,0.172l-0.115,0.158l-0.136,0.142l-10.741,9.877l-0.315,0.041l-6.341,-3.366l-5.062,7.837l-7.603,6.607l-2.387,13.378l-17.521,9.42l1.482,13.343l-2.4,11.733l-0.052,0.189l-0.076,0.181l-0.099,0.17l-0.12,0.155l-0.139,0.138l-0.157,0.118l-0.17,0.097l-0.182,0.074l-0.19,0.05l-0.194,0.025l-0.196,-0.001l-0.195,-0.027l-0.189,-0.052l-0.181,-0.076l-0.169,-0.099l-0.155,-0.12l-0.138,-0.14l-0.119,-0.156l-0.097,-0.17l-0.074,-0.182l-0.05,-0.19l-0.025,-0.195l0.001,-0.196l0.027,-0.194l2.305,-11.27l-1.637,-14.737l0.117,-0.223l17.895,-9.621l2.318,-12.992l8.081,-7.023l6.075,-9.405l0.657,-0.171l6.663,3.537l9.323,-8.572l0.152,-0.123l0.168,-0.102l0.179,-0.08l0.189,-0.055l0.194,-0.03l0.196,-0.005l0.195,0.021Z" style="fill:#9bae9a;"/><path d="M103.224,287.328l0.211,0.036l0.204,0.066l0.192,0.094l0.177,0.121l0.158,0.144l0.136,0.166l0.111,0.183l0.083,0.197l0.055,0.207l0.025,0.212l-0.006,0.214l-0.036,0.211l-0.066,0.204l-0.094,0.192l-0.121,0.177l-0.144,0.158l-0.166,0.135l-10.307,7.291l-3.66,11.482l-8.87,3.014l4.106,6.171l-0.041,0.481l-8.895,9.413l-11.012,1.129l5.146,9.034l-3.602,10.978l6.288,11.004l-2.91,7.974l-0.087,0.195l-0.115,0.181l-0.139,0.162l-0.161,0.142l-0.179,0.117l-0.194,0.09l-0.205,0.062l-0.211,0.032l-0.214,0.001l-0.212,-0.029l-0.206,-0.059l-0.196,-0.087l-0.18,-0.115l-0.163,-0.139l-0.141,-0.16l-0.117,-0.18l-0.091,-0.194l-0.061,-0.205l-0.032,-0.211l-0.002,-0.214l0.029,-0.212l0.059,-0.206l2.432,-6.665l-6.258,-10.953l3.602,-10.98l-6.161,-10.817l0.61,-1.185l13.268,-1.36l6.701,-7.093l-4.6,-6.915l0.364,-1.071l10.252,-3.483l3.505,-10.998l11.128,-7.871l0.183,-0.111l0.197,-0.083l0.207,-0.055l0.213,-0.025l0.213,0.006Z" style="fill:#9bae9a;"/><path d="M88.887,326.665l0.142,0.017l0.139,0.031l0.136,0.044l0.131,0.056l0.125,0.069l0.118,0.08l0.11,0.091l0.101,0.101l0.091,0.11l7.941,10.651l-3.03,11.065l5.625,9.353l-0.05,0.432l-6.114,6.309l-0.104,0.098l-0.113,0.087l-0.121,0.076l-0.127,0.064l-0.133,0.052l-0.137,0.04l-0.141,0.025l-0.142,0.013l-0.143,-0.001l-0.142,-0.015l-0.14,-0.028l-0.136,-0.042l-0.132,-0.054l-0.127,-0.066l-0.119,-0.078l-0.112,-0.089l-0.102,-0.1l-0.093,-0.108l-0.082,-0.117l-0.07,-0.124l-0.058,-0.131l-0.046,-0.135l-0.032,-0.139l-0.02,-0.142l-0.005,-0.142l0.008,-0.143l0.021,-0.141l0.035,-0.138l0.048,-0.135l0.06,-0.129l0.073,-0.123l0.083,-0.116l0.095,-0.107l4.699,-4.849l-5.239,-8.711l2.983,-10.891l-7.067,-9.477l-0.079,-0.119l-0.068,-0.125l-0.056,-0.131l-0.044,-0.136l-0.03,-0.14l-0.016,-0.142l-0.004,-0.143l0.011,-0.142l0.024,-0.141l0.037,-0.137l0.05,-0.134l0.063,-0.128l0.074,-0.122l0.086,-0.114l0.096,-0.106l0.106,-0.095l0.115,-0.086l0.122,-0.074l0.128,-0.062l0.134,-0.05l0.138,-0.036l0.141,-0.024l0.142,-0.01l0.143,0.004Z" style="fill:#9bae9a;"/><path d="M111.871,307.196l0.166,0.029l0.162,0.046l0.155,0.064l0.147,0.082l0.137,0.097l0.126,0.112l0.112,0.126l0.097,0.137l0.082,0.147l0.064,0.156l0.047,0.161l0.028,0.166l0.009,0.168l0,14.35l7.074,8.365l0,9.249l9.895,4.425l0.105,0.162l0,9.222l-2.924,4.686l-0.097,0.138l-0.112,0.126l-0.125,0.112l-0.137,0.098l-0.147,0.082l-0.155,0.065l-0.161,0.047l-0.166,0.028l-0.168,0.01l-0.168,-0.009l-0.166,-0.027l-0.162,-0.046l-0.155,-0.064l-0.148,-0.081l-0.137,-0.097l-0.126,-0.112l-0.113,-0.125l-0.097,-0.137l-0.082,-0.147l-0.065,-0.155l-0.047,-0.161l-0.029,-0.166l-0.01,-0.168l0.009,-0.168l0.028,-0.166l0.046,-0.162l0.064,-0.155l0.08,-0.148l2.47,-3.958l0,-6.532l-9.895,-4.426l-0.105,-0.162l0,-9.979l-7.074,-8.365l0,-15.449l0.01,-0.168l0.028,-0.166l0.046,-0.161l0.065,-0.156l0.081,-0.147l0.098,-0.137l0.112,-0.126l0.125,-0.112l0.137,-0.097l0.147,-0.082l0.156,-0.064l0.161,-0.046l0.166,-0.029l0.168,-0.009l0.168,0.009Z" style="fill:#9bae9a;"/><path d="M149.017,146.447l0.254,0.064l0.238,0.108l0.217,0.147l0.187,0.182l0.153,0.212l0.113,0.236l0.072,0.251l0.026,0.26l-0.019,0.261l-0.065,0.254l-0.107,0.238l-0.147,0.216l-0.182,0.188l-0.212,0.153l-0.236,0.113l-0.252,0.071l-0.26,0.027l-0.26,-0.02l-23.885,-3.878l-21.479,0l-24.203,3.101l-19.908,2.602l-16.339,4.204l-13.234,7.142l-0.24,0.104l-0.254,0.06l-0.261,0.015l-0.26,-0.03l-0.25,-0.075l-0.234,-0.117l-0.21,-0.156l-0.179,-0.19l-0.144,-0.219l-0.104,-0.24l-0.06,-0.254l-0.015,-0.261l0.03,-0.26l0.075,-0.25l0.117,-0.234l0.156,-0.21l0.19,-0.179l0.219,-0.144l13.555,-7.316l16.872,-4.341l20.092,-2.626l24.397,-3.126l21.913,0l24.123,3.917Z" style="fill:#9bae9a;"/><path d="M118.973,162.543l0.192,0.038l0.186,0.063l0.176,0.087l0.163,0.109l0.148,0.129l0.129,0.148l0.109,0.163l0.087,0.176l0.063,0.186l0.038,0.192l0.013,0.196l-0.013,0.196l-0.038,0.192l-0.063,0.186l-0.087,0.176l-0.109,0.163l-0.129,0.148l-0.148,0.129l-0.163,0.109l-0.176,0.087l-0.186,0.063l-0.192,0.038l-0.196,0.013l-19.85,0l-13.346,2.692l-13.172,2.325l-11.154,4.891l-12.035,3.722l-0.191,0.046l-0.195,0.02l-0.196,-0.005l-0.194,-0.031l-0.188,-0.056l-0.179,-0.08l-0.167,-0.103l-0.152,-0.124l-0.135,-0.142l-0.115,-0.159l-0.094,-0.173l-0.07,-0.183l-0.046,-0.191l-0.02,-0.195l0.005,-0.196l0.031,-0.194l0.056,-0.188l0.08,-0.179l0.103,-0.167l0.124,-0.152l0.142,-0.135l0.159,-0.115l0.173,-0.094l0.183,-0.07l11.872,-3.672l11.327,-4.967l13.49,-2.381l13.604,-2.744l20.15,0l0.196,0.013Z" style="fill:#9bae9a;"/><path d="M95.879,182.535l0.12,0.014l0.118,0.025l0.116,0.033l0.113,0.043l0.109,0.052l0.105,0.06l0.099,0.069l0.094,0.076l0.087,0.084l0.08,0.09l0.073,0.097l0.064,0.102l0.056,0.107l0.048,0.111l0.038,0.115l0.029,0.117l0.019,0.119l0.01,0.121l0,0.12l-0.01,0.121l-0.019,0.119l-0.029,0.117l-0.038,0.115l-0.048,0.111l-0.056,0.107l-0.064,0.102l-0.073,0.097l-0.08,0.09l-0.087,0.084l-0.094,0.076l-0.099,0.069l-0.105,0.06l-0.109,0.052l-0.113,0.043l-0.116,0.033l-0.118,0.025l-0.12,0.014l-0.121,0.005l-11.745,0l-12.626,4.08l-0.117,0.033l-0.118,0.023l-0.12,0.013l-0.121,0.004l-0.121,-0.006l-0.12,-0.016l-0.118,-0.025l-0.115,-0.035l-0.113,-0.044l-0.109,-0.053l-0.104,-0.061l-0.098,-0.07l-0.093,-0.077l-0.086,-0.085l-0.08,-0.091l-0.071,-0.097l-0.064,-0.103l-0.055,-0.107l-0.046,-0.112l-0.037,-0.115l-0.028,-0.117l-0.018,-0.12l-0.009,-0.12l0.001,-0.121l0.011,-0.12l0.021,-0.119l0.03,-0.117l0.039,-0.115l0.048,-0.11l0.058,-0.107l0.065,-0.101l0.074,-0.096l0.081,-0.09l0.088,-0.082l0.094,-0.076l0.1,-0.068l0.105,-0.059l0.11,-0.051l0.113,-0.041l13.077,-4.226l12.217,0l0.121,0.005Z" style="fill:#9bae9a;"/><path d="M39.014,130.501l0.171,0.038l0.164,0.057l0.158,0.076l0.147,0.093l6.575,4.737l7.905,6.614l2.289,5.528l6.96,3.739l9.042,7.052l0,11.761l7.852,6.849l0,6.985l-0.01,0.174l-0.03,0.172l-0.05,0.167l-0.07,0.16l-0.087,0.151l-0.104,0.14l-0.12,0.127l-0.133,0.112l-0.146,0.096l-0.156,0.078l-0.164,0.06l-0.17,0.04l-0.173,0.02l-0.174,0l-0.173,-0.02l-0.17,-0.04l-0.164,-0.06l-0.156,-0.078l-0.146,-0.096l-0.133,-0.112l-0.12,-0.127l-0.104,-0.14l-0.087,-0.151l-0.07,-0.16l-0.05,-0.167l-0.03,-0.172l-0.01,-0.174l0,-5.621l-7.852,-6.848l0,-11.661l-7.686,-5.994l-7.679,-4.126l-2.416,-5.836l-7.256,-6.071l-6.488,-4.673l-0.135,-0.11l-0.122,-0.125l-0.106,-0.139l-0.09,-0.149l-0.071,-0.159l-0.053,-0.167l-0.033,-0.171l-0.013,-0.174l0.008,-0.174l0.027,-0.172l0.048,-0.168l0.066,-0.162l0.085,-0.152l0.102,-0.142l0.118,-0.128l0.132,-0.114l0.144,-0.099l0.154,-0.08l0.163,-0.063l0.169,-0.042l0.173,-0.023l0.175,-0.003l0.173,0.017Z" style="fill:#9bae9a;"/><path d="M99.244,145.646l0.142,0.015l0.14,0.029l0.136,0.041l0.132,0.055l0.126,0.067l0.119,0.078l0.112,0.09l0.102,0.099l0.092,0.109l0.082,0.117l0.07,0.125l0.058,0.13l0.045,0.136l0.032,0.139l0.019,0.141l0.005,0.143l-0.008,0.142l-1.314,12.354l-1.015,5.07l1.34,12.589l-4.213,6.459l-0.084,0.116l-0.094,0.107l-0.104,0.098l-0.112,0.088l-0.121,0.076l-0.127,0.065l-0.133,0.052l-0.137,0.039l-0.141,0.026l-0.142,0.013l-0.143,-0.001l-0.142,-0.015l-0.14,-0.028l-0.136,-0.041l-0.133,-0.054l-0.126,-0.066l-0.12,-0.078l-0.111,-0.089l-0.103,-0.099l-0.093,-0.109l-0.082,-0.117l-0.07,-0.124l-0.059,-0.13l-0.045,-0.135l-0.033,-0.139l-0.019,-0.141l-0.006,-0.143l0.007,-0.143l0.022,-0.141l0.034,-0.138l0.048,-0.135l0.06,-0.129l0.072,-0.123l3.63,-5.565l-1.275,-11.983l1.077,-5.386l1.3,-12.217l0.021,-0.141l0.036,-0.139l0.048,-0.134l0.06,-0.129l0.073,-0.123l0.084,-0.115l0.095,-0.107l0.104,-0.098l0.113,-0.087l0.121,-0.075l0.128,-0.065l0.133,-0.051l0.137,-0.039l0.141,-0.025l0.142,-0.012l0.143,0.001Z" style="fill:#9bae9a;"/><path d="M116.037,135.718l0.117,0.017l0.115,0.025l0.112,0.035l0.11,0.043l0.106,0.052l0.101,0.059l0.096,0.068l0.091,0.075l0.085,0.082l0.078,0.088l0.071,0.094l0.063,0.1l0.055,0.104l3.377,7.013l3.793,6.711l0,0.031l-6.971,11.711l-0.064,0.099l-0.072,0.093l-0.079,0.088l-0.085,0.081l-0.092,0.074l-0.097,0.067l-0.102,0.059l-0.106,0.05l-0.11,0.043l-0.113,0.033l-0.115,0.024l-0.117,0.016l-0.118,0.006l-0.117,-0.003l-0.118,-0.013l-0.115,-0.021l-0.114,-0.031l-0.111,-0.039l-0.108,-0.048l-0.103,-0.056l-0.099,-0.064l-0.093,-0.072l-0.088,-0.079l-0.081,-0.085l-0.074,-0.092l-0.067,-0.097l-0.059,-0.102l-0.05,-0.106l-0.042,-0.11l-0.034,-0.113l-0.024,-0.115l-0.016,-0.117l-0.006,-0.118l0.003,-0.117l0.013,-0.118l0.021,-0.115l0.031,-0.114l0.039,-0.111l0.048,-0.108l0.056,-0.103l6.09,-10.231l-2.994,-5.298l-3.42,-7.102l-0.047,-0.108l-0.038,-0.111l-0.029,-0.114l-0.021,-0.116l-0.011,-0.118l-0.002,-0.117l0.007,-0.118l0.017,-0.116l0.025,-0.115l0.035,-0.113l0.043,-0.11l0.052,-0.105l0.06,-0.102l0.067,-0.096l0.075,-0.091l0.082,-0.085l0.088,-0.078l0.094,-0.071l0.1,-0.063l0.104,-0.055l0.108,-0.047l0.111,-0.038l0.114,-0.03l0.116,-0.02l0.118,-0.011l0.117,-0.002l0.118,0.007Z" style="fill:#9bae9a;"/><path d="M81.161,133.881l0.078,0.004l0.078,0.009l0.078,0.012l0.077,0.017l0.076,0.02l0.074,0.024l0.073,0.029l0.072,0.032l0.07,0.035l0.068,0.04l0.066,0.043l0.063,0.046l0.061,0.049l0.059,0.053l0.055,0.055l0.053,0.059l0.049,0.061l0.046,0.064l0.043,0.065l0.039,0.069l0.035,0.07l0.032,0.071l0.028,0.074l0.025,0.074l0.02,0.076l0.016,0.077l0.012,0.078l0.008,0.078l0.004,0.078l0.262,10.456l0,0.079l-0.005,0.078l-0.008,0.078l-0.012,0.078l-0.017,0.076l-0.02,0.076l-0.024,0.075l-0.029,0.073l-0.032,0.072l-0.035,0.07l-0.04,0.068l-0.043,0.066l-0.046,0.063l-0.049,0.061l-0.053,0.058l-0.056,0.056l-0.058,0.052l-0.061,0.05l-0.064,0.046l-0.066,0.042l-0.068,0.04l-0.07,0.035l-0.071,0.032l-0.074,0.028l-0.074,0.024l-0.076,0.021l-0.077,0.016l-0.078,0.012l-0.078,0.008l-0.078,0.004l-0.079,0l-0.078,-0.004l-0.078,-0.008l-0.078,-0.013l-0.077,-0.016l-0.076,-0.021l-0.074,-0.024l-0.073,-0.028l-0.072,-0.032l-0.07,-0.036l-0.068,-0.039l-0.066,-0.043l-0.063,-0.046l-0.061,-0.05l-0.059,-0.053l-0.055,-0.055l-0.053,-0.059l-0.049,-0.061l-0.046,-0.063l-0.043,-0.066l-0.039,-0.068l-0.035,-0.07l-0.032,-0.072l-0.028,-0.073l-0.025,-0.075l-0.02,-0.076l-0.016,-0.077l-0.012,-0.077l-0.008,-0.079l-0.004,-0.078l-0.262,-10.456l0,-0.078l0.005,-0.079l0.008,-0.078l0.012,-0.077l0.017,-0.077l0.02,-0.076l0.024,-0.075l0.029,-0.073l0.032,-0.072l0.035,-0.07l0.04,-0.068l0.043,-0.065l0.046,-0.064l0.049,-0.061l0.053,-0.058l0.056,-0.056l0.058,-0.052l0.061,-0.049l0.064,-0.047l0.066,-0.042l0.068,-0.039l0.07,-0.036l0.071,-0.032l0.074,-0.028l0.074,-0.024l0.076,-0.02l0.077,-0.017l0.078,-0.012l0.078,-0.008l0.078,-0.004l0.079,0Z" style="fill:#9bae9a;"/></g></g></svg>