<?xml version="1.0" encoding="UTF-8" standalone="no"?><!DOCTYPE svg PUBLIC "-//W3C//DTD SVG 1.1//EN" "http://www.w3.org/Graphics/SVG/1.1/DTD/svg11.dtd"><svg width="100%" height="100%" viewBox="0 0 916 1197" version="1.1" xmlns="http://www.w3.org/2000/svg" xmlns:xlink="http://www.w3.org/1999/xlink" xml:space="preserve" xmlns:serif="http://www.serif.com/" style="fill-rule:evenodd;clip-rule:evenodd;stroke-linecap:round;stroke-linejoin:round;stroke-miterlimit:1.5;"><g id="seaweeds"><g id="_4big" serif:id="4big"><g><path d="M232.23,741.067l-61.908,-33.179l7.224,-10.138l4.269,-7.683l9.239,-2.935l10.426,-10.558l0.335,-15.197l-3.536,-15.545l9.648,-13.704l11.613,-12.692l9.648,-13.704l-0.452,-15.612l-5.902,-19.507l4.674,-12.974l13.513,-13.36l13.127,-21.793l-1.714,-20.652l-8.026,-21.155l2.694,-11.238l11.536,-11.633l7.201,-13.863l0.252,-16.894l-4.245,-11.52l-3.065,-13.657l6.331,-15.956l6.646,-11.959l3.568,-11.889l-1.879,-15.792l-3.619,-9.006l0.17,-10.338l10.678,-21.964l1.906,-8.898l-2.355,-12.202l-4.008,-17.432l3.412,-9.779l9.716,-12.014l5.543,-10.881l0.176,-15.834l-3.305,-13.226l-0.139,-17.096l6.49,-12.585l8.143,-10.088l5.691,-10.241l0.726,-12.261l2.698,-13.981l5.621,-11.941l7.903,-9.658l10.198,-12.866l6.406,-11.527l2.3,-11.451l5.779,-11.305l8.373,-7.77l9.879,-11.385l8.854,-11.368l8.779,-15.796l7.982,-7.972l6.56,-5.413l7.573,0.062l0.389,5.691l-5.85,6.869l-5.931,10.672l-4.821,9.598l-7.21,16.614l-3.875,10.63l-2.694,11.238l-4.199,12.119l-9.879,11.385l-3.644,12.949l1.245,13.275l-2.852,7.867l-6.877,9.64l-5.372,8.76l-1.041,10.999l3.22,11.537l4.723,10.675l-1.818,5.1l-6.006,6.243l-4.197,6.63l-2.605,7.439l-2.848,5.124l-0.566,10.144l1.486,12.844l0.462,7.372l-0.084,9.292l-1.514,6.365l-4.665,10.224l-7.197,11.121l-4.194,9.376l-2.067,11.016l2.436,11.133l3.937,10.262l4.492,8.356l-1.111,6.563l-5.152,11.083l-6.008,11.732l-3.092,11.034l3.065,13.657l3.937,10.261l5.276,8.76l1.566,9.041l0.225,10.55l-6.877,9.64l-7.826,8.597l-5.528,8.135l-1.983,9.959l0.453,10.123l2.839,8.596l4.481,11.096l2.123,12.618l-7.918,20.639l-5.697,7.502l0.149,8.857l0.462,12.872l1.567,9.041l1.18,6.097l1.558,14.527l-5.617,11.934l-7.427,6.067l-7.502,4.373l-7.663,6.491l-7.991,13.457l-0.642,13.939l1.56,14.538l-0.095,12.03l-4.042,12.744l-13.742,13.788l-11.467,13.322l-7.518,18.09l-5.274,20.693Z" style="fill:#61ba5c;"/><path d="M209.442,717.269l21.88,-51.638l21.525,-50.42l15.81,-42.466l12.119,-42.261l5.702,-35.372l1.291,-29.201l0.087,-32.284l4.535,-30.351l7.356,-27.847l2.006,-31.644l3.215,-32.084l-1.131,-24.826l1.247,-28.528l2.298,-23.418l13.721,-28.783l4.371,-24.805l13.83,-33.652l8.015,-31.362l7.866,-25.826l9.464,-19.373l11.442,-19.418l10.227,-18.98l7.384,-10.959" style="fill:none;stroke:#38a65f;stroke-width:3.25px;"/></g><g><path d="M170.456,707.647l11.104,-16.386l17.469,-7.478l12.246,-2.628l6.32,-5.668l4.949,-14.609l1.703,-19.034l5.831,-9.352l15.201,-7.959l10.463,-6.281l10.376,-11.825l1.887,-11.381l3.174,-14.837l5.045,-12.5l7.218,-10.706l17.076,-9.053l11.35,-4.453l7.117,-9.384l3.27,-12.728l2.083,-10.594l1.988,-12.702l5.839,-12.788l10.664,-8.922l13.325,-6.867l9.482,-10.217l5.049,-12.508l-1.567,-9.728l1.891,-14.81l12.051,-10.277l11.061,-10.777l9.285,-11.004l3.27,-12.728l1.202,-12.43l1.787,-10.06l6.913,-6.735l10.271,-10.497l6.825,-12.281l1.398,-15.064l1.595,-14.276l10.175,-9.184l14.419,-14.538l5.246,-15.142l-0.265,-23.479l6.235,-18.064l9.979,-9.971l6.223,-7.776l6.525,-11.74l2.68,-15.09l4.26,-12.228l8.103,-12.299l10.175,-12.605l5.835,-9.359l2.184,-11.914l2.677,-11.661l5.145,-13.822l7.907,-9.665l8.303,-14.941l5.442,-14.355l4.16,-10.907l3.366,-10.62l7.795,-1.478l4.04,4.138l-4.352,10.113l-1.102,11.108l-1.102,14.53l-4.848,13.288l-2.777,12.982l-0.906,11.896l-1.197,12.422l-3.363,7.191l-6.32,5.668l-3.759,9.045l0.192,7.657l2.06,9.981l0.285,9.754l-6.817,8.844l-8.195,6.762l-3.859,6.944l-0.898,8.459l2.06,9.982l3.343,9.955l-3.955,8.258l-4.252,8.791l-7.707,7.023l-4.644,7.217l-2.869,7.444l-1.587,7.419l-0.998,9.78l-2.284,9.813l-3.069,10.087l-5.635,10.138l-6.42,6.99l-7.214,7.276l-5.73,8.031l-5.435,7.496l-3.955,8.258l-0.208,9.5l0.181,11.083l1.77,10.518l-6.324,9.098l-10.867,8.131l-6.32,5.669l-8.199,6.769l-2.184,11.914l0.384,15.295l0.774,13.437l-2.088,10.601l-3.562,9.833l-11.358,11.31l-9.67,2.572l-10.771,6.818l-5.595,4.895l-3.802,5.075l-5.112,10.37l-3.595,9.392l-0.465,9.603l-0.616,6.358l0.199,6.081l-4.257,5.893l-2.429,4.371l-5.006,5.508l-4.999,3.745l-5.256,1.863l-3.853,7.512l-5.116,12.126l-2.836,8.025l-2.381,7.207l-6.837,12.302l-6.778,8.103l-7.733,6.915l-6.426,5.125l-7.632,3.808l-9.909,6.143l-8.292,5.575l-1.83,8.543l-1.621,9.356l-1.837,12.056l-4.147,8.056l-5.266,7.132l-6.577,7.162l-4.907,5.907l-10.265,10.876l-7.583,6.645l-5.721,7.95l-3.894,6.429l-5.112,6.854l-1.977,5.309l-61.606,-33.193Z" style="fill:#8da945;"/><path d="M219.073,703.236l40.279,-49.115l33.332,-46.101l24.101,-36.789l24.356,-37.983l34.228,-60.135l26.324,-46.634l24.297,-48.11l16.152,-37.815l22.406,-49.083l16.573,-23.977l10.056,-13.72l11.464,-30.113l5.712,-23.419l6.596,-26.48l11.594,-34.004l11.966,-25.907l8.734,-15.716l10.576,-31.454l3.619,-13.075" style="fill:none;stroke:#809943;stroke-width:3.25px;"/></g><g><path d="M340.528,796.533l-72.146,-37.837l5.112,-6.854l9.913,-9.666l5.516,-8.752l1.221,-9.214l-3.221,-7.627l-2.769,-8.457l0.16,-9.055l1.83,-8.543l7.036,-9.737l6.621,-4.32l9.4,-8.163l7.538,-7.72l1.885,-12.736l1.83,-12.059l2.134,-9.092l9.205,-12.484l7.945,-7.859l8.9,-8.42l9.708,-6.952l7.134,-11.087l3.193,-11.01l0.519,-12.029l0.163,-10.811l4.507,-9.281l6.371,-4.448l10.869,-3.196l10.765,-5.354l5.766,-6.875l7.736,-6.904l3.446,-9.122l3.345,-13.037l3.35,-9.528l4.455,-6.844l8.945,-7.345l12.079,-5.374l8.802,-7.07l8.451,-11.114l3.487,-8.039l1.881,-10.98l4.359,-7.25l6.064,-5.66l7.076,-3.389l7.686,-6.235l7.593,-8.397l4.156,-15.073l1.581,-10.439l5.92,-8.902l11.874,-4.426l7.08,-5.146l9.044,-5.178l6.631,-9.588l3.302,-12.364l2.586,-11.67l2.484,-8.564l4.307,-10.079l8.449,-9.358l8.236,-4.898l8.897,-6.664l4.766,-10.905l1.977,-10.573l4.613,-8.879l4.15,-9.812l6.731,-5.673l6.166,-7.016l7.182,-8.252l6.83,-10.539l1.378,-9.481l1.673,-8.276l4.767,-10.905l4.803,-8.065l5.821,-7.552l4.707,-10.221l2.693,-11.267l4.26,-14.682l2.179,-9.764l4.401,-0.903l2.06,7.387l2.061,10.903l-4.308,10.079l-1.073,12.448l-1.735,12.466l-4.205,10.489l-1.685,17.049l-2.488,13.836l-3.249,11.677l-7.792,9.348l-4.157,13.324l-0.727,18.248l-9.663,11.543l-7.531,9.473l-3.151,13.842l0.141,10.263l-1.478,9.082l-5.109,8.614l-12.993,7.018l-6.23,12.962l-6.477,12.827l-2.792,10.868l-6.833,12.295l-15.827,11.539l-12.585,8.629l-7.035,9.737l-5.314,9.562l-0.365,10.002l0.394,8.635l-3.747,7.914l-9.403,6.403l-13.246,8.647l-8.295,7.331l-4.154,8.052l-2.579,8.158l-0.123,13.643l-0.615,9.873l-4.913,9.419l-13.593,6.363l-14.006,6.497l-10.309,6.285l-7.036,9.737l-1.221,9.214l0.141,10.263l-2.638,7.074l-4.705,6.716l-7.582,8.394l-8.093,8.14l-5.362,6.725l-4.157,13.325l-2.186,8.012l-0.314,11.081l-3.955,10.618l-5.968,9.581l-7.38,5.687l-10.465,3.046l-6.974,5.548l-11.028,8.735l-4.499,7.518l-0.818,7.315l1.602,9.962l0.446,9.715l2.112,8.466l-2.734,8.436l-5.974,9.578l-7.083,8.65l-4.91,11.179l-4.554,8.195l-1.837,10.306l3.124,8.988l2.667,8.047l-2.994,10.059" style="fill:#38a65f;"/><path d="M306.866,751.063l19.825,-55.3l26.861,-58.146l28.711,-50.725l45.134,-68.135l20.275,-22.466l21.53,-27.988l29.467,-38.539l44.84,-55.915l15.627,-23.449l20.935,-35.325l10.048,-24.628l16.2,-28.212l15.195,-30.139l15.262,-31.213l14.305,-28.069l9.725,-21.702l2.359,-13.121l4.016,-14.243" style="fill:none;stroke:#62a754;stroke-width:3.25px;"/></g><g><path d="M397.667,825.857l-47.488,-23.718l4.946,-5.914l4.012,-5.127l0.788,-8.59l-1.15,-9.589l-0.329,-8.987l4.541,-9.357l6.451,-7.124l9.517,-5.17l13.262,-17.286l4.517,-12.613l-3.758,-13.271l2.107,-11.869l6.297,-9.535l9.346,-8.144l13.972,-7.201l9.77,-14.581l4.44,-12.474l0.325,-18.539l1.414,-12.405l5.413,-8.551l14.475,-10.186l8.748,-8.273l6.686,-13.827l2.708,-11.748l-1.978,-11.989l7.568,-14.821l10.144,-5.393l9.17,-10.218l7.073,-10.93l0.918,-13.92l-0.82,-6.899l8.333,-14.089l7.686,-6.235l9.571,-13.706l3.239,-9.923l1.283,-16.919l2.685,-9.504l8.195,-7.73l11.222,-4.424l7.893,-8.938l4.558,-9.951l-0.747,-14.438l-0.289,-11.749l1.985,-12.336l8.55,-8.948l11.375,-8.2l7.076,-6.905l5.683,-16.055l2.23,-12.201l6.731,-9.189l10.776,-10.623l10.864,-6.704l6.833,-8.779l5.823,-14.573l4.968,-13.612l6.628,-7.832l10.509,-5.486l13.56,-19.728l6.587,-14.18l9.612,-10.874l9.14,4.009l3.676,10.324l-3.949,3.589l-5.611,6.597l-0.267,8.653l-1.214,5.701l-12.906,23.223l-0.972,9.343l-2.842,11.537l-3.904,11.697l-6.926,4.868l-6.526,4.726l-3.189,9.254l0.186,11.339l-0.109,10.134l-5.006,5.508l-9.304,5.053l-5.263,5.376l-3.192,7.494l1.36,11.586l2.762,11.969l-2.337,8.283l-9.201,7.212l-8.801,7.07l-7.891,10.698l-3.65,13.585l-2.593,15.183l-5.827,12.812l-8.188,7.734l-12.542,7.956l-9.16,13.56l-5.416,10.919l1.404,10.912l0.747,7.407l-2.587,9.921l-4.606,7.115l-9.557,8.43l-9.355,11.006l-4.554,8.194l-2.337,11.799l1.195,11.867l0.597,11.193l-4.055,10.218l-10.871,10.217l-11.782,6.589l-10.769,7.111l-4.557,9.95l-0.67,14.066l-1.987,15.842l-7.089,12.163l-8.698,9.229l-7.546,11.233l-4.55,9.954l-1.994,14.09l-2.032,14.766l-3.955,10.617l-8.096,11.645l-14.457,9.076l-13.845,6.223l-5.571,7.68l-4.711,15.493l-0.622,13.386l-0.77,10.151l-6.124,9.849l-7.994,8.539l-5.112,6.854l-1.163,6.781l1.231,5.522Z" style="fill:#1a9e39;"/><path d="M380.839,796.74l13.678,-29.848l12.132,-37.158l11.396,-17.523l17.729,-36.76l14.774,-23.21l5.765,-14.124l20.125,-37.321l12.992,-27.503l26.701,-52.156l12.146,-21.856l28.713,-53.15l12.891,-27.321l7.581,-11.392l16.855,-35.188l9.659,-24.49l27.318,-52.515l14.045,-17.053l20.823,-27.75l17.398,-26.805l13.83,-26.386l6.161,-18.196" style="fill:none;stroke:#0a8c34;stroke-width:3.25px;"/></g><path d="M193.932,701.032l6.76,-34.978l2.925,-38.532l-0.674,-32.055l3.72,-33.619l-1.586,-27.805l-1.806,-31.519l-3.802,-36.147l-3.112,-26.56l-4.558,-25.067l-4.664,-20.393l-3.444,-16.616l-4.089,-18.067l-3.603,-13.332" style="fill:none;stroke:#71893d;stroke-width:3.25px;"/></g><g id="_4small" serif:id="4small"><g><path d="M168.127,707.821l3.808,-3.257l-0.489,-3.307l-1.448,-4.882l2.624,-5.314l5.23,-7.019l5.721,-7.312l-1.125,-10.835l-5.703,-7.974l-0.826,-5.999l5.085,-8.541l6.497,-7.815l4.489,-9.562l-1.674,-7.161l-4.106,-8.769l-3.767,-7.879l3.837,-7.201l5.565,-4.327l3.061,-5.804l-1.592,-6.215l-3.165,-10.447l-4.675,-6.542l1.873,-6.058l3.47,-6.853l2.902,-7.315l-1.432,-7.581l-6.074,-7.619l-0.461,-4.562l3.478,-5.946l3.939,-6.791l-2.968,-7.816l-7.236,-7.325l0.059,-5.187l5.473,-11.942l0.419,-6.44l-3.376,-7.678l-7.807,-7.798l0.162,-6.572l3.531,-11.136l1.144,-4.45l-2.377,-5.896l-6.091,-9.978l1.839,-3.904l0.342,-4.506l1.74,-5.224l1.199,-6.941l-0.459,-6.347l-3.253,-7.615l-2.397,-5.548l1.714,-4.881l-0.276,-7.879l-0.64,-5.725l-1.416,-6.125l-1.54,-6.198l0.364,-4.842l3.287,-2.632l3.903,2.554l1.96,6.038l2.862,7.414l3.409,4.631l2.399,5.559l1.699,5.913l2.998,2.982l2.505,5.961l0.661,6.281l-0.939,4.377l1.524,4.742l4.237,3.441l3.724,3.176l0.279,6.075l-1.298,2.039l-1.685,5.422l1.412,6.132l5.897,3.75l4.622,3.638l1.781,4.874l0.048,3.804l-1.842,4.815l-1.351,3.619l-0.136,4.433l3.591,5.806l3.559,7.049l2.065,8.254l-2.028,4.54l-1.533,6.948l-2.563,3.72l-1.405,7.013l1.96,5.145l3.693,6.216l6.227,3.75l-0.11,6.777l-1.458,5.905l-2.539,6.976l-1.638,5.634l0.818,4.2l3.828,6.285l5.707,6.171l3.278,6.368l-0.522,5.127l-4.508,7.222l-4.1,7.065l-2.741,5.244l0.532,6.215l3.486,5.385l3.847,5.938l-1.356,9.925l-1.071,7.007l-1.998,5.984l-0.186,6.024l1.104,5.607l2.969,5.129l2.223,6.173l-0.089,6.441l-2.069,5.224l-2.959,6.214l-4.762,3.49l-3.939,4.994l-3.083,4.345l0.691,5.038l-0.604,6.166l0.98,5.721l0.564,6.768l-0.96,3.82l-2.906,5.527l-2.877,3.379l-2.353,3.64l-0.373,5.749l-0.033,4.843l-39.507,-18.359Z" style="fill:#8eaa46;"/><path d="M194.855,698.029l6.086,-36.002l3.924,-38.469l1.326,-33.046l-0.779,-19.522l1.543,-24.841l-1.35,-29.714l-3.825,-27.153l-1.867,-36.269l-3.013,-18.877l-8.052,-27.984l-4.659,-26.011l-4.759,-21.345" style="fill:none;stroke:#71893d;stroke-width:3.25px;"/></g><g><path d="M325.468,579.827l-7.789,15.234l-16.303,-24.466l0.277,-17.436l4.913,-9.42l-3.228,-7.63l-9.034,-5.355l3.144,-10.33l5.265,-12.397l1.276,-9.89l-5.708,-4.339l-0.795,-12.009l8.352,-11.513l8.901,-8.421l1.426,-10.161l-5.089,-10.703l0.362,-8.246l5.259,-7.136l7.99,-6.783l4.205,-6.973l-0.804,-6.74l-2.058,-10.892l4.052,-8.463l7.182,-8.251l4.958,-8.344l-1.202,-10.103l3.952,-8.862l6.628,-7.831l2.839,-9.782l-2.515,-6.568l0.006,-7.029l6.977,-7.304l5.263,-5.376l2.535,-9.233l-1.709,-10.365l-0.896,-8.903l1.625,-7.596l6.727,-7.433l3.599,-7.632l-0.291,-9.993l-0.703,-6.33l3.087,-6.148l4.756,-7.386l1.574,-6.926l-3.371,-7.357l0.557,-7.441l1.375,-7.724l0.519,-10.28l-1.958,-10.493l0.106,-6.629l5.205,0.573l2.82,6.02l4.381,13.15l3.926,13.969l3.215,14.655l-0.205,4.463l-3.296,5.336l1.007,4.034l4.039,7.343l0.294,4.72l-3.593,5.887l-2.936,4.111l0.195,4.321l5.607,7.445l1.102,4.44l0.401,5.123l-6.68,6.752l-2.282,9.373l1.654,11.041l0.397,6.879l-4.91,7.664l-7.483,7.043l-5.017,10.776l2.52,6.562l2.112,8.466l-3.442,7.366l-6.882,7.71l-4.701,6.709l-0.92,6.906l6.91,12.693l-0.817,7.316l-6.071,3.907l-7.23,7.165l-5.311,6.056l2.215,7.11l2.413,7.925l-3.901,9.941l-6.422,6.884l-0.462,7.847l3.221,11.143l3.375,5.601l-1.621,9.355l-8.805,8.827l-4.808,4.557l-5.163,9.291l6.616,9.722l5.342,9.076l-1.881,10.98l-2.638,10.591l-3.798,6.834l-5.266,7.132l-1.779,9.623l0.35,7.559l-7.231,5.416Z" style="fill:#a9cc4c;"/><path d="M320.545,559.075l1.438,-52.016l4.332,-28.359l1.325,-26.308l3.775,-22.122l10.51,-25.631l13.582,-38.659l7.73,-24.364l5.126,-16.708l10.864,-27.019l5.277,-13.246l-0.727,-12.52l-2.542,-10.756l1.568,-12.918l2.992,-16.227l3.451,-18.914l0.373,-14.877" style="fill:none;stroke:#9cbb48;stroke-width:3.25px;"/></g><g><path d="M264.924,757.433l-25.771,-13.696l2.2,-3.474l3.458,-0.956l1.803,-3.245l0.627,-5.44l-1.048,-5.287l-1.006,-5.848l-0.224,-4.862l5.613,-5.318l6.499,-2.117l6.878,-5.672l2.631,-7.859l-0.686,-7.845l-5.374,-7.081l4.454,-5.623l6.868,-3.515l5.698,-2.83l4.89,-4.252l3.607,-6.491l3.633,-11.084l-0.838,-6.617l0.354,-6.154l3.855,-5.499l3.669,-1.57l8.549,-4.381l4.552,-4.848l1.544,-8.277l-2.057,-7.536l0.289,-6.036l5.994,-5.987l8.224,-5.704l4.017,-6.994l0.75,-4.944l-0.947,-3.797l-0.212,-9.181l1.968,-5.464l5.944,-3.991l3.708,-2.124l3.287,-3.056l2.013,-6.014l-0.696,-6.403l1.29,-4.948l5.651,-2.995l7.436,-3.082l4.557,-7.732l0.758,-6.379l-1.667,-7.767l-0.859,-7.784l1.696,-4.739l4.8,-2.418l5.806,-4.213l5.115,-3.703l1.408,-5.893l0.631,-6.152l1.62,-6.509l4.39,-3.352l6.754,-3.293l4.989,-3.476l4.352,-5.676l1.509,-4.403l-0.339,-4.639l3.027,-6.649l5.259,-3.479l4.246,-2.139l4.415,-6.508l4.371,-7.395l3.839,-7.378l4.244,-1.416l6.034,3.971l1.154,4.627l-3.335,7.204l-3.383,3.448l-1.967,6.179l-3.593,6.216l-2.161,9.389l0.035,5.921l-1.286,4.236l-2.756,3.037l-5.054,3.594l-1.183,5.004l0.508,6.024l0.763,4.848l-4.64,3.083l-3.918,3.455l-3.271,3.495l-1.534,3.244l0.983,5.404l2.052,5.653l-0.345,5.152l-2.526,2.874l-4.221,1.86l-4.987,2.754l-2.41,4.805l-2.157,7.961l-1.091,8.651l-4.829,10.61l-6.296,4.392l-5.658,4.43l-4.976,7.516l-0.663,5.271l1.955,6.045l-0.233,5.201l-4.768,5.471l-5.212,3.643l-4.519,7.179l-2.286,5.3l-1.478,8.161l1.356,7.607l0.283,5.476l-7.142,7.116l-7.597,1.701l-6.757,6.892l-2.736,5.642l0.075,6.083l-0.849,5.608l-4.092,10.707l-4.017,4.118l-4.246,3.577l-1.666,6.343l-2.075,6.124l-0.336,4.433l-0.735,5.385l-0.87,7.316l-2.702,5.096l-6.432,3.449l-5.322,1.434l-3.622,1.737l-2.4,2.647l-3.983,5.01l-1.541,6.116l-0.273,3.601l-0.5,5.213l-0.919,4.999l-1.951,5.181l-4.532,4.577l-3.693,5.441l-5.489,7.252Z" style="fill:#159d37;"/><path d="M257.478,734.828l18.694,-32.888l12.736,-28.527l12.799,-24.905l20.571,-36.641l12.569,-22.992l18.898,-43.349l14.97,-26.936l19.8,-40.864l10.626,-18.371l12.692,-19.103l13.18,-16.605l1.724,-6.088" style="fill:none;stroke:#0b8c39;stroke-width:3.25px;"/></g><g><path d="M397.196,825.859l-45.289,-22.595l5.199,-4.807l5.237,-3.923l2.536,-7.907l-1.276,-7.284l-0.962,-7.113l1.892,-8.671l5.735,-5.537l5.309,-6.913l3.835,-6.665l0.152,-7.696l-3.261,-5.853l-3.821,-7.719l-0.547,-6.909l4.679,-5.075l5.014,-5.193l1.802,-5.399l-0.361,-6.522l-1.915,-7.322l-4.278,-5.943l1.752,-9.608l2.926,-6.701l4.14,-5.06l-0.096,-5.812l-2.725,-6.723l-0.88,-11.104l2.785,-7.638l2.838,-7.028l-2.164,-7.591l-2.536,-9.08l0.235,-5.923l4.85,-5.852l4.372,-5.242l1.402,-8.491l-1.505,-7.825l-3.035,-6.742l-0.882,-6.789l6.656,-9.82l3.853,-6.214l1.457,-6.451l1.145,-8.764l3.346,-7.209l5.464,-5.535l5.137,-6.851l2.163,-5.081l1.517,-5.838l3.587,-9.096l4.08,-3.512l5.236,-3.923l6.244,-8.594l4.121,-6.227l4.312,-5.837l3.847,-2.626l3.395,1.315l0.472,2.979l-2.525,5.027l-2.528,3.596l-2.599,5.864l-3.456,5.985l-3.198,7.426l-1.044,7.378l-1.248,6.559l-4.64,5.959l-3.731,3.119l-0.149,5.535l1.01,4.402l1.644,5.885l-4.372,5.242l-3.458,3.832l-2.574,5.585l2.065,5.378l2.935,5.252l1.582,5.279l-3.272,6.372l-4.309,4.41l-3.173,4.271l0.305,5.186l1.836,7.713l1.706,7.214l-0.436,5.097l-1.707,4.743l-3.481,4.826l-2.286,5.3l-2.092,4.968l-0.606,5.874l2.038,6.379l3.703,5.073l3.531,5.851l-2.345,4.687l-2.553,6.752l-2.299,4.137l-1.248,5.12l-0.523,6.208l4.753,5.323l4.994,9.188l1.3,5.567l-2.49,5.919l-3.585,5.497l-2.423,5.079l-2.061,5.849l1.487,6.669l3.733,8.831l0.733,6.572l-1.228,6.992l-2.837,7.028l-1.953,4.466l0.819,6.184l0.384,8.404l2.206,8.468l1.292,6.287l-0.024,5.308l-1.953,7.343l-8.811,1.509l-4.827,1.982l-3.025,3.772l-2.496,8.069l0.598,5.629l1.109,5.177l0.613,6.943Z" style="fill:#5bbc5b;"/><path d="M385.404,787.198l9.594,-21.374l2.102,-28.831l1.124,-23.712l1.712,-28.13l2.647,-22.702l0.277,-15.829l-0.046,-15.996l-1.408,-13.547l-3.927,-14.608l2.859,-12.253l4.285,-16.681l5.456,-19.912l5.779,-18.619l5.804,-17.929l6.551,-14.396l6.971,-17.779l5.054,-9.094" style="fill:none;stroke:#43a453;stroke-width:3.25px;"/></g></g></g><g id="seaweeds1" serif:id="seaweeds"><g id="_4big1" serif:id="4big"><g><path d="M507.397,1021.63l60.14,22.257l2.647,-9.623l2.73,-6.534l-3.535,-7.276l1.008,-11.845l10.281,-7.831l12.851,-5.573l3.647,-12.934l1.766,-13.66l3.647,-12.933l11.04,-7.545l17.008,-6.074l6.136,-9.442l1.084,-15.189l7.133,-19.175l15.277,-9.279l19.422,-5.566l6.131,-7.327l1.081,-13.081l5.23,-11.476l11.501,-8.63l10.5,-3.11l11.266,-4.922l7.195,-11.979l4.25,-10.172l6.054,-8.203l12.024,-6.738l8.389,-2.243l7.029,-5.291l8.724,-17.722l4.992,-5.659l9.833,-4.639l14.436,-6.224l4.693,-7.047l2.44,-12.128l4.17,-8.939l10.815,-8.051l11.113,-4.555l11.875,-8.486l4.775,-10.388l2.059,-10.174l3.639,-8.711l8.021,-6.604l8.02,-8.706l4.855,-9.519l1.905,-9.808l2.738,-12.859l4.096,-9.805l6.515,-7.186l4.321,-9.3l0.32,-9.157l1.908,-11.916l2.514,-11.262l5.613,-13.437l0.696,-9.012l-0.214,-6.836l-4.6,-4.726l-4.16,2.609l-1.218,7.119l-3.792,9.078l-3.719,7.842l-7.121,12.86l-5.001,7.766l-6.131,7.327l-5.832,8.715l-1.908,11.916l-6.739,8.783l-9.907,5.874l-3.71,5.737l-2.511,9.154l-2.81,7.768l-6.96,6.169l-9.895,3.763l-10.206,2.385l-2.424,3.7l-0.692,6.904l-2.048,5.961l-3.563,5.367l-1.821,4.359l-6.656,5.441l-9.754,5.508l-5.363,3.407l-6.359,4.711l-3.48,4.143l-4.244,8.058l-3.341,10.098l-3.943,7.336l-6.355,6.823l-9.145,4.052l-9.448,2.672l-8.467,1.368l-3.858,3.99l-4.544,8.794l-4.478,9.657l-5.749,7.476l-11.266,4.922l-9.447,2.672l-9.216,1.079l-7.18,3.549l-7.412,5.149l-2.511,9.155l-1.221,9.227l-2.284,7.553l-5.677,6.239l-7.255,4.792l-7.638,2.526l-10.35,2.749l-9.981,4.993l-9.471,15.324l-1.747,7.342l-6.199,4.347l-9.157,6.164l-7.179,3.55l-4.916,2.316l-10.957,6.306l-4.853,9.512l0.285,7.709l1.498,6.906l0.134,8.069l-4.474,11.768l-9.228,7.394l-10.966,6.309l-8.242,6.093l-6.358,8.93l-1.241,15.547l-2.288,13.885l-7.955,13.794l-11.1,13.69Z" style="fill:#61ba5c;"/><path d="M537.526,1024.01l22.452,-39.64l21.825,-38.806l19.778,-31.228l21.858,-28.804l20.968,-21.32l19.365,-15.454l22.217,-16.243l18.206,-18.069l14.781,-18.585l20.62,-17.128l20.197,-18.108l17.805,-11.739l18.927,-15.088l14.771,-13.187l11.597,-23.053l14.479,-15.185l14.89,-25.563l16.81,-20.762l13.081,-17.893l7.668,-15.66l6.508,-16.925l6.938,-15.943l3.116,-10.134" style="fill:none;stroke:#38a65f;stroke-width:2.7px;"/></g><g><path d="M567.623,1043.68l4.621,-15.192l-5.354,-14.726l-5.557,-9.011l0.107,-6.813l7.099,-10.435l12.104,-10.614l2.942,-8.352l-3.657,-13.542l-1.965,-9.723l1.914,-12.449l6.714,-6.892l8.324,-9.434l5.587,-9.438l3.041,-9.903l-4.031,-15.268l-3.759,-9.363l2.191,-9.177l6.812,-8.437l6.053,-6.621l7.566,-7.618l5.307,-10.081l-0.263,-11.174l-3.282,-11.815l1.341,-11.08l5.59,-9.444l7.653,-3.894l9.077,-8.614l-0.163,-12.725l0.778,-12.353l2.003,-11.352l6.812,-8.436l7.85,-6.988l5.864,-6.167l0.486,-7.721l1.06,-11.717l4.364,-10.446l9.549,-8.432l8.888,-8.16l0.212,-10.998l1.351,-16.349l7.288,-10.889l16.355,-11.606l8.708,-12.976l0.872,-11.269l1.619,-7.81l4.172,-9.985l8.796,-9.251l5.871,-8.808l3.607,-11.258l2.572,-12.714l2.944,-8.359l6.905,-7.346l6.432,-7.529l6.438,-10.163l1.908,-9.814l5.31,-12.709l6.627,-10.617l5.02,-8.083l5.3,-7.44l-3.672,-5.638l-5.285,-0.464l-4.356,7.805l-7,6.263l-9.359,7.978l-6.248,9.71l-7.284,8.254l-7.66,6.534l-7.848,6.981l-2.937,5.718l-0.106,6.813l-3.978,6.898l-5.396,3.719l-8.125,3.71l-6.899,4.713l-1.999,8.717l0.268,8.54l-2.468,5.906l-5.295,4.806l-8.124,3.711l-8.879,2.892l-3.316,6.626l-3.505,7.079l-0.207,8.364l-2.183,6.536l-3.408,5.536l-4.162,4.717l-6.146,5.531l-5.395,6.356l-5.11,6.986l-3.603,8.624l-0.958,7.538l-0.678,8.181l-2.09,7.627l-1.901,7.173l-3.316,6.626l-6.428,4.895l-7.753,5.443l-8.321,4.162l-2.47,8.535l0.931,10.905l-0.107,6.813l0.265,8.546l-6.905,7.347l-10.781,7.428l-9.734,6.252l-6.056,6.627l-4.638,7.169l-0.968,12.807l4.046,7.365l1.779,10.186l-0.01,5.969l-1.213,4.933l-4.077,8.412l-4.315,6.969l-6.344,5.107l-4.015,3.575l-4.314,2.924l-1.504,5.63l-1.553,3.718l-0.786,5.907l0.425,5.018l1.877,4.237l-2.862,6.187l-5.286,9.295l-3.83,5.806l-3.538,5.11l-4.371,10.464l-1.51,8.321l-0.116,8.326l0.332,6.607l1.964,6.705l1.727,9.306l1.144,8.005l-4.792,5.433l-5.478,5.71l-7.21,7.199l-3.062,6.645l-1.75,6.885l-0.983,7.724l-1.121,6.044l-1.326,11.903l-0.019,8.096l-2.042,7.582l-2.091,5.669l-1.652,6.649l-2.471,3.904l59.967,22.06Z" style="fill:#8da945;"/><path d="M541.409,1010.93l9.641,-49.935l11.741,-44.058l10.873,-33.589l11.543,-34.349l20.883,-51.658l16.326,-39.923l18.564,-39.389l16.365,-29.11l20.373,-38.689l6.566,-22.435l3.412,-13.198l13.873,-22.302l12.717,-15.332l14.296,-17.423l16.478,-24.335l10.669,-20.508l5.585,-13.368l15.332,-22.417l6.841,-8.83" style="fill:none;stroke:#809943;stroke-width:2.7px;"/></g><g><path d="M403.968,981.404l69.514,26.353l1.652,-6.649l0.702,-11.075l2.718,-7.854l5.621,-5.387l7.199,-1.801l7.499,-2.501l6.15,-4.641l4.791,-5.434l2.483,-9.303l-1.004,-6.325l-0.026,-9.999l0.789,-8.608l7.651,-7.57l7.217,-7.197l4.986,-5.9l3.073,-12.043l0.639,-8.933l0.452,-9.813l-1.046,-9.585l3.354,-10.042l5.674,-7.526l7.985,-6.358l7.358,-5.524l3.69,-7.485l-0.765,-6.234l-4.336,-8.43l-2.785,-9.449l1.272,-7.07l0.107,-8.322l4.219,-6.739l6.979,-8.639l4.556,-6.883l2.041,-6.231l-0.317,-9.302l-3.562,-10.284l-0.419,-9.075l2.58,-10.883l3.447,-6.221l6.442,-6.688l2.378,-6.374l0.255,-6.648l-1.921,-6.145l-0.324,-7.955l1.223,-8.981l7.896,-10.17l6.249,-6.227l2.578,-8.183l-4.092,-9.68l-0.711,-7.028l-1.87,-8.279l2.623,-8.974l6.541,-8.274l6.493,-7.476l4.413,-5.855l4.36,-7.76l1.371,-10.001l-1.578,-7.631l-0.757,-8.931l4.654,-8.462l6.103,-6.544l3.349,-7.35l4.27,-7.528l-0.137,-7.074l1.13,-7.392l1.369,-8.65l3.16,-9.575l5.71,-5.62l4.702,-5.201l4.654,-8.463l2.673,-7.063l1.706,-7.443l4.217,-8.083l6.152,-7.342l7.564,-10.038l5.424,-6.265l-2.026,-3.218l-6.335,2.41l-8.761,4.173l-4.36,7.76l-7.94,6.916l-7.555,7.341l-4.705,7.901l-10.746,9.609l-8.047,8.501l-6.098,7.896l-1.76,9.583l-6.689,9.293l-12.149,9.607l-2.148,11.86l-2.002,9.481l-7.652,8.921l-7.164,5.057l-5.375,5.483l-2.867,7.529l2.977,11.682l-5.191,10.415l-4.95,10.5l-5.817,7.204l-4.369,10.458l1.565,15.73l1.621,12.234l-2.483,9.302l-3.398,8.133l-6.679,5.245l-6.193,4.083l-3.205,6.322l1.242,9.119l2.007,12.657l-0.065,8.888l-3.055,6.647l-4.075,5.711l-9.337,6.918l-6.44,5.338l-3.541,7.81l3.791,11.73l3.946,12.057l1.87,9.629l-2.483,9.303l-5.621,5.387l-7.164,5.058l-3.293,5.205l-1.801,6.323l-1.226,8.973l-0.745,9.166l-1.413,6.741l-6.689,9.293l-4.211,5.391l-7.455,5.754l-4.944,7.809l-3.018,8.554l0.519,7.489l4.196,8.102l0.37,7.163l0.611,11.309l-2.478,6.596l-4.554,4.182l-7.836,3.989l-6.969,4.591l-7.111,2.919l-4.173,5.947l-3.012,8.557l-1.704,8.787l-4.757,8.691l-2.912,6.97l-6.003,6.322l-8.08,2.544l-7.155,2.36l-5.138,6.925" style="fill:#38a65f;"/><path d="M455.589,979.751l26.215,-40.185l23.944,-46.032l17.712,-43.474l19.837,-62.522l3.296,-24.004l6.351,-27.56l8.85,-37.839l11.586,-56.209l6.77,-21.576l11.769,-30.866l10.942,-18.663l9.711,-24.324l11.646,-24.659l12.346,-25.241l10.752,-23.062l9.118,-16.992l7.631,-8.062l7.408,-9.665" style="fill:none;stroke:#62a754;stroke-width:2.7px;"/></g><g><path d="M349.358,960.21l44.936,17.942l1.104,-6.073l1.121,-5.092l5.452,-4.803l7.305,-4.085l6.397,-4.3l3.723,-7.545l1.031,-7.625l-2.16,-8.571l3.942,-17.001l5.982,-9.162l11.416,-4.294l6.919,-7.276l2.787,-8.737l-0.006,-9.955l-3.44,-12.389l4.178,-13.45l5.932,-9.044l12.593,-9.501l7.705,-7.109l2.642,-7.688l-1.685,-14.202l0.442,-9.644l5.514,-11.135l6.475,-7.592l9.459,-4.769l5.67,-12.187l-2.385,-9.077l1.53,-10.884l3.283,-9.925l9.049,-7.557l5.253,-2.944l4.703,-12.301l-0.324,-7.955l3.694,-12.885l4.896,-7.012l10.898,-9.29l4.94,-6.452l0.4,-9.025l-3.7,-9.268l1.415,-9.442l4.121,-7.853l10.409,-6.77l8.277,-5.71l7.316,-7.433l1.026,-9.859l-1.188,-11.258l0.504,-7.909l7.655,-11.621l7.074,-7.519l2.288,-8.836l0.843,-12.097l-1.913,-10.187l1.943,-8.695l6.548,-10.966l6.399,-9.947l1.414,-8.091l-2.539,-9.354l5.448,-18.412l5.817,-11.248l1.716,-11.492l-8.265,-3.732l-9.333,2.868l-0.1,4.28l-1.174,6.834l-5.807,4.506l-3.202,3.622l-8.253,19.753l-5.859,5.295l-6.248,7.572l-5.719,8.318l0.81,6.792l0.667,6.47l-4.464,6.643l-7.933,5.569l-6.925,5.15l-0.787,5.908l2.114,8.379l-0.542,6.002l-3.248,5.764l-8.81,4.955l-9.918,4.267l-4.307,5.621l0.562,9.397l0.419,9.075l-2.631,10.322l-7.173,9.105l-8.913,9.243l-5.331,10.085l-0.407,9.023l2.059,11.869l-3.842,12.554l-4.271,8.878l-8.373,4.59l-5.558,3.245l-5.287,6.6l-2.136,6.461l-0.064,10.231l-1.962,11.397l-2.911,6.97l-6.733,7.384l-8.904,5.2l-8.08,5.238l-4.609,7.672l-0.505,11.952l2.545,10.707l1.575,10.331l-4.121,7.853l-9.299,7.474l-9.732,9.192l-4.124,10.553l-1.131,10.093l-3.208,10.373l-4.128,7.85l-8.518,8.318l-8.963,8.681l-4.944,7.809l-3.16,10.925l2.439,13.634l4.039,11.819l-1.945,7.351l-7.852,10.729l-8.859,7.103l-6.539,5.574l-3.108,8.786l-1.08,9.304l-1.651,6.649l-3.978,4.13l-4.549,1.996Z" style="fill:#1a9e39;"/><path d="M379.568,956.182l12.358,-23.56l18.331,-26.255l5.228,-15.947l14.688,-29.571l7.119,-20.921l6.273,-10.704l13.634,-31.358l11.152,-21.954l19.908,-42.928l7.767,-18.591l19.383,-44.691l11.088,-21.798l3.296,-10.476l14.13,-28.234l11.08,-18.349l19.785,-43.496l3.311,-17.375l6.61,-26.997l8.02,-24.372l9.878,-21.92l8.844,-12.995" style="fill:none;stroke:#0a8c34;stroke-width:2.7px;"/></g><path d="M558.058,1025.62l20.06,-21.787l24.818,-21.159l22.517,-15.65l20.951,-19.195l20.133,-12.947l22.828,-14.67l27.222,-15.737l20.193,-11.363l20.033,-9.706l16.873,-7.296l13.534,-6.169l14.923,-6.49l11.364,-4.422" style="fill:none;stroke:#71893d;stroke-width:2.7px;"/></g><g id="_4small1" serif:id="4small"><g><path d="M568.904,1045.23l-0.044,-4.026l2.575,-1.351l4.238,-1.538l2.087,-4.314l1.695,-6.805l1.6,-7.261l8.151,-4.726l8.932,-0.415l4.635,-2.49l2.832,-7.478l1.481,-8l3.894,-7.616l5.946,-2.538l8.52,-1.817l7.702,-1.585l2.658,-6.021l-0.365,-5.667l2.162,-4.833l5.245,-2.117l9.111,-3.249l7.326,-0.344l3.051,-4.215l2.639,-5.616l3.3,-5.491l6.091,-2.902l8.91,-0.005l3.424,-1.997l2.009,-5.167l2.313,-5.88l7.178,-2.055l9.407,0.873l3.542,-2.638l4.944,-9.427l4.19,-3.492l7.328,-1.73l10.076,0.995l4.437,-3.397l5.556,-7.803l2.381,-2.95l5.497,-1.463l10.548,-1.177l1.586,-3.113l2.903,-2.474l2.556,-3.713l4.066,-4.234l4.654,-2.894l7.211,-1.775l5.269,-1.276l2.335,-3.524l5.601,-3.777l4.334,-2.469l5.077,-2.182l5.202,-2.14l3.121,-2.657l-0.162,-3.385l-4.111,-1.171l-5.344,1.796l-6.836,1.92l-5.247,0.18l-5.278,1.28l-5.101,1.898l-3.86,-0.388l-5.62,1.415l-4.73,2.735l-2.454,2.784l-4.188,1.421l-4.923,-0.937l-4.431,-0.747l-4.359,2.871l-0.626,1.838l-2.726,3.778l-5.079,2.187l-6.135,-1.824l-5.291,-1.079l-4.434,1.325l-2.653,1.877l-2.212,3.571l-1.684,2.664l-2.975,2.309l-6.166,0.655l-7.004,1.298l-6.936,2.842l-1.912,3.551l-3.869,4.447l-1.024,3.475l-3.992,4.4l-4.729,1.348l-6.509,0.797l-6.334,-2.032l-4.608,3.468l-3.196,3.877l-3.284,5.093l-2.901,3.854l-3.389,1.592l-6.639,0.747l-7.69,-0.491l-6.366,1.134l-3.222,2.899l-2.269,6.453l-2.406,6.119l-1.968,4.352l-4.607,2.782l-5.812,0.511l-6.411,0.56l-6.03,5.828l-4.188,4.187l-2.926,4.256l-4.043,3.138l-4.533,2.117l-5.323,0.707l-5.596,1.699l-4.39,3.285l-2.358,3.92l-2.506,4.975l0.459,4.742l-1.075,4.979l-1.142,4.116l-3.89,2.091l-3.89,3.472l-4.536,2.253l-5.008,3.04l-2.058,2.518l-2.063,4.598l-0.6,3.502l-1.094,3.303l-3.742,3.117l-3.32,2.45l36.437,15.614Z" style="fill:#8eaa46;"/><path d="M559.575,1023.53l21.17,-21.877l24.174,-21.755l21.997,-17.405l13.934,-9.299l16.207,-13.426l21.308,-14.052l21.031,-11.213l26.141,-17.014l14.834,-7.572l24.148,-8.974l20.746,-10.116l17.587,-7.713" style="fill:none;stroke:#71893d;stroke-width:2.7px;"/></g><g><path d="M562.51,882.199l-5.822,12.532l26.687,-2.025l11.861,-8.918l3.541,-7.81l7.206,-1.798l9.13,2.991l5.233,-7.155l5.382,-9.525l6.055,-5.761l6.428,1.411l8.762,-5.523l2.915,-11.021l0.452,-9.813l6.151,-5.992l10.446,-2.17l5.47,-4.362l1.757,-6.883l-0.13,-8.421l2.279,-6.138l5.134,-2.875l8.752,-4.169l3.399,-6.788l1.369,-8.65l2.772,-7.299l7.692,-4.311l3.735,-6.927l1.413,-8.091l5.039,-6.689l6.044,-1.713l4.844,-3.529l0.84,-8.046l0.541,-6.002l4.844,-6.222l8.177,-4.124l6.681,-3.901l4.262,-4.83l1.078,-7.954l3.099,-6.088l7.068,-4.828l4.79,-2.733l2.383,-5.022l2.232,-6.692l3.831,-4.462l7.103,-1.571l4.797,-4.081l4.501,-4.737l6.778,-5.481l8.416,-4.032l4.509,-3.391l-3.527,-2.982l-5.85,1.247l-11.707,3.841l-11.998,4.538l-12.043,5.33l-2.955,2.367l-1.697,4.745l-3.388,1.391l-7.496,1.145l-3.433,2.181l-1.899,5.21l-1.069,3.906l-3.098,2.044l-8.509,0.211l-3.725,1.534l-3.775,2.317l-0.639,7.582l-5.091,6.134l-8.612,4.498l-4.984,3.2l-2.331,6.927l-0.355,8.234l-4.415,8.555l-6.042,1.707l-7.111,2.918l-3.009,5.857l-1.177,8.189l-1.799,6.318l-4.21,4.041l-12.914,2.024l-4.554,4.182l0.958,5.773l-0.591,8.135l-0.982,6.373l-6.237,2.174l-6.918,2.458l-4.51,7.435l-0.884,7.488l-5.135,4.225l-9.624,3.563l-5.894,0.689l-5.478,5.71l-0.79,9.957l-0.25,5.306l-3.301,7.903l-10.688,0.718l-9.475,1.195l-6.442,6.688l-5.718,6.968l-2.428,5.813l-1.751,6.885l-5.567,5.942l-5.425,3.571l0.616,7.259Z" style="fill:#a9cc4c;"/><path d="M579.787,874.886l35.013,-26.987l16.955,-16.942l17.349,-14.024l12.988,-13.465l11.355,-19.456l18.493,-27.918l12.154,-17.074l8.441,-11.598l12.099,-20.374l5.961,-9.958l9.074,-5.821l8.949,-3.796l7.966,-7.463l9.393,-10.017l10.97,-11.653l10.037,-7.694" style="fill:none;stroke:#9cbb48;stroke-width:2.7px;"/></g><g><path d="M476.434,1009.3l24.956,9.323l1.072,-3.124l-1.421,-2.652l1.153,-2.76l3.375,-3.122l4.278,-1.992l4.638,-2.301l3.49,-2.297l0.29,-6.193l-2.451,-5.145l-0.226,-7.166l3.837,-5.593l5.824,-3.503l8.119,-0.174l1.198,-5.618l-1.708,-6.078l-1.477,-4.999l-0.01,-5.204l2.307,-5.521l5.459,-7.841l5.069,-2.791l4.031,-3.308l1.474,-5.18l-1.125,-3.093l-2.122,-7.567l0.604,-5.291l4.781,-5.12l6.435,-2.487l3.99,-3.209l0.523,-6.767l-1.014,-8.027l2.407,-6.031l2.958,-2.951l3.189,-1.308l6.461,-4.471l2.584,-3.976l-0.823,-5.736l-0.766,-3.394l0.129,-3.598l2.937,-4.281l4.836,-2.773l2.636,-3.292l-1.334,-5.052l-2.349,-6.217l2.591,-6.74l3.944,-3.675l6.361,-2.847l5.886,-3.364l2.248,-3.442l-1.221,-4.228l-0.588,-5.76l-0.523,-5.071l3.217,-3.839l3.864,-3.482l3.515,-4.281l-0.33,-4.439l-1.793,-5.894l-0.604,-4.878l1.296,-5.58l2.129,-3.156l3.404,-2.114l2.766,-5.235l-0.766,-5.049l-1.079,-3.74l1.832,-6.037l2.471,-6.454l2.778,-6.112l-1.576,-3.376l-6.371,-1.8l-3.886,1.594l-2.962,5.709l-0.342,3.854l-3.079,4.334l-2.126,5.375l-5.175,6.065l-4.106,2.947l-2.148,2.932l-0.437,3.255l0.563,4.977l-2.74,3.252l-4.461,2.702l-3.802,1.952l0.665,4.461l-0.026,4.194l-0.442,3.808l-1.315,2.59l-4.319,2.092l-5.134,1.546l-3.346,2.8l-0.462,3.028l1.257,3.585l1.101,4.514l-1.864,3.923l-4.193,5.348l-5.311,5.023l-4.413,8.354l0.76,6.158l0.349,5.776l-2.191,6.895l-3.237,3.06l-5.346,1.803l-3.447,2.754l-0.904,5.739l0.623,5.102l-2.232,6.438l-2.281,4.094l-4.739,5.021l-6.064,2.963l-3.947,2.568l-0.611,8.055l3.398,5.627l-0.687,7.7l-2.246,4.548l-4.241,3.003l-3.357,3.346l-4.923,7.939l-0.423,4.589l0.087,4.461l-3.372,4.228l-2.976,4.374l-2.855,2.434l-3.273,3.162l-4.523,4.216l-1.889,4.252l1.492,5.771l2.213,4.063l0.982,3.146l-0.381,2.835l-1.059,5.015l-3.292,4.035l-2.32,1.977l-3.295,2.929l-2.894,3.084l-2.401,3.823l-0.429,5.143l-1.532,5.048l-1.699,7.085Z" style="fill:#159d37;"/><path d="M496.508,1002.64l11.435,-28.236l12.014,-22.307l9.477,-20.529l12.895,-31.297l8.296,-19.426l18.529,-33.61l9.572,-22.912l16.271,-32.931l6.278,-15.888l5.539,-17.553l3.523,-16.607l3.161,-4.136" style="fill:none;stroke:#0b8c39;stroke-width:2.7px;"/></g><g><path d="M349.64,960.507l42.838,17.123l0.188,-5.677l-0.446,-5.257l3.929,-5.558l5.791,-2.851l5.486,-2.963l4.842,-5.536l0.369,-6.38l1.573,-6.802l2.29,-5.751l5.217,-3.955l5.999,-0.886l7.624,-1.47l5.094,-3.121l0.685,-5.484l0.566,-5.755l2.639,-3.839l4.717,-3.044l6.202,-2.468l6.674,-0.292l5.573,-5.919l2.862,-5.198l0.998,-5.139l4.067,-2.854l6.277,-1.66l8.19,-5.014l3.592,-5.58l3.14,-5.308l6.538,-2.446l7.789,-2.96l3.944,-3.118l1.118,-5.981l0.985,-5.376l5.014,-5.138l6.302,-2.978l6.478,-1.474l5.213,-2.851l2.769,-9.105l1.967,-5.537l3.573,-4.15l5.356,-5.115l2.959,-5.716l0.53,-6.209l1.635,-6.662l2.203,-3.908l3.114,-3.88l4.116,-6.814l-0.033,-4.325l-0.445,-5.257l2.17,-8.232l1.816,-5.711l1.431,-5.636l-0.504,-3.734l-2.949,-1.473l-2.339,1.196l-1.948,4.107l-0.96,3.392l-2.48,4.573l-2.049,5.173l-3.198,5.733l-4.461,4.355l-3.773,4.073l-1.318,5.904l0.094,3.907l-3.729,2.87l-3.644,1.573l-5.049,1.918l-0.985,5.375l-0.562,4.094l-2.303,4.418l-4.953,1.399l-5.388,0.79l-4.594,1.653l-2.426,5.251l-0.449,4.919l-1.037,4.134l-3.76,2.409l-6.426,2.715l-6.002,2.546l-3.253,2.829l-2.245,3.451l-1.234,4.607l-2.281,4.094l-2.167,3.805l-3.687,3.326l-5.627,1.919l-5.727,0.218l-6.161,0.715l-1.822,3.823l-3.12,4.99l-1.47,3.519l-2.782,3.352l-3.967,3.441l-6.532,-0.317l-9.342,1.47l-4.623,1.975l-2.584,4.532l-1.635,5.009l-2.045,4.069l-2.794,4.228l-5.495,2.41l-8.338,2.082l-4.975,2.835l-4.083,4.278l-3.14,5.307l-1.906,3.466l-4.758,2.587l-6.028,3.973l-7.169,2.86l-5.114,2.341l-3.647,2.676l-3.89,4.909l4.261,6.293l1.538,4.026l-0.781,3.793l-4.064,5.614l-4.242,2.447l-4.239,1.899l-5.158,3.096Z" style="fill:#5bbc5b;"/><path d="M383.404,948.529l8.969,-16.745l18.622,-15.778l15.68,-12.597l18.373,-15.18l14.067,-13.048l10.751,-8.111l11.062,-7.992l10.191,-5.908l12.439,-4.859l6.732,-7.94l8.927,-11.057l10.452,-13.413l9.365,-12.967l8.875,-12.637l5.988,-11.334l8.069,-13.295l3.231,-7.735" style="fill:none;stroke:#43a453;stroke-width:2.7px;"/></g></g></g><path id="rock" d="M484.707,846.357l73.792,63.845l53.692,94.236l-31.096,86.427l-70.662,57.824l-92.902,30.282l-78.113,15.965l-95.087,1.239l-74.056,-66.839l-82.849,-76.232l-27.376,-122.452l-60.05,-36.766l1.586,-112.434l51.93,-50.519l53.514,-21.16l80.882,-19.61l84.144,36.737l94.507,9.076l19.861,76.092l98.283,34.289Z" style="fill:#797978;"/></svg>