<?xml version="1.0" encoding="UTF-8" standalone="no"?><!DOCTYPE svg PUBLIC "-//W3C//DTD SVG 1.1//EN" "http://www.w3.org/Graphics/SVG/1.1/DTD/svg11.dtd"><svg width="100%" height="100%" viewBox="0 0 903 996" version="1.1" xmlns="http://www.w3.org/2000/svg" xmlns:xlink="http://www.w3.org/1999/xlink" xml:space="preserve" xmlns:serif="http://www.serif.com/" style="fill-rule:evenodd;clip-rule:evenodd;stroke-linecap:round;stroke-linejoin:round;stroke-miterlimit:1.5;"><g id="seaweeds"><g id="_4big" serif:id="4big"><g><path d="M566.397,740.995l62.068,-40.224l-8.611,-8.785l-5.254,-6.82l-10.034,-1.585l-12.03,-8.761l-1.838,-14.577l2.211,-15.431l-11.517,-11.891l-13.491,-10.655l-11.517,-11.892l-1.048,-15.082l4.32,-19.56l-6.198,-11.856l-15.561,-11.043l-15.977,-19.208l-0.21,-20.1l6.401,-21.43l-3.94,-10.452l-13.307,-9.646l-8.951,-12.373l-1.916,-16.221l3.353,-11.653l1.899,-13.551l-8.238,-14.503l-8.179,-10.616l-4.926,-10.96l0.439,-15.447l2.938,-9.15l-1.189,-9.924l-13.41,-19.701l-2.88,-8.306l1.292,-12.056l2.525,-17.309l-4.555,-8.952l-11.423,-10.256l-6.911,-9.726l-1.733,-15.212l2.195,-13.168l-1.524,-16.468l-8.076,-11.238l-9.576,-8.615l-7.004,-9.09l-1.964,-11.7l-4.212,-13.09l-7.097,-10.735l-9.28,-8.233l-12.016,-11.012l-7.884,-10.232l-3.545,-10.709l-7.201,-10.102l-9.592,-6.354l-11.535,-9.629l-10.451,-9.751l-10.805,-14.021l-9.199,-6.6l-7.449,-4.329l-7.984,1.075l0.146,5.528l6.843,5.825l7.299,9.473l6.024,8.588l9.229,15.018l5.127,9.709l3.94,10.451l5.613,11.098l11.535,9.629l5.109,11.97l-0.017,12.94l3.778,7.187l8.196,8.353l6.523,7.708l2.173,10.443l-2.27,11.532l-3.939,10.905l2.416,4.663l6.946,5.201l5.075,5.817l3.475,6.808l3.505,4.548l1.588,9.684l-0.313,12.558l0.233,7.155l0.997,8.929l2.219,5.921l5.92,9.211l8.679,9.735l5.34,8.459l3.257,10.322l-1.482,11.039l-3.151,10.401l-3.922,8.642l1.813,6.166l6.518,9.973l7.484,10.482l4.34,10.202l-1.899,13.551l-3.151,10.4l-4.71,9.136l-0.769,8.909l0.793,10.181l8.197,8.353l9.096,7.223l6.626,7.085l3.065,9.317l0.511,9.8l-2.155,8.652l-3.643,11.277l-1.007,12.425l10.369,18.796l6.743,6.454l0.709,8.542l0.77,12.447l-0.77,8.909l-0.649,6.024l-0.225,14.186l7.092,10.73l8.428,4.841l8.341,3.202l8.719,5.218l9.744,11.876l2.039,13.325l-0.225,14.197l1.275,11.562l5.51,11.72l15.844,11.424l13.399,11.28l9.698,16.398l7.586,19.202Z" style="fill:#61ba5c;"/><path d="M588.112,715.043l-28.127,-46.751l-27.634,-45.625l-20.828,-38.739l-16.913,-39.037l-9.471,-33.269l-4.215,-27.923l-3.246,-31.05l-7.749,-28.595l-10.481,-25.807l-5.208,-30.177l-6.526,-30.439l-1.232,-24.038l-4.103,-27.281l-4.712,-22.224l-17.287,-25.854l-7.034,-23.28l-17.878,-30.524l-11.519,-29.1l-10.822,-23.794l-11.877,-17.371l-13.968,-17.149l-12.643,-16.891l-8.86,-9.554" style="fill:none;stroke:#38a65f;stroke-width:3.34px;"/></g><g><path d="M628.301,700.558l-13.316,-14.278l-19.159,-4.852l-13.176,-0.887l-7.221,-4.606l-6.648,-13.393l-3.656,-18.085l-7.065,-8.216l-16.814,-5.62l-11.652,-4.64l-12.102,-9.987l-3.102,-10.697l-4.798,-13.85l-6.544,-11.35l-8.66,-9.333l-18.899,-6.421l-12.409,-2.763l-8.425,-8.075l-4.693,-11.807l-3.232,-9.914l-3.339,-11.955l-7.409,-11.521l-12.121,-7.155l-14.729,-4.82l-11.001,-8.559l-6.548,-11.358l0.702,-9.57l-3.441,-13.996l-13.718,-8.272l-12.722,-8.886l-10.87,-9.343l-4.693,-11.808l-2.482,-11.798l-2.868,-9.44l-7.951,-5.553l-11.861,-8.723l-8.4,-10.901l-2.947,-14.306l-3.077,-13.522l-11.631,-7.472l-16.632,-12.055l-7.014,-13.865l-2.014,-22.626l-8.342,-16.545l-11.502,-8.256l-7.325,-6.647l-8.03,-10.421l-4.302,-14.159l-5.688,-11.194l-9.75,-10.747l-11.966,-10.764l-7.07,-8.223l-3.468,-11.17l-3.963,-10.861l-6.778,-12.609l-9.286,-8.239l-10.219,-13.262l-7.144,-13.082l-5.454,-9.937l-4.588,-9.766l-8.368,-0.377l-3.858,4.523l5.579,9.146l2.248,10.54l2.582,13.833l6.413,12.135l4.198,12.118l2.118,11.324l2.476,11.792l4.25,6.468l7.221,4.606l4.85,8.199l0.545,7.393l-1.198,9.879l0.652,9.423l8.056,7.595l9.306,5.408l4.749,6.164l1.774,8.018l-1.198,9.88l-2.554,10.027l4.979,7.415l5.345,7.888l8.816,5.724l5.604,6.321l3.754,6.778l2.399,6.925l2.009,9.276l3.368,9.136l4.223,9.294l6.935,8.998l7.456,5.865l8.321,6.034l6.83,6.958l6.466,6.484l4.979,7.415l1.147,9.113l0.892,10.688l-0.84,10.357l7.561,7.906l12.258,6.366l7.222,4.607l9.31,5.413l3.468,11.171l1.09,14.767l0.496,13.033l3.238,9.919l4.719,8.984l13.087,9.359l10.452,1.178l12.029,5.116l6.381,3.959l4.507,4.374l6.406,9.292l4.71,8.554l1.429,9.177l1.271,6.035l0.384,5.878l5.067,5.099l2.989,3.88l5.819,4.628l5.64,2.933l5.727,1.088l4.799,6.711l6.581,10.981l3.776,7.341l3.216,6.615l8.415,10.92l7.942,6.888l8.833,5.616l7.28,4.07l8.424,2.64l11.053,4.582l9.293,4.252l2.765,7.975l2.624,8.784l3.116,11.354l5.162,7.195l6.252,6.156l7.638,6.009l5.754,5.026l11.892,9.088l8.649,5.376l6.812,6.883l4.736,5.663l6.062,5.909l2.605,4.843l61.749,-40.196Z" style="fill:#8da945;"/><path d="M576.581,702.832l-47.291,-41.856l-39.668,-39.887l-29.02,-32.165l-29.405,-33.28l-41.984,-53.27l-32.327,-41.34l-30.332,-43.031l-20.734,-34.219l-28.433,-44.221l-19.826,-20.848l-11.949,-11.852l-15.036,-27.436l-8.314,-21.767l-9.545,-24.594l-15.553,-31.162l-15.155,-23.322l-10.749,-13.951l-14.23,-28.845l-5.096,-12.095" style="fill:none;stroke:#809943;stroke-width:3.34px;"/></g><g><path d="M457.565,808.882l72.415,-46.078l-6.063,-5.909l-11.402,-7.971l-6.674,-7.681l-2.188,-8.702l2.653,-7.77l2.095,-8.508l-1.054,-8.691l-2.765,-7.974l-8.374,-8.426l-7.407,-3.268l-10.714,-6.594l-8.706,-6.417l-3.233,-12.001l-3.109,-11.358l-3.139,-8.462l-10.931,-10.777l-9.149,-6.496l-10.212,-6.908l-10.921,-5.388l-8.609,-9.71l-4.444,-10.166l-1.723,-11.504l-1.228,-10.38l-5.661,-8.325l-7.156,-3.426l-11.779,-1.618l-11.879,-3.708l-6.755,-5.841l-8.835,-5.606l-4.527,-8.315l-4.803,-12.095l-4.464,-8.718l-5.369,-5.988l-10.154,-5.867l-13.268,-3.551l-9.976,-5.623l-10.002,-9.56l-4.464,-7.267l-3.057,-10.312l-5.307,-6.392l-6.95,-4.632l-7.796,-2.312l-8.717,-4.969l-8.831,-7.061l-5.857,-13.945l-2.688,-9.832l-7.115,-7.772l-12.959,-2.666l-7.971,-4.002l-10.047,-3.77l-7.933,-8.336l-4.691,-11.453l-3.868,-10.882l-3.457,-7.906l-5.529,-9.121l-9.827,-7.871l-9.167,-3.608l-10.037,-5.219l-6.094,-9.853l-3.118,-9.908l-5.734,-7.924l-5.337,-8.885l-7.655,-4.555l-7.19,-5.924l-8.383,-6.977l-8.235,-9.224l-2.38,-8.938l-2.574,-7.738l-6.094,-9.853l-5.855,-7.116l-6.879,-6.486l-5.964,-9.203l-3.942,-10.48l-5.928,-13.555l-3.253,-9.102l-4.731,-0.279l-1.451,7.384l-1.109,10.767l5.529,9.119l2.348,11.833l3.048,11.762l5.461,9.528l3.443,16.178l3.977,12.979l4.568,10.799l9.134,7.95l5.687,12.262l2.549,17.46l11.322,9.811l8.871,8.105l4.676,12.895l0.854,9.894l2.446,8.54l6.232,7.603l14.392,5.01l7.839,11.636l8.086,11.473l4.007,10.083l8.41,10.913l17.824,8.981l14.12,6.615l8.373,8.425l6.54,8.488l1.362,9.574l0.428,8.361l4.726,7.112l10.546,4.9l14.818,6.544l9.467,5.941l5.169,7.191l3.518,7.503l1.463,13.11l1.613,9.417l6.103,8.404l14.962,4.3l15.41,4.373l11.49,4.665l8.374,8.425l2.188,8.702l0.854,9.893l3.474,6.453l5.62,5.831l8.819,7.059l9.333,6.747l6.313,5.752l5.688,12.263l3.088,7.416l1.414,10.619l5.21,9.686l7.232,8.419l8.341,4.482l11.338,1.527l7.899,4.403l12.488,6.926l5.48,6.63l1.578,6.929l-0.717,9.8l0.479,9.407l-1.401,8.429l3.708,7.75l7.238,8.414l8.317,7.373l6.272,10.098l5.605,7.274l2.945,9.67l-2.417,9.067l-2.028,8.1l4.141,9.276" style="fill:#38a65f;"/><path d="M488.635,760.62l-26.317,-50.549l-34.018,-52.344l-35.244,-44.956l-54.271,-59.505l-23.584,-18.897l-25.448,-24.042l-34.851,-33.13l-52.767,-47.787l-18.777,-20.466l-25.537,-31.181l-13.006,-22.349l-19.846,-24.972l-18.975,-26.961l-19.15,-27.986l-17.833,-25.089l-12.38,-19.576l-3.77,-12.308l-5.629,-13.166" style="fill:none;stroke:#62a754;stroke-width:3.34px;"/></g><g><path d="M400.151,844.758l47.781,-29.188l-5.796,-5.027l-4.733,-4.395l-1.671,-8.159l0.277,-9.38l-0.531,-8.691l-5.705,-8.394l-7.502,-5.99l-10.545,-3.698l-15.679,-14.854l-5.998,-11.53l2.668,-13.272l-3.382,-11.138l-7.575,-8.33l-10.655,-6.582l-15.443,-5.055l-11.732,-12.72l-5.902,-11.406l-2.154,-17.794l-2.704,-11.746l-6.546,-7.502l-16.266,-7.859l-10.037,-6.787l-8.404,-12.408l-4.004,-10.94l0.915,-11.8l-9.432,-13.246l-11.228,-3.829l-10.672,-8.602l-8.53,-9.568l-2.328,-13.27l0.191,-6.747l-10.168,-12.439l-8.717,-4.969l-11.436,-11.904l-4.387,-9.113l-3.006,-16.106l-3.761,-8.785l-9.401,-6.338l-12.271,-2.752l-9.2,-7.542l-5.78,-8.963l-0.623,-13.992l-0.843,-11.343l-3.299,-11.603l-9.894,-7.463l-12.801,-6.365l-8.14,-5.694l-7.563,-14.686l-3.545,-11.44l-7.999,-7.939l-12.406,-8.776l-12.116,-4.994l-8.066,-7.53l-7.567,-13.241l-6.571,-12.431l-7.757,-6.647l-11.622,-3.869l-16.233,-17.163l-8.334,-12.761l-11.203,-9.173l-9.251,5.082l-2.869,10.427l4.517,2.923l6.564,5.595l1.127,8.29l1.837,5.322l15.884,20.614l1.938,8.859l4.126,10.72l5.261,10.731l7.782,3.755l7.347,3.672l4.268,8.476l0.912,10.935l1.105,9.736l5.819,4.628l10.309,3.614l6.077,4.467l4.1,6.783l-0.303,11.33l-1.745,11.886l3.275,7.656l10.411,5.705l9.976,5.623l9.37,9.235l5.177,12.582l4.219,14.26l7.399,11.546l9.394,6.344l14.008,5.973l10.988,11.819l6.781,9.779l-0.415,10.687l-0.065,7.227l3.699,9.199l5.554,6.228l10.906,6.83l10.944,9.335l5.605,7.273l3.618,11.039l-0.101,11.578l0.463,10.85l5.276,9.287l12.467,8.373l13.073,4.76l12.056,5.398l5.779,8.963l2.081,13.443l3.644,14.977l8.667,10.752l10.078,7.713l9.058,9.796l5.772,8.968l3.48,13.289l3.587,13.935l5.209,9.685l9.679,10.118l16.138,6.795l15.214,4.131l6.627,6.642l6.484,14.275l1.964,12.796l1.804,9.664l7.423,8.655l9.267,7.144l6.063,5.909l1.889,6.369l-0.759,5.478Z" style="fill:#1a9e39;"/><path d="M415.059,814.486l-17.346,-26.884l-16.428,-34.125l-13.735,-15.332l-22.294,-32.992l-17.854,-20.351l-7.461,-12.816l-24.878,-33.21l-16.392,-24.721l-33.264,-46.602l-14.949,-19.4l-35.484,-47.289l-16.268,-24.558l-9.111,-9.945l-21.219,-31.596l-12.582,-22.268l-33.95,-46.865l-16.483,-14.525l-24.678,-23.908l-20.973,-23.457l-17.168,-23.534l-8.277,-16.681" style="fill:none;stroke:#0a8c34;stroke-width:3.34px;"/></g><path d="M602.888,697.341l-10.549,-32.748l-6.85,-36.682l-2.42,-30.932l-7.209,-31.848l-1.043,-26.965l-1.174,-30.569l0.479,-35.289l0.688,-25.972l2.36,-24.729l2.928,-20.247l2.01,-16.449l2.549,-17.931l2.498,-13.311" style="fill:none;stroke:#71893d;stroke-width:3.34px;"/></g><g id="_4small" serif:id="4small"><g><path d="M630.775,700.413l-4.336,-2.623l0.193,-3.248l1.051,-4.891l-3.288,-4.761l-6.203,-6.052l-6.75,-6.269l0.129,-10.575l5.237,-8.437l0.285,-5.883l-6.199,-7.536l-7.617,-6.648l-5.67,-8.598l1.066,-7.115l3.475,-8.988l3.205,-8.085l-4.752,-6.414l-6.293,-3.418l-3.797,-5.173l1.073,-6.194l2.318,-10.476l4.293,-6.921l-2.568,-5.578l-4.33,-6.128l-3.776,-6.649l0.77,-7.486l5.663,-8.145l0.041,-4.451l-4.25,-5.255l-4.819,-6.006l2.368,-7.918l6.918,-8.018l-0.569,-4.983l-6.941,-10.756l-1.071,-6.14l2.811,-7.84l7.475,-8.55l-0.813,-6.301l-4.813,-10.241l-1.642,-4.129l1.932,-5.991l5.451,-10.417l-2.322,-3.51l-0.801,-4.29l-2.346,-4.793l-1.943,-6.517l-0.136,-6.168l2.688,-7.763l1.987,-5.66l-2.285,-4.466l-0.479,-7.618l0.116,-5.594l0.896,-6.083l1.019,-6.17l-0.857,-4.61l-3.725,-2.092l-3.868,2.981l-1.478,6.072l-2.295,7.517l-3.144,4.913l-1.988,5.67l-1.214,5.917l-2.872,3.271l-2.06,6.072l-0.084,6.132l1.419,4.085l-1.145,4.767l-4.134,3.879l-3.618,3.555l0.299,5.882l1.569,1.788l2.307,4.991l-0.891,6.089l-5.854,4.399l-4.521,4.12l-1.403,4.928l0.321,3.667l2.414,4.386l1.779,3.301l0.576,4.247l-3.221,6.067l-3.066,7.26l-1.372,8.218l2.583,4.097l2.296,6.479l3.067,3.236l2.168,6.559l-1.565,5.213l-3.289,6.476l-6.203,4.443l0.778,6.506l2.115,5.486l3.36,6.371l2.279,5.201l-0.453,4.151l-3.424,6.56l-5.418,6.703l-2.836,6.567l1.052,4.863l5.461,6.344l5.015,6.248l3.404,4.678l0.046,6.051l-3.151,5.649l-3.479,6.229l2.401,9.367l1.814,6.598l2.692,5.49l0.785,5.771l-0.617,5.543l-2.631,5.333l-1.742,6.237l0.723,6.186l2.693,4.749l3.729,5.582l5.365,2.719l4.643,4.277l3.677,3.767l-0.237,4.94l1.24,5.852l-0.475,5.636l0.066,6.587l1.386,3.547l3.606,4.928l3.365,2.865l2.838,3.187l0.955,5.482l0.508,4.655l39.885,-22.961Z" style="fill:#8eaa46;"/><path d="M601.621,694.575l-9.938,-33.824l-7.898,-36.487l-4.627,-31.617l-1.085,-18.888l-4.055,-23.694l-1.479,-28.77l1.383,-26.639l-1.574,-35.146l1.335,-18.567l5.76,-28.004l2.374,-25.652l2.935,-21.175" style="fill:none;stroke:#71893d;stroke-width:3.34px;"/></g><g><path d="M452.282,598.359l9.705,13.613l14.809,-25.726l-1.996,-16.739l-6.103,-8.405l2.66,-7.774l9.008,-6.364l-4.326,-9.517l-6.766,-11.222l-2.312,-9.345l5.598,-4.94l-0.335,-11.661l-9.936,-9.957l-10.213,-6.909l-2.497,-9.586l4.323,-10.98l-1.187,-7.885l-6.245,-6.161l-9.092,-5.455l-5.117,-6.145l0.189,-6.593l1.107,-10.756l-5.101,-7.599l-8.383,-6.976l-6.046,-7.363l0.281,-9.882l-5.035,-7.997l-7.757,-6.646l-3.95,-9.031l2.011,-6.657l-0.693,-6.762l-8.074,-6.092l-6.077,-4.467l-3.577,-8.544l0.791,-10.202l0.075,-8.686l-2.456,-7.09l-7.823,-6.25l-4.543,-6.861l-0.669,-9.654l0.123,-6.184l-3.857,-5.502l-5.739,-6.468l-2.337,-6.453l2.837,-7.531l-1.314,-7.085l-2.205,-7.247l-1.552,-9.821l1.04,-10.359l-0.759,-6.364l-5.435,1.25l-2.387,6.17l-3.337,13.24l-2.777,13.966l-1.96,14.532l0.652,4.266l3.999,4.692l-0.669,4.017l-3.543,7.606l0.151,4.581l4.365,5.183l3.499,3.561l0.217,4.184l-5.188,7.915l-0.729,4.42l0.078,4.983l7.706,5.601l3.323,8.712l-0.666,10.845l0.253,6.672l5.929,6.715l8.582,5.773l6.346,9.696l-2.018,6.652l-1.401,8.428l4.351,6.626l8.014,6.496l5.614,5.824l1.646,6.522l-6.05,13.139l1.577,6.929l6.786,2.945l8.327,5.925l6.195,5.115l-1.642,7.138l-1.772,7.948l5.087,9.042l7.447,5.762l1.254,7.488l-2.309,11.154l-3.013,5.841l2.624,8.784l10.151,7.312l5.517,3.74l6.355,8.247l-6.03,10.241l-4.749,9.449l3.057,10.312l3.818,9.837l4.674,6.066l6.252,6.156l2.817,9.02l0.369,7.32l8.158,4.242Z" style="fill:#a9cc4c;"/><path d="M455.448,577.732l-6.599,-49.855l-7.34,-26.705l-3.968,-25.134l-6.144,-20.779l-13.591,-23.252l-18.106,-35.375l-10.535,-22.405l-7.04,-15.389l-14.1,-24.54l-6.862,-12.037l-0.456,-12.143l1.631,-10.69l-2.916,-12.219l-4.742,-15.212l-5.488,-17.735l-1.847,-14.264" style="fill:none;stroke:#9cbb48;stroke-width:3.34px;"/></g><g><path d="M533.505,761.125l25.849,-16.633l-2.66,-3.047l-3.742,-0.456l-2.219,-2.881l-1.193,-5.15l0.589,-5.227l0.49,-5.762l-0.239,-4.708l-6.441,-4.364l-7.063,-1.165l-7.81,-4.536l-3.543,-7.208l-0.043,-7.641l4.978,-7.533l-5.248,-4.813l-7.589,-2.461l-6.288,-1.959l-5.574,-3.436l-4.439,-5.761l-4.916,-10.178l0.238,-6.479l-0.975,-5.873l-4.604,-4.774l-4.024,-1.019l-9.447,-3.069l-5.276,-4.054l-2.437,-7.757l1.434,-7.526l-0.895,-5.769l-6.908,-4.957l-9.233,-4.386l-4.921,-6.19l-1.275,-4.657l0.628,-3.78l-0.673,-8.862l-2.61,-4.993l-6.66,-3.043l-4.12,-1.547l-3.766,-2.499l-2.711,-5.517l0.109,-6.254l-1.845,-4.588l-6.254,-2.124l-8.146,-1.968l-5.562,-6.828l-1.423,-6.036l1,-7.697l0.145,-7.604l-2.252,-4.333l-5.3,-1.683l-6.537,-3.275l-5.757,-2.877l-2.062,-5.481l-1.266,-5.834l-2.345,-6.046l-4.959,-2.636l-7.447,-2.263l-5.603,-2.676l-5.145,-4.878l-2.022,-4.034l-0.096,-4.508l-3.843,-5.992l-5.888,-2.642l-4.688,-1.489l-5.294,-5.67l-5.333,-6.529l-4.771,-6.584l-4.616,-0.793l-5.977,4.63l-0.766,4.606l4.222,6.484l3.906,2.864l2.679,5.682l4.398,5.499l3.197,8.744l0.541,5.701l1.771,3.904l3.204,2.552l5.683,2.78l1.737,4.656l0.052,5.865l-0.331,4.766l5.196,2.345l4.471,2.799l3.792,2.924l1.935,2.915l-0.509,5.332l-1.612,5.714l0.867,4.91l2.946,2.427l4.634,1.224l5.531,1.981l3.011,4.3l3.054,7.37l1.996,8.178l6.131,9.561l7.071,3.381l6.402,3.504l5.983,6.564l1.215,4.983l-1.472,6.078l0.754,4.973l5.564,4.625l5.855,2.806l5.468,6.302l2.93,4.793l2.356,7.654l-0.687,7.501l0.236,5.306l8.23,5.889l8.181,0.618l7.802,5.726l3.437,5.061l0.515,5.863l1.444,5.282l5.363,9.753l4.64,3.424l4.829,2.872l2.377,5.88l2.787,5.614l0.788,4.22l1.301,5.082l1.633,6.923l3.348,4.541l7.122,2.456l5.755,0.666l3.991,1.186l2.79,2.225l4.692,4.286l2.223,5.678l0.64,3.428l1.036,4.949l1.458,4.686l2.565,4.724l5.228,3.796l4.427,4.74l6.5,6.241Z" style="fill:#159d37;"/><path d="M539.151,738.378l-22.934,-29.137l-16.223,-25.74l-15.935,-22.246l-25.282,-32.497l-15.506,-20.436l-24.171,-39.175l-18.424,-23.909l-24.881,-36.663l-13.004,-16.251l-15.256,-16.679l-15.527,-14.209l-2.413,-5.626" style="fill:none;stroke:#0b8c39;stroke-width:3.34px;"/></g><g><path d="M400.648,844.697l45.571,-27.813l-5.955,-3.928l-5.908,-3.072l-3.448,-7.268l0.635,-7.179l0.32,-6.973l-2.843,-8.089l-6.591,-4.559l-6.277,-5.939l-4.696,-5.899l-0.913,-7.384l2.869,-6.069l3.277,-7.939l-0.098,-6.721l-5.432,-4.255l-5.797,-4.325l-2.429,-4.953l-0.256,-6.323l1.305,-7.302l3.932,-6.292l-2.786,-9.009l-3.742,-6.055l-4.862,-4.314l-0.466,-5.605l2.218,-6.833l-0.157,-10.802l-3.684,-6.976l-3.681,-6.381l1.542,-7.594l1.788,-9.076l-0.827,-5.668l-5.688,-4.98l-5.124,-4.457l-2.309,-7.982l0.823,-7.731l2.544,-6.894l0.267,-6.65l-7.981,-8.556l-4.672,-5.462l-2.167,-6.012l-2.065,-8.278l-4.234,-6.488l-6.305,-4.593l-6.088,-5.903l-2.779,-4.599l-2.17,-5.413l-4.673,-8.271l-4.648,-2.832l-5.907,-3.073l-7.426,-7.431l-4.956,-5.439l-5.119,-5.038l-4.315,-2.011l-3.453,1.721l-0.207,2.929l3.155,4.498l3.018,3.121l3.315,5.294l4.23,5.295l4.099,6.716l1.823,6.959l1.957,6.144l5.477,5.111l4.241,2.501l0.698,5.305l-0.636,4.371l-1.159,5.883l5.124,4.457l4.023,3.223l3.261,5.029l-1.653,5.451l-2.583,5.447l-1.154,5.291l4.075,5.693l4.976,3.665l3.765,3.684l0.185,5.03l-1.184,7.668l-1.095,7.169l0.958,4.846l2.265,4.335l4.143,4.176l2.93,4.793l2.692,4.5l1.213,5.57l-1.527,6.411l-3.41,5.378l-3.154,6.103l2.932,4.195l3.353,6.154l2.829,3.672l1.817,4.759l1.158,5.903l-4.494,5.759l-4.371,9.51l-0.827,5.53l3.205,5.361l4.319,4.809l3.052,4.562l2.746,5.351l-0.917,6.616l-3.076,8.997l-0.131,6.422l1.979,6.563l3.679,6.381l2.497,4.035l-0.26,6.06l0.416,8.137l-1.5,8.444l-0.749,6.222l0.544,5.104l2.778,6.803l9.442,0.271l5.286,1.26l3.56,3.223l3.421,7.429l-0.08,5.496l-0.665,5.13l0.032,6.763Z" style="fill:#5bbc5b;"/><path d="M409.311,805.918l-12.209,-19.279l-5.034,-27.458l-3.503,-22.664l-4.554,-26.836l-5.01,-21.488l-1.839,-15.193l-1.514,-15.396l0.162,-13.224l2.715,-14.581l-4.213,-11.406l-6.15,-15.475l-7.701,-18.427l-7.916,-17.14l-7.874,-16.472l-8.318,-12.973l-9.091,-16.171l-6.22,-8.073" style="fill:none;stroke:#43a453;stroke-width:3.34px;"/></g></g></g><g id="seaweeds1" serif:id="seaweeds"><g id="_4big1" serif:id="4big"><g><path d="M659.022,607.062l-52.972,6.223l-0.187,-9.657l-0.878,-6.785l4.32,-5.956l1.584,-11.34l-6.702,-9.836l-9.231,-8.345l-0.323,-13.003l1.34,-13.225l-0.324,-13.001l-7.372,-9.753l-12.479,-9.825l-3.035,-10.337l2.198,-14.491l-1.87,-19.697l-10.436,-12.406l-14.528,-9.937l-3.459,-8.355l1.774,-12.516l-1.894,-12.021l-7.523,-10.881l-7.834,-5.467l-8.084,-7.35l-3.376,-12.97l-1.368,-10.562l-3.22,-9.156l-8.328,-9.236l-6.308,-4.141l-4.595,-6.666l-3.446,-18.722l-2.879,-6.515l-6.987,-6.736l-10.376,-9.341l-2.357,-7.742l0.487,-11.954l-1.553,-9.388l-7.088,-10.171l-8.035,-6.969l-7.855,-10.837l-1.747,-10.892l0.398,-10.031l-1.171,-9.044l-5.129,-8.137l-4.702,-10.106l-1.988,-10.097l0.448,-9.65l0.394,-12.711l-1.318,-10.181l-3.797,-8.316l-1.601,-9.762l1.594,-8.655l0.872,-11.626l0.252,-11.161l-1.806,-13.952l1.262,-8.611l1.555,-6.351l4.663,-3.308l2.825,3.455l-0.458,6.965l1.22,9.426l1.411,8.25l3.138,13.778l2.46,8.49l3.459,8.355l2.938,9.581l-0.872,11.626l3.655,9.866l6.796,7.912l1.83,6.276l0.172,9.185l0.694,7.96l4.361,7.471l7.214,5.932l7.743,4.715l1.206,4.056l-0.839,6.635l0.445,6.082l1.786,5.894l0.586,4.526l4.264,6.715l6.747,7.532l3.633,4.495l4.173,5.959l1.966,4.728l1.791,8.58l0.65,10.271l1.695,7.831l3.741,7.936l6.551,6.02l7.074,4.8l6.548,3.341l2.302,4.676l1.884,9.342l1.656,10.135l3.121,8.401l8.084,7.35l7.074,4.8l7.209,3.252l5.069,5.071l4.932,6.625l0.173,9.187l-0.883,8.94l0.313,7.63l3.314,7.225l4.878,6.253l5.645,4.223l7.786,5.092l7.034,7.105l4.534,16.657l-0.077,7.302l4.117,5.58l6.133,8l5.068,5.072l3.494,3.365l7.555,8.571l1.987,10.09l-1.788,7.152l-2.605,6.105l-1.74,7.526l1.226,12.111l5.942,9.17l7.562,8.577l5.41,7.711l3.318,9.911l-2.144,14.865l-0.964,13.563l3.621,14.856l6.177,15.523Z" style="fill:#61ba5c;"/><path d="M634.258,601.964l-10.078,-42.591l-9.741,-41.658l-9.624,-34.061l-11.79,-32.297l-12.587,-25.07l-12.482,-19.185l-14.621,-20.618l-11.018,-21.353l-8.154,-21.004l-13.155,-21.058l-12.615,-21.874l-11.976,-15.326l-12.202,-18.736l-9.238,-15.944l-4.684,-24.414l-8.598,-17.746l-6.83,-27.566l-9.349,-23.536l-6.924,-19.942l-3.012,-16.533l-1.822,-17.437l-2.367,-16.621l-0.462,-10.251" style="fill:none;stroke:#38a65f;stroke-width:2.34px;"/></g><g><path d="M606.023,613.07l-0.652,-15.354l7.294,-12.492l6.301,-7.089l1.292,-6.408l-3.611,-11.501l-7.609,-12.886l-0.681,-8.539l5.686,-11.796l3.55,-8.63l0.976,-12.126l-4.018,-8.089l-4.8,-10.861l-2.594,-10.2l-0.448,-10.015l6.337,-13.322l4.923,-7.856l0.09,-9.129l-3.783,-9.56l-3.54,-7.674l-4.557,-8.976l-2.238,-10.734l2.472,-10.402l5.035,-10.27l1.16,-10.705l-2.595,-10.205l-5.38,-5.509l-5.574,-10.276l2.705,-11.88l1.872,-11.761l0.682,-11.121l-3.784,-9.558l-4.914,-8.455l-3.478,-7.203l1.17,-7.35l1.515,-11.234l-1.404,-10.846l-5.991,-10.22l-5.513,-9.806l2.054,-10.353l2.218,-15.643l-3.672,-11.972l-10.834,-14.849l-4.393,-14.273l1.576,-10.768l0.275,-7.709l-1.343,-10.368l-5.218,-10.804l-2.95,-9.679l-0.63,-11.422l0.498,-12.535l-0.682,-8.546l-4.079,-8.561l-3.661,-8.616l-3.133,-11.086l0.447,-9.657l-1.709,-13.196l-3.194,-11.556l-2.411,-8.793l-2.767,-8.258l4.1,-4.388l4.353,0.851l1.932,8.37l4.375,7.569l5.93,9.749l3.071,10.615l4.202,9.503l4.852,7.983l4.913,8.448l1.21,6.07l-1.292,6.408l1.811,7.429l3.596,4.796l5.798,5.451l4.607,6.092l-0.152,8.652l-1.943,7.934l0.795,6.133l3.295,5.789l5.797,5.452l6.571,4.868l1.333,7.013l1.393,7.484l-1.525,7.885l0.437,6.653l1.627,6.014l2.401,5.431l3.834,6.676l3.063,7.265l2.705,7.787l1.16,8.954l-0.753,7.294l-1.108,7.828l0.142,7.653l0.081,7.181l1.333,7.013l4.19,6.149l5.148,6.984l5.865,5.922l0.264,8.596l-2.956,9.988l-1.292,6.408l-1.942,7.941l4.079,8.561l7.187,9.58l6.58,8.223l3.541,7.68l2.288,7.844l-1.81,12.232l-4.751,5.915l-3.494,9.108l-1.199,5.594l-0.02,4.916l1.584,8.871l2.069,7.577l4.08,6.327l2.512,4.325l2.886,3.788l0.073,5.64l0.5,3.86l-0.561,5.724l-1.358,4.597l-2.37,3.513l1.056,6.491l2.38,9.993l1.913,6.37l1.817,5.647l1.407,10.864l-0.466,8.162l-1.591,7.827l-1.604,6.108l-2.939,5.804l-3.274,8.297l-2.541,7.22l2.763,6.254l3.261,6.681l4.354,8.497l1.124,6.969l0.018,6.875l-0.77,7.474l-0.319,5.934l-1.339,11.473l-1.622,7.588l0.112,7.599l0.539,5.818l-0.013,6.63l1.201,4.258l-52.792,6.081Z" style="fill:#8da945;"/><path d="M633.774,588.768l2.33,-49.12l-0.552,-44.125l-1.969,-34.108l-2.356,-34.982l-6.382,-53.467l-5.084,-41.367l-6.995,-41.411l-7.301,-31.248l-8.595,-41.195l-0.754,-22.612l-0.08,-13.192l-6.671,-24.265l-7.148,-17.454l-7.998,-19.797l-8.358,-26.802l-4.451,-21.805l-1.798,-13.88l-7.823,-24.727l-3.727,-9.935" style="fill:none;stroke:#809943;stroke-width:2.34px;"/></g><g><path d="M750.517,594.533l-61.355,7.781l0.014,-6.63l1.674,-10.545l-0.602,-8.018l-3.441,-6.413l-5.438,-3.437l-5.538,-4.167l-4.018,-5.843l-2.762,-6.255l-0.12,-9.318l2.089,-5.681l2.043,-9.36l1.105,-8.255l-4.635,-8.951l-4.361,-8.497l-2.825,-6.739l-0.041,-12.028l1.292,-8.523l1.62,-9.302l2.782,-8.724l-0.672,-10.222l-3.051,-8.43l-5.149,-7.897l-4.813,-6.964l-1.46,-7.909l1.877,-5.653l5.2,-6.842l4.156,-8.174l0.404,-6.932l1.597,-7.822l-2.037,-7.338l-3.877,-9.79l-2.28,-7.555l-0.385,-6.333l2.137,-8.636l4.951,-8.767l2.173,-8.399l0.122,-10.822l-1.52,-6.665l-3.839,-7.832l-0.628,-6.549l1.14,-6.289l2.791,-5.289l1.87,-7.373l0.831,-8.71l-4.307,-11.446l-3.777,-7.353l-0.423,-8.292l5.256,-8.072l1.994,-6.411l3.182,-7.3l-0.299,-9.044l-3.598,-9.341l-3.721,-8.582l-2.373,-6.558l-1.944,-8.329l0.918,-9.702l2.815,-6.764l2.417,-8.182l-2.04,-9.058l-3.595,-7.614l-1.212,-7.699l-1.919,-8.09l1.541,-6.593l0.584,-7.199l0.646,-8.436l-0.61,-9.737l-3.465,-6.653l-2.738,-6.016l-2.039,-9.059l-0.726,-7.266l0.131,-7.387l-1.764,-8.597l-3.473,-8.373l-4.066,-11.242l-3.105,-7.188l2.284,-2.522l4.618,3.798l6.217,6.04l1.945,8.329l5,8.409l4.605,8.714l2.193,8.545l6.718,11.614l4.766,9.92l3.318,8.88l-0.52,9.404l3.511,10.332l7.849,11.953l-0.668,11.632l-0.304,9.368l4.363,10.217l4.751,6.479l3.223,6.443l0.788,7.75l-4.762,10.219l2.077,11.018l1.865,11.04l3.232,8.162l1.406,10.859l-4.443,14.354l-3.781,11.066l0.12,9.317l1.093,8.444l4.322,6.538l4.166,5.33l1.304,6.702l-2.845,8.24l-4.178,11.368l-1.745,8.341l1.118,6.969l2.129,6.341l6.126,8.751l4.111,6.566l1.274,8.177l-5.428,10.066l-5.619,10.334l-3.455,8.565l0.12,9.318l3.441,6.413l4.75,6.48l1.602,5.677l0.172,6.36l-0.826,8.704l-1.254,8.767l-0.225,6.658l3.512,10.331l2.303,6.074l4.845,7.203l2.405,8.517l0.702,8.747l-1.933,6.889l-5.02,6.569l-1.747,6.619l-2.78,10.445l0.663,6.781l2.825,5.025l5.508,5.642l4.688,5.996l5.141,4.463l2.161,6.586l0.696,8.747l-0.403,8.646l2.076,9.298l0.937,7.237l3.559,7.381l5.998,4.348l5.289,3.951l2.74,7.736" style="fill:#38a65f;"/><path d="M709.248,580.432l-13.001,-44.017l-9.987,-48.942l-5.482,-45.03l-3.342,-63.39l2.198,-23.286l0.456,-27.361l0.521,-37.597l2.031,-55.469l-1.093,-21.857l-3.242,-31.775l-5.044,-20.143l-2.907,-25.146l-4.399,-25.931l-4.845,-26.646l-4.001,-24.217l-3.912,-18.134l-4.519,-9.408l-4.016,-10.854" style="fill:none;stroke:#62a754;stroke-width:2.34px;"/></g><g><path d="M798.817,587.961l-39.845,5.879l0.339,-5.958l0.126,-5.042l-3.423,-5.825l-5.061,-5.603l-4.286,-5.583l-1.474,-7.973l0.711,-7.393l3.474,-7.504l0.262,-16.884l-2.968,-10.036l-8.333,-6.799l-4.104,-8.498l-0.479,-8.862l2.018,-9.323l5.278,-10.769l-0.647,-13.615l-2.951,-9.914l-8.228,-11.962l-4.772,-8.533l-0.574,-7.844l4.23,-12.894l1.594,-9.141l-2.191,-11.771l-3.683,-8.686l-6.659,-6.768l-2.105,-12.794l3.758,-7.923l0.968,-10.567l-0.638,-10.096l-5.765,-9.279l-3.638,-4.035l-1.303,-12.666l1.871,-7.373l-0.372,-12.968l-2.527,-7.759l-6.905,-11.352l-2.676,-7.245l1.503,-8.551l4.857,-7.782l0.769,-9.189l-1.733,-8.358l-7.02,-8.873l-5.516,-7.361l-4.393,-8.742l1.167,-9.485l3.235,-10.256l1.193,-7.531l-3.819,-12.748l-4.181,-8.763l-0.056,-8.833l1.767,-11.537l3.602,-9.077l0.193,-8.617l-3.06,-11.865l-3.145,-10.873l0.497,-7.923l3.938,-8.145l-0.667,-18.571l-2.413,-11.951l0.941,-11.182l7.416,-1.486l6.942,4.956l-0.785,4.033l-0.436,6.687l3.769,5.633l1.848,4.172l2.656,20.51l3.652,6.385l3.504,8.612l2.927,9.182l-2.027,6.165l-1.846,5.899l2.254,7.308l5.267,7.146l4.54,6.508l-0.561,5.725l-3.398,7.335l-0.778,5.754l1.452,6.189l6.099,6.784l7.13,6.409l2.334,6.313l-2.353,8.665l-2.173,8.399l0.032,10.309l3.94,10.273l5.314,10.825l2.257,10.744l-1.497,8.551l-4.06,10.617l0.557,12.694l1.647,9.355l5.819,6.335l3.824,4.391l2.926,7.469l0.415,6.571l-2.018,9.599l-0.724,11.153l0.936,7.237l3.933,8.554l6.125,7.036l5.452,6.872l2.163,8.307l-2.01,11.319l-4.217,9.41l-3.359,9.294l1.733,8.358l5.983,9.263l5.985,10.977l1.189,10.888l-1.13,9.729l0.487,10.497l1.74,8.357l5.182,9.863l5.468,10.311l2.406,8.518l0.337,11.002l-4.724,12.178l-5.645,10.089l0.08,7.358l4.159,11.96l5.703,8.808l4.143,6.811l0.728,8.986l-1.012,8.978l-0.014,6.63l2.371,4.836l3.262,2.976Z" style="fill:#1a9e39;"/><path d="M775.284,576.841l-5.195,-25.074l-9.463,-29.052l-0.988,-16.209l-5.857,-31.271l-1.506,-21.329l-2.891,-11.552l-4.646,-32.689l-4.548,-23.277l-7.362,-45.052l-2.5,-19.304l-6.582,-46.576l-4.528,-23.115l-0.537,-10.615l-5.678,-29.883l-5.219,-19.883l-7.148,-45.554l0.846,-17.081l0.133,-26.896l-1.535,-24.78l-3.527,-22.935l-4.5,-14.324" style="fill:none;stroke:#0a8c34;stroke-width:2.34px;"/></g><path d="M617.385,598.479l-11.761,-25.286l-15.723,-25.855l-14.982,-20.136l-13.003,-23.075l-13.608,-17.024l-15.431,-19.293l-18.757,-21.361l-13.976,-15.554l-14.183,-13.964l-12.123,-10.937l-9.66,-9.07l-10.715,-9.708l-8.264,-6.906" style="fill:none;stroke:#71893d;stroke-width:2.34px;"/></g><g id="_4small1" serif:id="4small"><g><path d="M604.677,614.211l0.85,-3.761l-1.802,-1.891l-3.105,-2.472l-0.809,-4.548l0.01,-6.787l0.179,-7.19l-5.614,-6.409l-7.114,-2.561l-3.232,-3.46l-0.77,-7.693l0.424,-7.854l-1.598,-8.081l-4.279,-3.824l-6.499,-3.774l-5.887,-3.357l-0.924,-6.287l1.44,-5.219l-0.765,-5.053l-3.799,-3.259l-6.686,-5.259l-5.835,-2.103l-1.606,-4.691l-0.991,-5.902l-1.549,-5.946l-4.322,-4.2l-7.18,-2.171l-2.356,-2.703l-0.574,-5.329l-0.675,-6.07l-5.37,-3.671l-7.758,-1.47l-2.321,-3.332l-2.078,-10.033l-2.67,-4.29l-5.557,-3.402l-8.322,-1.519l-2.889,-4.261l-2.899,-8.66l-1.323,-3.342l-4.134,-2.707l-8.263,-3.668l-0.649,-3.302l-1.839,-3.023l-1.309,-4.1l-2.421,-4.955l-3.165,-3.842l-5.453,-3.417l-3.989,-2.476l-1.169,-3.869l-3.75,-4.9l-2.994,-3.367l-3.65,-3.278l-3.76,-3.27l-1.978,-3.248l0.815,-3.131l3.551,-0.097l3.943,2.982l5.121,3.461l4.193,1.444l3.995,2.483l3.727,3.018l3.19,0.575l4.243,2.692l3.259,3.713l1.415,3.204l3.088,2.35l4.157,0.319l3.722,0.378l2.933,3.749l0.132,1.874l1.433,4.202l3.651,3.284l5.314,-0.217l4.482,0.276l3.306,2.32l1.759,2.403l1.06,3.883l0.818,2.905l1.931,2.886l4.837,2.113l5.383,2.919l5.015,4.349l0.823,3.791l2.218,5.107l0.123,3.504l2.327,5.092l3.539,2.413l5.085,2.329l5.516,-0.363l3.012,4.369l1.792,4.409l1.616,5.57l1.559,4.315l2.409,2.316l5.2,2.314l6.297,1.41l4.901,2.61l2.011,3.499l0.523,6.597l0.702,6.317l0.706,4.555l3.15,3.726l4.581,1.892l5.054,2.084l3.681,6.925l2.528,4.941l1.498,4.698l2.624,3.923l3.225,3.085l4.147,1.957l4.166,2.952l2.874,4.145l1.108,4.245l1.013,5.27l-1.329,4.33l-0.141,4.925l0.088,4.134l2.713,2.904l2.433,4.199l3.2,3.213l3.421,4.066l1.149,2.859l0.733,4.808l-0.225,3.427l0.214,3.36l2.385,3.829l2.181,3.103l-32.525,5.765Z" style="fill:#8eaa46;"/><path d="M616.585,596.153l-12.637,-25.641l-15.083,-26.257l-14.209,-21.653l-9.349,-12.099l-10.347,-16.518l-14.331,-18.344l-14.682,-15.618l-17.627,-22.294l-10.424,-10.7l-17.647,-14.279l-14.675,-14.521l-12.614,-11.501" style="fill:none;stroke:#71893d;stroke-width:2.34px;"/></g><g><path d="M642.805,463.052l2.157,13.154l-21.099,-8.386l-7.755,-11.238l-1.274,-8.177l-5.445,-3.437l-7.963,0.582l-2.77,-7.975l-2.411,-10.231l-3.715,-6.869l-5.466,-0.242l-5.945,-7.304l-0.12,-11.032l1.62,-9.302l-3.745,-7.109l-7.98,-4.573l-3.527,-5.416l-0.024,-6.875l1.808,-7.856l-0.595,-6.304l-3.556,-3.941l-6.211,-6.034l-1.366,-7.185l0.646,-8.436l-0.758,-7.511l-5.327,-5.909l-1.609,-7.396l0.497,-7.923l-2.708,-7.491l-4.525,-3.075l-3.19,-4.483l0.95,-7.741l0.778,-5.754l-2.645,-7.006l-5.757,-5.852l-4.595,-5.279l-2.458,-5.56l0.74,-7.713l-1.267,-6.457l-4.72,-6.241l-3.307,-3.725l-0.905,-5.284l-0.446,-6.811l-2.185,-5.111l-5.407,-3.199l-3.04,-4.989l-2.67,-5.532l-4.354,-6.783l-5.967,-5.823l-2.949,-4.273l3.446,-1.935l4.463,2.59l8.658,6.445l8.752,7.169l8.628,7.921l1.903,2.936l0.408,4.857l2.449,2.127l5.81,2.895l2.326,2.878l0.477,5.342l0.071,3.919l2.084,2.668l6.815,2.267l2.692,2.343l2.574,3.088l-1.019,7.258l2.863,6.984l6.031,6.307l3.369,4.21l0.478,7.055l-1.379,7.8l1.828,9.087l4.524,3.068l5.141,4.463l1.24,6.218l-0.707,7.957l0.172,6.356l2.575,4.809l9.999,5.036l2.825,5.025l-1.94,5.175l-1.169,7.764l-0.498,6.208l4.587,3.553l5.079,3.985l2.131,8.061l-0.802,7.229l3.284,5.207l7.036,5.678l4.611,2.078l3.26,6.681l-1.377,9.519l-0.872,5.031l1.062,8.206l8.469,3.272l7.394,3.423l3.84,7.831l3.199,7.918l0.781,6.036l0.019,6.875l3.284,6.919l3.651,4.665l-1.965,6.65Z" style="fill:#a9cc4c;"/><path d="M630.359,452l-22.76,-33.794l-10.238,-19.993l-11.146,-17.355l-7.745,-15.772l-5.216,-20.986l-9.258,-30.648l-6.342,-18.95l-4.457,-12.916l-5.631,-22.027l-2.79,-10.778l-6.136,-7.659l-6.445,-5.732l-4.91,-8.928l-5.545,-11.667l-6.484,-13.583l-6.533,-9.648" style="fill:none;stroke:#9cbb48;stroke-width:2.34px;"/></g><g><path d="M686.471,603.042l-21.999,2.664l-0.232,-3.187l1.681,-2.139l-0.371,-2.866l-2.088,-3.745l-3.045,-2.906l-3.273,-3.283l-2.348,-3.001l1.019,-5.871l3.016,-4.224l1.631,-6.657l-1.961,-6.172l-3.985,-4.698l-6.509,-2.137l0.171,-5.554l2.606,-5.278l2.201,-4.324l1.061,-4.872l-0.743,-5.733l-2.813,-8.672l-3.521,-3.847l-2.58,-4.079l-0.14,-5.211l1.532,-2.623l3.241,-6.572l0.583,-5.103l-2.818,-5.959l-4.683,-3.895l-2.567,-3.976l0.948,-6.466l2.44,-7.272l-0.72,-6.235l-1.787,-3.484l-2.306,-2l-4.302,-5.76l-1.279,-4.352l1.824,-5.173l1.303,-2.993l0.624,-3.402l-1.501,-4.724l-3.337,-3.774l-1.458,-3.724l2.097,-4.408l3.15,-5.253l-0.725,-6.943l-2.435,-4.402l-4.551,-4.213l-4.064,-4.583l-1.115,-3.771l1.839,-3.663l1.639,-5.253l1.447,-4.623l-1.816,-4.378l-2.41,-4.201l-1.967,-4.865l1.164,-4.078l2.637,-5.085l1.473,-4.423l0.084,-5.542l-1.077,-3.474l-2.316,-2.808l-1.171,-5.576l1.639,-4.543l1.626,-3.241l-0.255,-6.101l-0.686,-6.646l-1.003,-6.401l1.953,-2.779l5.499,-0.137l2.809,2.438l1.233,6.068l-0.504,3.694l1.605,4.808l0.626,5.552l2.944,6.94l2.713,3.759l1.139,3.268l-0.307,3.156l-1.46,4.525l1.551,3.712l3.048,3.616l2.67,2.753l-1.438,4.017l-0.828,3.935l-0.414,3.675l0.536,2.746l3.058,3.01l3.825,2.696l2.131,3.437l-0.24,2.948l-1.739,3.053l-1.8,3.961l0.709,4.128l2.298,6.029l3.264,5.996l1.867,8.899l-1.858,5.583l-1.45,5.326l0.372,6.992l1.99,3.653l3.944,2.989l2.221,3.418l-0.432,5.596l-1.535,4.627l0.497,6.574l1.011,4.389l2.803,5.856l4.288,4.25l2.662,3.366l-1.137,7.693l-3.876,4.445l-1.004,7.38l0.89,4.806l2.811,3.844l2.029,3.951l2.362,8.634l-0.588,4.401l-0.972,4.158l1.863,4.78l1.513,4.821l1.809,2.974l1.999,3.758l2.792,5.049l0.663,4.443l-2.37,5.043l-2.606,3.267l-1.427,2.709l-0.267,2.748l-0.16,4.955l1.837,4.58l1.47,2.416l2.063,3.545l1.708,3.593l1.162,4.165l-0.694,4.922l0.214,5.101l-0.064,7.05Z" style="fill:#159d37;"/><path d="M671.639,591.921l-3.505,-29.23l-5.171,-23.817l-3.486,-21.534l-4.062,-32.452l-2.758,-20.215l-8.135,-35.989l-3.081,-23.789l-6.453,-34.804l-1.846,-16.41l-0.914,-17.789l0.52,-16.413l-1.711,-4.643" style="fill:none;stroke:#0b8c39;stroke-width:2.34px;"/></g><g><path d="M798.53,588.17l-37.989,5.622l0.997,-5.363l1.423,-4.816l-2.043,-6.162l-4.09,-4.079l-3.823,-4.109l-2.782,-6.363l0.993,-6.066l0.108,-6.755l-0.683,-5.943l-3.404,-4.974l-4.656,-2.289l-5.847,-3.231l-3.475,-4.162l0.557,-5.303l0.708,-5.529l-1.35,-4.238l-3.186,-3.998l-4.5,-3.82l-5.319,-1.897l-3.295,-6.899l-1.255,-5.566l0.235,-5.056l-2.701,-3.662l-4.723,-3.082l-5.587,-6.688l-1.766,-6.101l-1.457,-5.735l-4.775,-3.881l-5.679,-4.667l-2.548,-3.88l0.309,-5.874l0.293,-5.276l-3.001,-6.032l-4.477,-4.322l-4.923,-2.956l-3.625,-3.938l-0.39,-9.203l-0.465,-5.665l-2.041,-4.756l-3.282,-6.094l-1.228,-6.073l0.828,-5.945l0.03,-6.638l-0.985,-4.197l-1.725,-4.392l-1.939,-7.383l0.901,-4.044l1.422,-4.816l-0.084,-8.238l-0.308,-5.792l-0.014,-5.627l1.162,-3.375l2.674,-0.663l1.644,1.689l0.739,4.321l0.088,3.411l1.073,4.887l0.605,5.344l1.418,6.147l2.715,5.165l2.217,4.732l-0.132,5.851l-0.866,3.637l2.425,3.595l2.619,2.36l3.681,3.025l-0.293,5.274l-0.375,3.972l0.962,4.698l3.709,2.515l4.183,2.05l3.368,2.666l0.893,5.508l-0.633,4.717l0,4.125l2.543,3.171l4.63,4.106l4.322,3.844l2.05,3.441l1.111,3.779l0.063,4.615l1.01,4.39l0.977,4.091l2.299,4.012l4.147,3.166l4.572,1.597l4.821,2.168l0.695,4.024l1.505,5.433l0.473,3.654l1.564,3.816l2.502,4.188l5.328,1.292l7.232,3.649l3.327,2.974l1.166,4.874l0.304,5.089l0.825,4.309l1.397,4.64l3.941,3.594l6.299,3.978l3.436,3.865l2.426,5l1.457,5.735l0.835,3.71l3.312,3.58l4.055,5.188l5.199,4.422l3.648,3.437l2.398,3.393l2.143,5.545l-4.707,4.858l-2.054,3.397l-0.138,3.743l2.14,6.247l2.924,3.324l3.032,2.81l3.531,4.154Z" style="fill:#5bbc5b;"/><path d="M773.74,568.739l-3.841,-17.866l-11.818,-19.308l-10.089,-15.613l-11.738,-18.687l-8.698,-15.644l-7.024,-10.212l-7.299,-10.176l-7.019,-8.012l-9.042,-7.577l-3.82,-9.075l-4.958,-12.528l-5.711,-15.106l-4.925,-14.424l-4.597,-13.995l-2.534,-12.073l-3.814,-14.416l-1.04,-8.031" style="fill:none;stroke:#43a453;stroke-width:2.34px;"/></g></g></g><path id="rock" d="M426.276,687.192l-48.972,68.899l-71.863,76.283l32.763,76.471l70.804,49.725l91.884,24.43l77.008,12.04l93.262,-1.631l70.851,-61.966l79.225,-70.628l23.619,-110.404l57.91,-34.642l-4.513,-100.602l-52.245,-43.726l-57.501,1.783l-65.543,-0.988l-99.973,8.009l-37.051,51.719l-64.204,21.701l-95.461,33.527Z" style="fill:#797978;"/></svg>